G04 #@! TF.GenerationSoftware,KiCad,Pcbnew,9.0.2*
G04 #@! TF.CreationDate,2025-07-27T14:28:17-07:00*
G04 #@! TF.ProjectId,PortableWeatherStation,506f7274-6162-46c6-9557-656174686572,rev?*
G04 #@! TF.SameCoordinates,Original*
G04 #@! TF.FileFunction,Copper,L1,Top*
G04 #@! TF.FilePolarity,Positive*
%FSLAX46Y46*%
G04 Gerber Fmt 4.6, Leading zero omitted, Abs format (unit mm)*
G04 Created by KiCad (PCBNEW 9.0.2) date 2025-07-27 14:28:17*
%MOMM*%
%LPD*%
G01*
G04 APERTURE LIST*
G04 #@! TA.AperFunction,ComponentPad*
%ADD10R,1.540000X1.540000*%
G04 #@! TD*
G04 #@! TA.AperFunction,ComponentPad*
%ADD11C,1.540000*%
G04 #@! TD*
G04 #@! TA.AperFunction,ComponentPad*
%ADD12R,1.600000X1.600000*%
G04 #@! TD*
G04 #@! TA.AperFunction,ComponentPad*
%ADD13O,1.600000X1.600000*%
G04 #@! TD*
G04 #@! TA.AperFunction,ComponentPad*
%ADD14R,1.500000X1.500000*%
G04 #@! TD*
G04 #@! TA.AperFunction,ComponentPad*
%ADD15C,1.600000*%
G04 #@! TD*
G04 #@! TA.AperFunction,ViaPad*
%ADD16C,0.700000*%
G04 #@! TD*
G04 #@! TA.AperFunction,Conductor*
%ADD17C,0.400000*%
G04 #@! TD*
G04 #@! TA.AperFunction,Conductor*
%ADD18C,0.200000*%
G04 #@! TD*
G04 APERTURE END LIST*
D10*
X115850000Y-99905486D03*
D11*
X113310000Y-99905486D03*
X110770000Y-99905486D03*
X108230000Y-99905486D03*
X105690000Y-99905486D03*
X103150000Y-99905486D03*
D10*
X168150000Y-65845786D03*
D11*
X165610000Y-65845786D03*
X163070000Y-65845786D03*
X160530000Y-65845786D03*
X157990000Y-65845786D03*
X155450000Y-65845786D03*
X152910000Y-65845786D03*
X150370000Y-65845786D03*
D10*
X100626000Y-116890000D03*
D11*
X100626000Y-119430000D03*
X100626000Y-121970000D03*
X100626000Y-124510000D03*
D12*
X140000000Y-102480000D03*
D13*
X140000000Y-99940000D03*
X140000000Y-97400000D03*
X140000000Y-94860000D03*
X140000000Y-92320000D03*
X140000000Y-89780000D03*
X140000000Y-87240000D03*
X140000000Y-84700000D03*
X140000000Y-82160000D03*
X140000000Y-79620000D03*
X140000000Y-77080000D03*
X140000000Y-74540000D03*
X140000000Y-72000000D03*
X140000000Y-69460000D03*
X140000000Y-66920000D03*
X124760000Y-66920000D03*
X124760000Y-69460000D03*
X124760000Y-72000000D03*
X124760000Y-74540000D03*
X124760000Y-77080000D03*
X124760000Y-79620000D03*
X124760000Y-82160000D03*
X124760000Y-84700000D03*
X124760000Y-87240000D03*
X124760000Y-89780000D03*
X124760000Y-92320000D03*
X124760000Y-94860000D03*
X124760000Y-97400000D03*
X124760000Y-99940000D03*
X124760000Y-102480000D03*
D14*
X178500000Y-84895786D03*
D15*
X178500000Y-82355786D03*
X178500000Y-87435786D03*
D10*
X137400000Y-120920000D03*
D11*
X137400000Y-123460000D03*
X137400000Y-126000000D03*
D16*
X157400000Y-76400000D03*
X159400000Y-72000000D03*
D17*
X121610000Y-116890000D02*
X100626000Y-116890000D01*
X122200000Y-116300000D02*
X121610000Y-116890000D01*
X122740000Y-94860000D02*
X122200000Y-95400000D01*
X122200000Y-95400000D02*
X122200000Y-116300000D01*
X124760000Y-94860000D02*
X122740000Y-94860000D01*
X158000000Y-75800000D02*
X158000000Y-65855786D01*
X158000000Y-65855786D02*
X157990000Y-65845786D01*
X157400000Y-76400000D02*
X158000000Y-75800000D01*
D18*
X152910000Y-59710000D02*
X152200000Y-59000000D01*
X152200000Y-59000000D02*
X123100000Y-59000000D01*
X152910000Y-65845786D02*
X152910000Y-59710000D01*
X122400000Y-59700000D02*
X122400000Y-66400000D01*
X122920000Y-66920000D02*
X124760000Y-66920000D01*
X122400000Y-66400000D02*
X122920000Y-66920000D01*
X123100000Y-59000000D02*
X122400000Y-59700000D01*
X110770000Y-87730000D02*
X110770000Y-99905486D01*
X111260000Y-87240000D02*
X110770000Y-87730000D01*
X124760000Y-87240000D02*
X111260000Y-87240000D01*
X108230000Y-85670000D02*
X109200000Y-84700000D01*
X108230000Y-99905486D02*
X108230000Y-85670000D01*
X109200000Y-84700000D02*
X124760000Y-84700000D01*
D17*
X149620000Y-89780000D02*
X140000000Y-89780000D01*
X150370000Y-65845786D02*
X150370000Y-89030000D01*
X150370000Y-89030000D02*
X149620000Y-89780000D01*
D18*
X143100000Y-122800000D02*
X142440000Y-123460000D01*
X142280000Y-92320000D02*
X142300000Y-92300000D01*
X140000000Y-92320000D02*
X142280000Y-92320000D01*
X143100000Y-93100000D02*
X143100000Y-122800000D01*
X142440000Y-123460000D02*
X137400000Y-123460000D01*
X142300000Y-92300000D02*
X143100000Y-93100000D01*
D17*
X159400000Y-72000000D02*
X162440000Y-72000000D01*
X162440000Y-72000000D02*
X163070000Y-71370000D01*
X163070000Y-71370000D02*
X163070000Y-65845786D01*
X121200000Y-68900000D02*
X121200000Y-59000000D01*
X124760000Y-69460000D02*
X121760000Y-69460000D01*
X122400000Y-57800000D02*
X167200000Y-57800000D01*
X121760000Y-69460000D02*
X121200000Y-68900000D01*
X124760000Y-69460000D02*
X106840000Y-69460000D01*
X121200000Y-59000000D02*
X122400000Y-57800000D01*
X106840000Y-69460000D02*
X105690000Y-70610000D01*
X105690000Y-70610000D02*
X105690000Y-99905486D01*
X167200000Y-57800000D02*
X168150000Y-58750000D01*
X168150000Y-58750000D02*
X168150000Y-65845786D01*
G04 #@! TA.AperFunction,Conductor*
G36*
X166925520Y-58520185D02*
G01*
X166946162Y-58536819D01*
X167413181Y-59003838D01*
X167446666Y-59065161D01*
X167449500Y-59091519D01*
X167449500Y-64451464D01*
X167429815Y-64518503D01*
X167377011Y-64564258D01*
X167335381Y-64574488D01*
X167335429Y-64574932D01*
X167332134Y-64575286D01*
X167332131Y-64575286D01*
X167332128Y-64575287D01*
X167332122Y-64575287D01*
X167272516Y-64581694D01*
X167137671Y-64631988D01*
X167137664Y-64631992D01*
X167022455Y-64718238D01*
X167022452Y-64718241D01*
X166936206Y-64833450D01*
X166936202Y-64833457D01*
X166885908Y-64968303D01*
X166880554Y-65018108D01*
X166879501Y-65027909D01*
X166879500Y-65027921D01*
X166879500Y-65050817D01*
X166859815Y-65117856D01*
X166807011Y-65163611D01*
X166737853Y-65173555D01*
X166674297Y-65144530D01*
X166671633Y-65141627D01*
X166667995Y-65141341D01*
X166010000Y-65799337D01*
X166010000Y-65793125D01*
X165982741Y-65691392D01*
X165930080Y-65600180D01*
X165855606Y-65525706D01*
X165764394Y-65473045D01*
X165662661Y-65445786D01*
X165656445Y-65445786D01*
X166314443Y-64787788D01*
X166314443Y-64787787D01*
X166275625Y-64759585D01*
X166275623Y-64759584D01*
X166097508Y-64668829D01*
X165907393Y-64607058D01*
X165709950Y-64575786D01*
X165510050Y-64575786D01*
X165312606Y-64607058D01*
X165122491Y-64668829D01*
X164944372Y-64759586D01*
X164905555Y-64787787D01*
X164905555Y-64787788D01*
X165563553Y-65445786D01*
X165557339Y-65445786D01*
X165455606Y-65473045D01*
X165364394Y-65525706D01*
X165289920Y-65600180D01*
X165237259Y-65691392D01*
X165210000Y-65793125D01*
X165210000Y-65799339D01*
X164552002Y-65141341D01*
X164552001Y-65141341D01*
X164523798Y-65180161D01*
X164450764Y-65323496D01*
X164402789Y-65374292D01*
X164334968Y-65391086D01*
X164268833Y-65368548D01*
X164229795Y-65323495D01*
X164156629Y-65179899D01*
X164039083Y-65018111D01*
X163897675Y-64876703D01*
X163735887Y-64759157D01*
X163727931Y-64755103D01*
X163557700Y-64668365D01*
X163367511Y-64606570D01*
X163268750Y-64590928D01*
X163169991Y-64575286D01*
X162970009Y-64575286D01*
X162904169Y-64585714D01*
X162772488Y-64606570D01*
X162582299Y-64668365D01*
X162404112Y-64759157D01*
X162311806Y-64826221D01*
X162242325Y-64876703D01*
X162242323Y-64876705D01*
X162242322Y-64876705D01*
X162100919Y-65018108D01*
X162100919Y-65018109D01*
X162100917Y-65018111D01*
X162093795Y-65027914D01*
X161983367Y-65179903D01*
X161910484Y-65322944D01*
X161862510Y-65373740D01*
X161794689Y-65390535D01*
X161728554Y-65367997D01*
X161689516Y-65322944D01*
X161616632Y-65179903D01*
X161590932Y-65144530D01*
X161499083Y-65018111D01*
X161357675Y-64876703D01*
X161195887Y-64759157D01*
X161187931Y-64755103D01*
X161017700Y-64668365D01*
X160827511Y-64606570D01*
X160728750Y-64590928D01*
X160629991Y-64575286D01*
X160430009Y-64575286D01*
X160364169Y-64585714D01*
X160232488Y-64606570D01*
X160042299Y-64668365D01*
X159864112Y-64759157D01*
X159771806Y-64826221D01*
X159702325Y-64876703D01*
X159702323Y-64876705D01*
X159702322Y-64876705D01*
X159560919Y-65018108D01*
X159560919Y-65018109D01*
X159560917Y-65018111D01*
X159553795Y-65027914D01*
X159443367Y-65179903D01*
X159370484Y-65322944D01*
X159322510Y-65373740D01*
X159254689Y-65390535D01*
X159188554Y-65367997D01*
X159149516Y-65322944D01*
X159076632Y-65179903D01*
X159050932Y-65144530D01*
X158959083Y-65018111D01*
X158817675Y-64876703D01*
X158655887Y-64759157D01*
X158647931Y-64755103D01*
X158477700Y-64668365D01*
X158287511Y-64606570D01*
X158188750Y-64590928D01*
X158089991Y-64575286D01*
X157890009Y-64575286D01*
X157824169Y-64585714D01*
X157692488Y-64606570D01*
X157502299Y-64668365D01*
X157324112Y-64759157D01*
X157231806Y-64826221D01*
X157162325Y-64876703D01*
X157162323Y-64876705D01*
X157162322Y-64876705D01*
X157020919Y-65018108D01*
X157020919Y-65018109D01*
X157020917Y-65018111D01*
X157013795Y-65027914D01*
X156903367Y-65179903D01*
X156830484Y-65322944D01*
X156782510Y-65373740D01*
X156714689Y-65390535D01*
X156648554Y-65367997D01*
X156609516Y-65322944D01*
X156536632Y-65179903D01*
X156510932Y-65144530D01*
X156419083Y-65018111D01*
X156277675Y-64876703D01*
X156115887Y-64759157D01*
X156107931Y-64755103D01*
X155937700Y-64668365D01*
X155747511Y-64606570D01*
X155648750Y-64590928D01*
X155549991Y-64575286D01*
X155350009Y-64575286D01*
X155284169Y-64585714D01*
X155152488Y-64606570D01*
X154962299Y-64668365D01*
X154784112Y-64759157D01*
X154691806Y-64826221D01*
X154622325Y-64876703D01*
X154622323Y-64876705D01*
X154622322Y-64876705D01*
X154480919Y-65018108D01*
X154480919Y-65018109D01*
X154480917Y-65018111D01*
X154473795Y-65027914D01*
X154363367Y-65179903D01*
X154290484Y-65322944D01*
X154242510Y-65373740D01*
X154174689Y-65390535D01*
X154108554Y-65367997D01*
X154069516Y-65322944D01*
X153996632Y-65179903D01*
X153970932Y-65144530D01*
X153879083Y-65018111D01*
X153737675Y-64876703D01*
X153575887Y-64759157D01*
X153575886Y-64759156D01*
X153575880Y-64759152D01*
X153571735Y-64756612D01*
X153572659Y-64755103D01*
X153527404Y-64712354D01*
X153510500Y-64649853D01*
X153510500Y-59799060D01*
X153510501Y-59799047D01*
X153510501Y-59630944D01*
X153507618Y-59620185D01*
X153469577Y-59478216D01*
X153441959Y-59430380D01*
X153390524Y-59341290D01*
X153390518Y-59341282D01*
X153089393Y-59040157D01*
X152761415Y-58712180D01*
X152727931Y-58650858D01*
X152732915Y-58581167D01*
X152774786Y-58525233D01*
X152840251Y-58500816D01*
X152849097Y-58500500D01*
X166858481Y-58500500D01*
X166925520Y-58520185D01*
G37*
G04 #@! TD.AperFunction*
G04 #@! TA.AperFunction,Conductor*
G36*
X183090206Y-56336601D02*
G01*
X183325931Y-56353459D01*
X183343432Y-56355976D01*
X183570013Y-56405264D01*
X183586989Y-56410248D01*
X183804257Y-56491283D01*
X183820350Y-56498633D01*
X184023857Y-56609755D01*
X184038740Y-56619319D01*
X184224378Y-56758283D01*
X184237750Y-56769869D01*
X184401719Y-56933836D01*
X184413298Y-56947199D01*
X184552265Y-57132833D01*
X184561825Y-57147709D01*
X184672961Y-57351235D01*
X184680309Y-57367327D01*
X184680310Y-57367329D01*
X184761342Y-57584580D01*
X184766327Y-57601555D01*
X184815619Y-57828139D01*
X184818137Y-57845651D01*
X184834970Y-58080978D01*
X184835286Y-58089825D01*
X184835286Y-135081361D01*
X184834970Y-135090207D01*
X184818112Y-135325924D01*
X184815594Y-135343435D01*
X184766307Y-135570010D01*
X184761323Y-135586986D01*
X184680290Y-135804249D01*
X184672940Y-135820343D01*
X184561812Y-136023858D01*
X184552247Y-136038741D01*
X184413288Y-136224369D01*
X184401702Y-136237740D01*
X184237740Y-136401702D01*
X184224369Y-136413288D01*
X184038741Y-136552247D01*
X184023858Y-136561812D01*
X183820343Y-136672940D01*
X183804249Y-136680290D01*
X183586986Y-136761323D01*
X183570010Y-136766307D01*
X183343435Y-136815594D01*
X183325924Y-136818112D01*
X183130382Y-136832096D01*
X183090205Y-136834970D01*
X183081362Y-136835286D01*
X95590217Y-136835286D01*
X95581370Y-136834970D01*
X95345655Y-136818109D01*
X95328143Y-136815591D01*
X95101563Y-136766300D01*
X95084588Y-136761315D01*
X94867338Y-136680283D01*
X94851245Y-136672934D01*
X94647727Y-136561804D01*
X94632843Y-136552238D01*
X94447221Y-136413280D01*
X94433850Y-136401694D01*
X94269889Y-136237730D01*
X94258304Y-136224360D01*
X94119342Y-136038726D01*
X94109789Y-136023863D01*
X93998651Y-135820327D01*
X93991307Y-135804244D01*
X93910271Y-135586971D01*
X93905292Y-135570010D01*
X93856004Y-135343428D01*
X93853487Y-135325927D01*
X93839882Y-135135680D01*
X93836602Y-135089811D01*
X93836286Y-135080966D01*
X93836286Y-132987363D01*
X96335286Y-132987363D01*
X96335286Y-133184208D01*
X96366076Y-133378612D01*
X96426903Y-133565815D01*
X96477521Y-133665157D01*
X96516262Y-133741191D01*
X96631958Y-133900432D01*
X96771140Y-134039614D01*
X96930381Y-134155310D01*
X97013241Y-134197529D01*
X97105756Y-134244668D01*
X97105758Y-134244668D01*
X97105761Y-134244670D01*
X97206103Y-134277273D01*
X97292959Y-134305495D01*
X97487364Y-134336286D01*
X97487369Y-134336286D01*
X97684208Y-134336286D01*
X97878612Y-134305495D01*
X98065811Y-134244670D01*
X98241191Y-134155310D01*
X98400432Y-134039614D01*
X98539614Y-133900432D01*
X98655310Y-133741191D01*
X98744670Y-133565811D01*
X98805495Y-133378612D01*
X98817415Y-133303354D01*
X98836286Y-133184208D01*
X98836286Y-132987363D01*
X179835286Y-132987363D01*
X179835286Y-133184208D01*
X179866076Y-133378612D01*
X179926903Y-133565815D01*
X179977521Y-133665157D01*
X180016262Y-133741191D01*
X180131958Y-133900432D01*
X180271140Y-134039614D01*
X180430381Y-134155310D01*
X180513241Y-134197529D01*
X180605756Y-134244668D01*
X180605758Y-134244668D01*
X180605761Y-134244670D01*
X180706103Y-134277273D01*
X180792959Y-134305495D01*
X180987364Y-134336286D01*
X180987369Y-134336286D01*
X181184208Y-134336286D01*
X181378612Y-134305495D01*
X181565811Y-134244670D01*
X181741191Y-134155310D01*
X181900432Y-134039614D01*
X182039614Y-133900432D01*
X182155310Y-133741191D01*
X182244670Y-133565811D01*
X182305495Y-133378612D01*
X182317415Y-133303354D01*
X182336286Y-133184208D01*
X182336286Y-132987363D01*
X182305495Y-132792959D01*
X182244668Y-132605756D01*
X182155309Y-132430380D01*
X182110393Y-132368559D01*
X182039614Y-132271140D01*
X181900432Y-132131958D01*
X181741191Y-132016262D01*
X181565815Y-131926903D01*
X181378612Y-131866076D01*
X181184208Y-131835286D01*
X181184203Y-131835286D01*
X180987369Y-131835286D01*
X180987364Y-131835286D01*
X180792959Y-131866076D01*
X180605756Y-131926903D01*
X180430380Y-132016262D01*
X180339527Y-132082271D01*
X180271140Y-132131958D01*
X180271138Y-132131960D01*
X180271137Y-132131960D01*
X180131960Y-132271137D01*
X180131960Y-132271138D01*
X180131958Y-132271140D01*
X180082271Y-132339527D01*
X180016262Y-132430380D01*
X179926903Y-132605756D01*
X179866076Y-132792959D01*
X179835286Y-132987363D01*
X98836286Y-132987363D01*
X98805495Y-132792959D01*
X98744668Y-132605756D01*
X98655309Y-132430380D01*
X98610393Y-132368559D01*
X98539614Y-132271140D01*
X98400432Y-132131958D01*
X98241191Y-132016262D01*
X98065815Y-131926903D01*
X97878612Y-131866076D01*
X97684208Y-131835286D01*
X97684203Y-131835286D01*
X97487369Y-131835286D01*
X97487364Y-131835286D01*
X97292959Y-131866076D01*
X97105756Y-131926903D01*
X96930380Y-132016262D01*
X96839527Y-132082271D01*
X96771140Y-132131958D01*
X96771138Y-132131960D01*
X96771137Y-132131960D01*
X96631960Y-132271137D01*
X96631960Y-132271138D01*
X96631958Y-132271140D01*
X96582271Y-132339527D01*
X96516262Y-132430380D01*
X96426903Y-132605756D01*
X96366076Y-132792959D01*
X96335286Y-132987363D01*
X93836286Y-132987363D01*
X93836286Y-116072131D01*
X99355500Y-116072131D01*
X99355500Y-117707870D01*
X99355501Y-117707876D01*
X99361908Y-117767483D01*
X99412202Y-117902328D01*
X99412206Y-117902335D01*
X99498452Y-118017544D01*
X99498455Y-118017547D01*
X99613664Y-118103793D01*
X99613671Y-118103797D01*
X99658618Y-118120561D01*
X99748517Y-118154091D01*
X99808127Y-118160500D01*
X99831026Y-118160499D01*
X99898063Y-118180181D01*
X99943820Y-118232983D01*
X99953767Y-118302141D01*
X99924744Y-118365698D01*
X99921841Y-118368361D01*
X99921555Y-118372002D01*
X100579553Y-119030000D01*
X100573339Y-119030000D01*
X100471606Y-119057259D01*
X100380394Y-119109920D01*
X100305920Y-119184394D01*
X100253259Y-119275606D01*
X100226000Y-119377339D01*
X100226000Y-119383553D01*
X99568002Y-118725555D01*
X99568001Y-118725555D01*
X99539800Y-118764372D01*
X99449043Y-118942491D01*
X99387272Y-119132606D01*
X99356000Y-119330049D01*
X99356000Y-119529950D01*
X99387272Y-119727393D01*
X99449043Y-119917508D01*
X99539798Y-120095623D01*
X99539799Y-120095625D01*
X99568001Y-120134443D01*
X99568002Y-120134443D01*
X100226000Y-119476445D01*
X100226000Y-119482661D01*
X100253259Y-119584394D01*
X100305920Y-119675606D01*
X100380394Y-119750080D01*
X100471606Y-119802741D01*
X100573339Y-119830000D01*
X100579553Y-119830000D01*
X99921555Y-120487995D01*
X99921555Y-120487996D01*
X99960379Y-120516202D01*
X100103709Y-120589234D01*
X100154505Y-120637209D01*
X100171300Y-120705030D01*
X100148762Y-120771165D01*
X100103710Y-120810203D01*
X99960114Y-120883369D01*
X99846931Y-120965602D01*
X99798325Y-121000917D01*
X99798323Y-121000919D01*
X99798322Y-121000919D01*
X99656919Y-121142322D01*
X99656919Y-121142323D01*
X99656917Y-121142325D01*
X99606435Y-121211806D01*
X99539371Y-121304112D01*
X99448579Y-121482299D01*
X99386784Y-121672488D01*
X99355500Y-121870009D01*
X99355500Y-122069990D01*
X99386784Y-122267511D01*
X99448579Y-122457700D01*
X99504241Y-122566942D01*
X99539371Y-122635887D01*
X99656917Y-122797675D01*
X99798325Y-122939083D01*
X99925917Y-123031784D01*
X99960117Y-123056632D01*
X100103158Y-123129516D01*
X100153954Y-123177490D01*
X100170749Y-123245311D01*
X100148211Y-123311446D01*
X100103158Y-123350484D01*
X99960117Y-123423367D01*
X99852254Y-123501735D01*
X99798325Y-123540917D01*
X99798323Y-123540919D01*
X99798322Y-123540919D01*
X99656919Y-123682322D01*
X99656919Y-123682323D01*
X99656917Y-123682325D01*
X99606435Y-123751806D01*
X99539371Y-123844112D01*
X99448579Y-124022299D01*
X99386784Y-124212488D01*
X99355500Y-124410009D01*
X99355500Y-124609990D01*
X99386784Y-124807511D01*
X99448579Y-124997700D01*
X99448581Y-124997703D01*
X99539371Y-125175887D01*
X99656917Y-125337675D01*
X99798325Y-125479083D01*
X99960113Y-125596629D01*
X100057884Y-125646446D01*
X100138299Y-125687420D01*
X100185038Y-125702606D01*
X100328490Y-125749216D01*
X100526009Y-125780500D01*
X100526010Y-125780500D01*
X100725990Y-125780500D01*
X100725991Y-125780500D01*
X100923510Y-125749216D01*
X101113703Y-125687419D01*
X101291887Y-125596629D01*
X101453675Y-125479083D01*
X101595083Y-125337675D01*
X101712629Y-125175887D01*
X101803419Y-124997703D01*
X101865216Y-124807510D01*
X101896500Y-124609991D01*
X101896500Y-124410009D01*
X101865216Y-124212490D01*
X101803419Y-124022297D01*
X101712629Y-123844113D01*
X101595083Y-123682325D01*
X101453675Y-123540917D01*
X101291887Y-123423371D01*
X101148840Y-123350484D01*
X101098045Y-123302510D01*
X101081250Y-123234689D01*
X101103788Y-123168554D01*
X101148841Y-123129515D01*
X101291887Y-123056629D01*
X101453675Y-122939083D01*
X101595083Y-122797675D01*
X101712629Y-122635887D01*
X101803419Y-122457703D01*
X101865216Y-122267510D01*
X101896500Y-122069991D01*
X101896500Y-121870009D01*
X101865216Y-121672490D01*
X101803419Y-121482297D01*
X101712629Y-121304113D01*
X101595083Y-121142325D01*
X101453675Y-121000917D01*
X101291887Y-120883371D01*
X101148290Y-120810204D01*
X101097494Y-120762229D01*
X101080699Y-120694408D01*
X101103237Y-120628273D01*
X101148290Y-120589234D01*
X101291617Y-120516204D01*
X101291630Y-120516196D01*
X101330443Y-120487997D01*
X101330444Y-120487996D01*
X100672447Y-119830000D01*
X100678661Y-119830000D01*
X100780394Y-119802741D01*
X100871606Y-119750080D01*
X100946080Y-119675606D01*
X100998741Y-119584394D01*
X101026000Y-119482661D01*
X101026000Y-119476447D01*
X101683996Y-120134444D01*
X101683997Y-120134443D01*
X101712196Y-120095630D01*
X101712204Y-120095617D01*
X101802956Y-119917508D01*
X101864727Y-119727393D01*
X101896000Y-119529950D01*
X101896000Y-119330049D01*
X101864727Y-119132606D01*
X101802956Y-118942491D01*
X101712202Y-118764378D01*
X101683996Y-118725555D01*
X101683995Y-118725555D01*
X101026000Y-119383551D01*
X101026000Y-119377339D01*
X100998741Y-119275606D01*
X100946080Y-119184394D01*
X100871606Y-119109920D01*
X100780394Y-119057259D01*
X100678661Y-119030000D01*
X100672445Y-119030000D01*
X101330443Y-118372002D01*
X101329561Y-118360798D01*
X101305418Y-118329490D01*
X101299437Y-118259876D01*
X101332042Y-118198081D01*
X101392880Y-118163722D01*
X101420967Y-118160499D01*
X101443872Y-118160499D01*
X101503483Y-118154091D01*
X101638331Y-118103796D01*
X101753546Y-118017546D01*
X101839796Y-117902331D01*
X101890091Y-117767483D01*
X101896500Y-117707873D01*
X101896500Y-117707870D01*
X101896502Y-117707838D01*
X101896504Y-117707830D01*
X101896855Y-117704572D01*
X101897625Y-117704654D01*
X101919760Y-117641953D01*
X101974946Y-117599101D01*
X102020323Y-117590500D01*
X121678996Y-117590500D01*
X121770040Y-117572389D01*
X121814328Y-117563580D01*
X121878069Y-117537177D01*
X121941807Y-117510777D01*
X121941808Y-117510776D01*
X121941811Y-117510775D01*
X122056543Y-117434114D01*
X122744114Y-116746543D01*
X122820775Y-116631811D01*
X122873580Y-116504328D01*
X122900500Y-116368994D01*
X122900500Y-116231006D01*
X122900500Y-95741518D01*
X122909144Y-95712077D01*
X122915668Y-95682091D01*
X122919422Y-95677075D01*
X122920185Y-95674479D01*
X122936819Y-95653837D01*
X122993837Y-95596819D01*
X123055160Y-95563334D01*
X123081518Y-95560500D01*
X123598256Y-95560500D01*
X123665295Y-95580185D01*
X123698575Y-95611616D01*
X123768030Y-95707215D01*
X123912786Y-95851971D01*
X124067749Y-95964556D01*
X124078390Y-95972287D01*
X124169840Y-96018883D01*
X124171080Y-96019515D01*
X124221876Y-96067490D01*
X124238671Y-96135311D01*
X124216134Y-96201446D01*
X124171080Y-96240485D01*
X124078386Y-96287715D01*
X123912786Y-96408028D01*
X123768028Y-96552786D01*
X123647715Y-96718386D01*
X123554781Y-96900776D01*
X123491522Y-97095465D01*
X123459500Y-97297648D01*
X123459500Y-97502351D01*
X123491522Y-97704534D01*
X123554781Y-97899223D01*
X123647715Y-98081613D01*
X123768028Y-98247213D01*
X123912786Y-98391971D01*
X124067749Y-98504556D01*
X124078390Y-98512287D01*
X124150424Y-98548990D01*
X124171629Y-98559795D01*
X124222425Y-98607770D01*
X124239220Y-98675591D01*
X124216682Y-98741726D01*
X124171629Y-98780765D01*
X124078650Y-98828140D01*
X123913105Y-98948417D01*
X123913104Y-98948417D01*
X123768417Y-99093104D01*
X123768417Y-99093105D01*
X123648140Y-99258650D01*
X123555244Y-99440970D01*
X123492009Y-99635586D01*
X123483391Y-99690000D01*
X124326988Y-99690000D01*
X124294075Y-99747007D01*
X124260000Y-99874174D01*
X124260000Y-100005826D01*
X124294075Y-100132993D01*
X124326988Y-100190000D01*
X123483391Y-100190000D01*
X123492009Y-100244413D01*
X123555244Y-100439029D01*
X123648140Y-100621349D01*
X123768417Y-100786894D01*
X123768417Y-100786895D01*
X123913104Y-100931582D01*
X124078652Y-101051861D01*
X124171628Y-101099234D01*
X124222425Y-101147208D01*
X124239220Y-101215029D01*
X124216683Y-101281164D01*
X124171630Y-101320203D01*
X124078388Y-101367713D01*
X123912786Y-101488028D01*
X123768028Y-101632786D01*
X123647715Y-101798386D01*
X123554781Y-101980776D01*
X123491522Y-102175465D01*
X123459500Y-102377648D01*
X123459500Y-102582351D01*
X123491522Y-102784534D01*
X123554781Y-102979223D01*
X123647715Y-103161613D01*
X123768028Y-103327213D01*
X123912786Y-103471971D01*
X124067749Y-103584556D01*
X124078390Y-103592287D01*
X124167212Y-103637544D01*
X124260776Y-103685218D01*
X124260778Y-103685218D01*
X124260781Y-103685220D01*
X124365137Y-103719127D01*
X124455465Y-103748477D01*
X124556557Y-103764488D01*
X124657648Y-103780500D01*
X124657649Y-103780500D01*
X124862351Y-103780500D01*
X124862352Y-103780500D01*
X125064534Y-103748477D01*
X125259219Y-103685220D01*
X125441610Y-103592287D01*
X125537901Y-103522328D01*
X125607213Y-103471971D01*
X125607215Y-103471968D01*
X125607219Y-103471966D01*
X125751966Y-103327219D01*
X125751968Y-103327215D01*
X125751971Y-103327213D01*
X125804732Y-103254590D01*
X125872287Y-103161610D01*
X125965220Y-102979219D01*
X126028477Y-102784534D01*
X126060500Y-102582352D01*
X126060500Y-102377648D01*
X126028477Y-102175466D01*
X125965220Y-101980781D01*
X125965218Y-101980778D01*
X125965218Y-101980776D01*
X125931503Y-101914607D01*
X125872287Y-101798390D01*
X125864556Y-101787749D01*
X125751971Y-101632786D01*
X125607213Y-101488028D01*
X125441611Y-101367713D01*
X125348369Y-101320203D01*
X125297574Y-101272229D01*
X125280779Y-101204407D01*
X125303317Y-101138273D01*
X125348371Y-101099234D01*
X125441347Y-101051861D01*
X125606894Y-100931582D01*
X125606895Y-100931582D01*
X125751582Y-100786895D01*
X125751582Y-100786894D01*
X125871859Y-100621349D01*
X125964755Y-100439029D01*
X126027990Y-100244413D01*
X126036609Y-100190000D01*
X125193012Y-100190000D01*
X125225925Y-100132993D01*
X125260000Y-100005826D01*
X125260000Y-99874174D01*
X125225925Y-99747007D01*
X125193012Y-99690000D01*
X126036609Y-99690000D01*
X126027990Y-99635586D01*
X125964755Y-99440970D01*
X125871859Y-99258650D01*
X125751582Y-99093105D01*
X125751582Y-99093104D01*
X125606895Y-98948417D01*
X125441349Y-98828140D01*
X125348370Y-98780765D01*
X125297574Y-98732790D01*
X125280779Y-98664969D01*
X125303316Y-98598835D01*
X125348370Y-98559795D01*
X125348920Y-98559515D01*
X125441610Y-98512287D01*
X125462770Y-98496913D01*
X125607213Y-98391971D01*
X125607215Y-98391968D01*
X125607219Y-98391966D01*
X125751966Y-98247219D01*
X125751968Y-98247215D01*
X125751971Y-98247213D01*
X125804732Y-98174590D01*
X125872287Y-98081610D01*
X125965220Y-97899219D01*
X126028477Y-97704534D01*
X126060500Y-97502352D01*
X126060500Y-97297648D01*
X126028477Y-97095466D01*
X125965220Y-96900781D01*
X125965218Y-96900778D01*
X125965218Y-96900776D01*
X125931503Y-96834607D01*
X125872287Y-96718390D01*
X125864556Y-96707749D01*
X125751971Y-96552786D01*
X125607213Y-96408028D01*
X125441614Y-96287715D01*
X125435006Y-96284348D01*
X125348917Y-96240483D01*
X125298123Y-96192511D01*
X125281328Y-96124690D01*
X125303865Y-96058555D01*
X125348917Y-96019516D01*
X125441610Y-95972287D01*
X125462770Y-95956913D01*
X125607213Y-95851971D01*
X125607215Y-95851968D01*
X125607219Y-95851966D01*
X125751966Y-95707219D01*
X125751968Y-95707215D01*
X125751971Y-95707213D01*
X125821425Y-95611616D01*
X125872287Y-95541610D01*
X125965220Y-95359219D01*
X126028477Y-95164534D01*
X126060500Y-94962352D01*
X126060500Y-94757648D01*
X126046144Y-94667007D01*
X126028477Y-94555465D01*
X125965218Y-94360776D01*
X125931503Y-94294607D01*
X125872287Y-94178390D01*
X125852424Y-94151051D01*
X125751971Y-94012786D01*
X125607213Y-93868028D01*
X125441614Y-93747715D01*
X125435006Y-93744348D01*
X125348917Y-93700483D01*
X125298123Y-93652511D01*
X125281328Y-93584690D01*
X125303865Y-93518555D01*
X125348917Y-93479516D01*
X125441610Y-93432287D01*
X125522195Y-93373739D01*
X125607213Y-93311971D01*
X125607215Y-93311968D01*
X125607219Y-93311966D01*
X125751966Y-93167219D01*
X125751968Y-93167215D01*
X125751971Y-93167213D01*
X125858239Y-93020945D01*
X125872287Y-93001610D01*
X125965220Y-92819219D01*
X126028477Y-92624534D01*
X126060500Y-92422352D01*
X126060500Y-92217648D01*
X126028477Y-92015466D01*
X125965220Y-91820781D01*
X125965218Y-91820778D01*
X125965218Y-91820776D01*
X125924275Y-91740423D01*
X125872287Y-91638390D01*
X125864556Y-91627749D01*
X125751971Y-91472786D01*
X125607213Y-91328028D01*
X125441614Y-91207715D01*
X125435006Y-91204348D01*
X125348917Y-91160483D01*
X125298123Y-91112511D01*
X125281328Y-91044690D01*
X125303865Y-90978555D01*
X125348917Y-90939516D01*
X125441610Y-90892287D01*
X125462770Y-90876913D01*
X125607213Y-90771971D01*
X125607215Y-90771968D01*
X125607219Y-90771966D01*
X125751966Y-90627219D01*
X125751968Y-90627215D01*
X125751971Y-90627213D01*
X125852424Y-90488949D01*
X125872287Y-90461610D01*
X125965220Y-90279219D01*
X126028477Y-90084534D01*
X126060500Y-89882352D01*
X126060500Y-89677648D01*
X126028477Y-89475466D01*
X125965220Y-89280781D01*
X125965218Y-89280778D01*
X125965218Y-89280776D01*
X125931503Y-89214607D01*
X125872287Y-89098390D01*
X125832176Y-89043181D01*
X125751971Y-88932786D01*
X125607213Y-88788028D01*
X125441614Y-88667715D01*
X125388282Y-88640541D01*
X125348917Y-88620483D01*
X125298123Y-88572511D01*
X125281328Y-88504690D01*
X125303865Y-88438555D01*
X125348917Y-88399516D01*
X125441610Y-88352287D01*
X125462770Y-88336913D01*
X125607213Y-88231971D01*
X125607215Y-88231968D01*
X125607219Y-88231966D01*
X125751966Y-88087219D01*
X125751968Y-88087215D01*
X125751971Y-88087213D01*
X125814854Y-88000660D01*
X125872287Y-87921610D01*
X125965220Y-87739219D01*
X126028477Y-87544534D01*
X126060500Y-87342352D01*
X126060500Y-87137648D01*
X126028477Y-86935466D01*
X125965220Y-86740781D01*
X125965218Y-86740778D01*
X125965218Y-86740776D01*
X125931503Y-86674607D01*
X125872287Y-86558390D01*
X125864556Y-86547749D01*
X125751971Y-86392786D01*
X125607213Y-86248028D01*
X125441614Y-86127715D01*
X125435006Y-86124348D01*
X125348917Y-86080483D01*
X125298123Y-86032511D01*
X125281328Y-85964690D01*
X125303865Y-85898555D01*
X125348917Y-85859516D01*
X125441610Y-85812287D01*
X125522842Y-85753269D01*
X125607213Y-85691971D01*
X125607215Y-85691968D01*
X125607219Y-85691966D01*
X125751966Y-85547219D01*
X125751968Y-85547215D01*
X125751971Y-85547213D01*
X125831163Y-85438213D01*
X125872287Y-85381610D01*
X125965220Y-85199219D01*
X126028477Y-85004534D01*
X126060500Y-84802352D01*
X126060500Y-84597648D01*
X126028477Y-84395466D01*
X125965220Y-84200781D01*
X125965218Y-84200778D01*
X125965218Y-84200776D01*
X125931503Y-84134607D01*
X125872287Y-84018390D01*
X125864556Y-84007749D01*
X125751971Y-83852786D01*
X125607213Y-83708028D01*
X125441614Y-83587715D01*
X125435006Y-83584348D01*
X125348917Y-83540483D01*
X125298123Y-83492511D01*
X125281328Y-83424690D01*
X125303865Y-83358555D01*
X125348917Y-83319516D01*
X125441610Y-83272287D01*
X125462770Y-83256913D01*
X125607213Y-83151971D01*
X125607215Y-83151968D01*
X125607219Y-83151966D01*
X125751966Y-83007219D01*
X125751968Y-83007215D01*
X125751971Y-83007213D01*
X125804732Y-82934590D01*
X125872287Y-82841610D01*
X125965220Y-82659219D01*
X126028477Y-82464534D01*
X126060500Y-82262352D01*
X126060500Y-82057648D01*
X126059487Y-82051251D01*
X126028477Y-81855465D01*
X125965218Y-81660776D01*
X125931503Y-81594607D01*
X125872287Y-81478390D01*
X125864556Y-81467749D01*
X125751971Y-81312786D01*
X125607213Y-81168028D01*
X125441614Y-81047715D01*
X125435006Y-81044348D01*
X125348917Y-81000483D01*
X125298123Y-80952511D01*
X125281328Y-80884690D01*
X125303865Y-80818555D01*
X125348917Y-80779516D01*
X125441610Y-80732287D01*
X125462770Y-80716913D01*
X125607213Y-80611971D01*
X125607215Y-80611968D01*
X125607219Y-80611966D01*
X125751966Y-80467219D01*
X125751968Y-80467215D01*
X125751971Y-80467213D01*
X125804732Y-80394590D01*
X125872287Y-80301610D01*
X125965220Y-80119219D01*
X126028477Y-79924534D01*
X126060500Y-79722352D01*
X126060500Y-79517648D01*
X126028477Y-79315466D01*
X125965220Y-79120781D01*
X125965218Y-79120778D01*
X125965218Y-79120776D01*
X125931503Y-79054607D01*
X125872287Y-78938390D01*
X125864556Y-78927749D01*
X125751971Y-78772786D01*
X125607213Y-78628028D01*
X125441614Y-78507715D01*
X125435006Y-78504348D01*
X125348917Y-78460483D01*
X125298123Y-78412511D01*
X125281328Y-78344690D01*
X125303865Y-78278555D01*
X125348917Y-78239516D01*
X125441610Y-78192287D01*
X125462770Y-78176913D01*
X125607213Y-78071971D01*
X125607215Y-78071968D01*
X125607219Y-78071966D01*
X125751966Y-77927219D01*
X125751968Y-77927215D01*
X125751971Y-77927213D01*
X125804732Y-77854590D01*
X125872287Y-77761610D01*
X125965220Y-77579219D01*
X126028477Y-77384534D01*
X126060500Y-77182352D01*
X126060500Y-76977648D01*
X126028477Y-76775465D01*
X125987085Y-76648074D01*
X125965220Y-76580781D01*
X125965218Y-76580778D01*
X125965218Y-76580776D01*
X125915789Y-76483767D01*
X125872287Y-76398390D01*
X125864556Y-76387749D01*
X125751971Y-76232786D01*
X125607213Y-76088028D01*
X125441614Y-75967715D01*
X125413629Y-75953456D01*
X125348917Y-75920483D01*
X125298123Y-75872511D01*
X125281328Y-75804690D01*
X125303865Y-75738555D01*
X125348917Y-75699516D01*
X125441610Y-75652287D01*
X125462770Y-75636913D01*
X125607213Y-75531971D01*
X125607215Y-75531968D01*
X125607219Y-75531966D01*
X125751966Y-75387219D01*
X125751968Y-75387215D01*
X125751971Y-75387213D01*
X125804732Y-75314590D01*
X125872287Y-75221610D01*
X125965220Y-75039219D01*
X126028477Y-74844534D01*
X126060500Y-74642352D01*
X126060500Y-74437648D01*
X126028477Y-74235466D01*
X125965220Y-74040781D01*
X125965218Y-74040778D01*
X125965218Y-74040776D01*
X125931503Y-73974607D01*
X125872287Y-73858390D01*
X125864556Y-73847749D01*
X125751971Y-73692786D01*
X125607213Y-73548028D01*
X125441614Y-73427715D01*
X125435006Y-73424348D01*
X125348917Y-73380483D01*
X125298123Y-73332511D01*
X125281328Y-73264690D01*
X125303865Y-73198555D01*
X125348917Y-73159516D01*
X125441610Y-73112287D01*
X125462770Y-73096913D01*
X125607213Y-72991971D01*
X125607215Y-72991968D01*
X125607219Y-72991966D01*
X125751966Y-72847219D01*
X125751968Y-72847215D01*
X125751971Y-72847213D01*
X125819912Y-72753699D01*
X125872287Y-72681610D01*
X125965220Y-72499219D01*
X126028477Y-72304534D01*
X126060500Y-72102352D01*
X126060500Y-71897648D01*
X126028477Y-71695466D01*
X125965220Y-71500781D01*
X125965218Y-71500778D01*
X125965218Y-71500776D01*
X125931503Y-71434607D01*
X125872287Y-71318390D01*
X125843380Y-71278602D01*
X125751971Y-71152786D01*
X125607213Y-71008028D01*
X125441614Y-70887715D01*
X125435006Y-70884348D01*
X125348917Y-70840483D01*
X125298123Y-70792511D01*
X125281328Y-70724690D01*
X125303865Y-70658555D01*
X125348917Y-70619516D01*
X125441610Y-70572287D01*
X125484668Y-70541004D01*
X125607213Y-70451971D01*
X125607215Y-70451968D01*
X125607219Y-70451966D01*
X125751966Y-70307219D01*
X125751968Y-70307215D01*
X125751971Y-70307213D01*
X125821425Y-70211616D01*
X125872287Y-70141610D01*
X125965220Y-69959219D01*
X126028477Y-69764534D01*
X126060500Y-69562352D01*
X126060500Y-69357648D01*
X126028477Y-69155466D01*
X125965220Y-68960781D01*
X125965218Y-68960778D01*
X125965218Y-68960776D01*
X125903284Y-68839225D01*
X125872287Y-68778390D01*
X125847543Y-68744332D01*
X125751971Y-68612786D01*
X125607213Y-68468028D01*
X125441614Y-68347715D01*
X125435006Y-68344348D01*
X125348917Y-68300483D01*
X125298123Y-68252511D01*
X125281328Y-68184690D01*
X125303865Y-68118555D01*
X125348917Y-68079516D01*
X125441610Y-68032287D01*
X125462770Y-68016913D01*
X125607213Y-67911971D01*
X125607215Y-67911968D01*
X125607219Y-67911966D01*
X125751966Y-67767219D01*
X125751968Y-67767215D01*
X125751971Y-67767213D01*
X125804732Y-67694590D01*
X125872287Y-67601610D01*
X125965220Y-67419219D01*
X126028477Y-67224534D01*
X126060500Y-67022352D01*
X126060500Y-66817648D01*
X126045552Y-66723269D01*
X126028477Y-66615465D01*
X125965218Y-66420776D01*
X125915409Y-66323022D01*
X125872287Y-66238390D01*
X125819596Y-66165866D01*
X125751971Y-66072786D01*
X125607213Y-65928028D01*
X125441613Y-65807715D01*
X125441612Y-65807714D01*
X125441610Y-65807713D01*
X125384653Y-65778691D01*
X125259223Y-65714781D01*
X125064534Y-65651522D01*
X124889995Y-65623878D01*
X124862352Y-65619500D01*
X124657648Y-65619500D01*
X124633329Y-65623351D01*
X124455465Y-65651522D01*
X124260776Y-65714781D01*
X124078386Y-65807715D01*
X123912786Y-65928028D01*
X123768028Y-66072786D01*
X123647715Y-66238385D01*
X123640883Y-66251795D01*
X123592909Y-66302591D01*
X123530398Y-66319500D01*
X123220097Y-66319500D01*
X123190656Y-66310855D01*
X123160670Y-66304332D01*
X123155654Y-66300577D01*
X123153058Y-66299815D01*
X123132416Y-66283181D01*
X123036819Y-66187584D01*
X123003334Y-66126261D01*
X123000500Y-66099903D01*
X123000500Y-60000097D01*
X123020185Y-59933058D01*
X123036819Y-59912416D01*
X123312416Y-59636819D01*
X123373739Y-59603334D01*
X123400097Y-59600500D01*
X151899903Y-59600500D01*
X151966942Y-59620185D01*
X151987584Y-59636819D01*
X152273181Y-59922416D01*
X152306666Y-59983739D01*
X152309500Y-60010097D01*
X152309500Y-64649853D01*
X152289815Y-64716892D01*
X152247427Y-64755245D01*
X152248265Y-64756612D01*
X152244119Y-64759152D01*
X152156829Y-64822571D01*
X152082325Y-64876703D01*
X152082323Y-64876705D01*
X152082322Y-64876705D01*
X151940919Y-65018108D01*
X151940919Y-65018109D01*
X151940917Y-65018111D01*
X151933795Y-65027914D01*
X151823367Y-65179903D01*
X151750484Y-65322944D01*
X151702510Y-65373740D01*
X151634689Y-65390535D01*
X151568554Y-65367997D01*
X151529516Y-65322944D01*
X151456632Y-65179903D01*
X151430932Y-65144530D01*
X151339083Y-65018111D01*
X151197675Y-64876703D01*
X151035887Y-64759157D01*
X151027931Y-64755103D01*
X150857700Y-64668365D01*
X150667511Y-64606570D01*
X150568750Y-64590928D01*
X150469991Y-64575286D01*
X150270009Y-64575286D01*
X150204169Y-64585714D01*
X150072488Y-64606570D01*
X149882299Y-64668365D01*
X149704112Y-64759157D01*
X149611806Y-64826221D01*
X149542325Y-64876703D01*
X149542323Y-64876705D01*
X149542322Y-64876705D01*
X149400919Y-65018108D01*
X149400919Y-65018109D01*
X149400917Y-65018111D01*
X149393795Y-65027914D01*
X149283371Y-65179898D01*
X149192579Y-65358085D01*
X149130784Y-65548274D01*
X149099500Y-65745795D01*
X149099500Y-65945776D01*
X149130784Y-66143297D01*
X149192579Y-66333486D01*
X149237056Y-66420776D01*
X149283371Y-66511673D01*
X149400917Y-66673461D01*
X149542325Y-66814869D01*
X149618388Y-66870132D01*
X149661051Y-66925458D01*
X149669500Y-66970447D01*
X149669500Y-88688481D01*
X149649815Y-88755520D01*
X149633181Y-88776162D01*
X149366162Y-89043181D01*
X149304839Y-89076666D01*
X149278481Y-89079500D01*
X141161744Y-89079500D01*
X141094705Y-89059815D01*
X141061425Y-89028384D01*
X140991969Y-88932784D01*
X140847213Y-88788028D01*
X140681614Y-88667715D01*
X140628282Y-88640541D01*
X140588917Y-88620483D01*
X140538123Y-88572511D01*
X140521328Y-88504690D01*
X140543865Y-88438555D01*
X140588917Y-88399516D01*
X140681610Y-88352287D01*
X140702770Y-88336913D01*
X140847213Y-88231971D01*
X140847215Y-88231968D01*
X140847219Y-88231966D01*
X140991966Y-88087219D01*
X140991968Y-88087215D01*
X140991971Y-88087213D01*
X141054854Y-88000660D01*
X141112287Y-87921610D01*
X141205220Y-87739219D01*
X141268477Y-87544534D01*
X141300500Y-87342352D01*
X141300500Y-87137648D01*
X141268477Y-86935466D01*
X141205220Y-86740781D01*
X141205218Y-86740778D01*
X141205218Y-86740776D01*
X141171503Y-86674607D01*
X141112287Y-86558390D01*
X141104556Y-86547749D01*
X140991971Y-86392786D01*
X140847213Y-86248028D01*
X140681614Y-86127715D01*
X140675006Y-86124348D01*
X140588917Y-86080483D01*
X140538123Y-86032511D01*
X140521328Y-85964690D01*
X140543865Y-85898555D01*
X140588917Y-85859516D01*
X140681610Y-85812287D01*
X140762842Y-85753269D01*
X140847213Y-85691971D01*
X140847215Y-85691968D01*
X140847219Y-85691966D01*
X140991966Y-85547219D01*
X140991968Y-85547215D01*
X140991971Y-85547213D01*
X141071163Y-85438213D01*
X141112287Y-85381610D01*
X141205220Y-85199219D01*
X141268477Y-85004534D01*
X141300500Y-84802352D01*
X141300500Y-84597648D01*
X141268477Y-84395466D01*
X141205220Y-84200781D01*
X141205218Y-84200778D01*
X141205218Y-84200776D01*
X141171503Y-84134607D01*
X141112287Y-84018390D01*
X141104556Y-84007749D01*
X140991971Y-83852786D01*
X140847213Y-83708028D01*
X140681614Y-83587715D01*
X140675006Y-83584348D01*
X140588917Y-83540483D01*
X140538123Y-83492511D01*
X140521328Y-83424690D01*
X140543865Y-83358555D01*
X140588917Y-83319516D01*
X140681610Y-83272287D01*
X140702770Y-83256913D01*
X140847213Y-83151971D01*
X140847215Y-83151968D01*
X140847219Y-83151966D01*
X140991966Y-83007219D01*
X140991968Y-83007215D01*
X140991971Y-83007213D01*
X141044732Y-82934590D01*
X141112287Y-82841610D01*
X141205220Y-82659219D01*
X141268477Y-82464534D01*
X141300500Y-82262352D01*
X141300500Y-82057648D01*
X141299487Y-82051251D01*
X141268477Y-81855465D01*
X141205218Y-81660776D01*
X141171503Y-81594607D01*
X141112287Y-81478390D01*
X141104556Y-81467749D01*
X140991971Y-81312786D01*
X140847213Y-81168028D01*
X140681614Y-81047715D01*
X140675006Y-81044348D01*
X140588917Y-81000483D01*
X140538123Y-80952511D01*
X140521328Y-80884690D01*
X140543865Y-80818555D01*
X140588917Y-80779516D01*
X140681610Y-80732287D01*
X140702770Y-80716913D01*
X140847213Y-80611971D01*
X140847215Y-80611968D01*
X140847219Y-80611966D01*
X140991966Y-80467219D01*
X140991968Y-80467215D01*
X140991971Y-80467213D01*
X141044732Y-80394590D01*
X141112287Y-80301610D01*
X141205220Y-80119219D01*
X141268477Y-79924534D01*
X141300500Y-79722352D01*
X141300500Y-79517648D01*
X141268477Y-79315466D01*
X141205220Y-79120781D01*
X141205218Y-79120778D01*
X141205218Y-79120776D01*
X141171503Y-79054607D01*
X141112287Y-78938390D01*
X141104556Y-78927749D01*
X140991971Y-78772786D01*
X140847213Y-78628028D01*
X140681614Y-78507715D01*
X140675006Y-78504348D01*
X140588917Y-78460483D01*
X140538123Y-78412511D01*
X140521328Y-78344690D01*
X140543865Y-78278555D01*
X140588917Y-78239516D01*
X140681610Y-78192287D01*
X140702770Y-78176913D01*
X140847213Y-78071971D01*
X140847215Y-78071968D01*
X140847219Y-78071966D01*
X140991966Y-77927219D01*
X140991968Y-77927215D01*
X140991971Y-77927213D01*
X141044732Y-77854590D01*
X141112287Y-77761610D01*
X141205220Y-77579219D01*
X141268477Y-77384534D01*
X141300500Y-77182352D01*
X141300500Y-76977648D01*
X141268477Y-76775465D01*
X141227085Y-76648074D01*
X141205220Y-76580781D01*
X141205218Y-76580778D01*
X141205218Y-76580776D01*
X141155789Y-76483767D01*
X141112287Y-76398390D01*
X141104556Y-76387749D01*
X140991971Y-76232786D01*
X140847213Y-76088028D01*
X140681614Y-75967715D01*
X140653629Y-75953456D01*
X140588917Y-75920483D01*
X140538123Y-75872511D01*
X140521328Y-75804690D01*
X140543865Y-75738555D01*
X140588917Y-75699516D01*
X140681610Y-75652287D01*
X140702770Y-75636913D01*
X140847213Y-75531971D01*
X140847215Y-75531968D01*
X140847219Y-75531966D01*
X140991966Y-75387219D01*
X140991968Y-75387215D01*
X140991971Y-75387213D01*
X141044732Y-75314590D01*
X141112287Y-75221610D01*
X141205220Y-75039219D01*
X141268477Y-74844534D01*
X141300500Y-74642352D01*
X141300500Y-74437648D01*
X141268477Y-74235466D01*
X141205220Y-74040781D01*
X141205218Y-74040778D01*
X141205218Y-74040776D01*
X141171503Y-73974607D01*
X141112287Y-73858390D01*
X141104556Y-73847749D01*
X140991971Y-73692786D01*
X140847213Y-73548028D01*
X140681614Y-73427715D01*
X140675006Y-73424348D01*
X140588917Y-73380483D01*
X140538123Y-73332511D01*
X140521328Y-73264690D01*
X140543865Y-73198555D01*
X140588917Y-73159516D01*
X140681610Y-73112287D01*
X140702770Y-73096913D01*
X140847213Y-72991971D01*
X140847215Y-72991968D01*
X140847219Y-72991966D01*
X140991966Y-72847219D01*
X140991968Y-72847215D01*
X140991971Y-72847213D01*
X141059912Y-72753699D01*
X141112287Y-72681610D01*
X141205220Y-72499219D01*
X141268477Y-72304534D01*
X141300500Y-72102352D01*
X141300500Y-71897648D01*
X141268477Y-71695466D01*
X141205220Y-71500781D01*
X141205218Y-71500778D01*
X141205218Y-71500776D01*
X141171503Y-71434607D01*
X141112287Y-71318390D01*
X141083380Y-71278602D01*
X140991971Y-71152786D01*
X140847213Y-71008028D01*
X140681614Y-70887715D01*
X140675006Y-70884348D01*
X140588917Y-70840483D01*
X140538123Y-70792511D01*
X140521328Y-70724690D01*
X140543865Y-70658555D01*
X140588917Y-70619516D01*
X140681610Y-70572287D01*
X140724668Y-70541004D01*
X140847213Y-70451971D01*
X140847215Y-70451968D01*
X140847219Y-70451966D01*
X140991966Y-70307219D01*
X140991968Y-70307215D01*
X140991971Y-70307213D01*
X141061425Y-70211616D01*
X141112287Y-70141610D01*
X141205220Y-69959219D01*
X141268477Y-69764534D01*
X141300500Y-69562352D01*
X141300500Y-69357648D01*
X141268477Y-69155466D01*
X141205220Y-68960781D01*
X141205218Y-68960778D01*
X141205218Y-68960776D01*
X141143284Y-68839225D01*
X141112287Y-68778390D01*
X141087543Y-68744332D01*
X140991971Y-68612786D01*
X140847213Y-68468028D01*
X140681614Y-68347715D01*
X140675006Y-68344348D01*
X140588917Y-68300483D01*
X140538123Y-68252511D01*
X140521328Y-68184690D01*
X140543865Y-68118555D01*
X140588917Y-68079516D01*
X140681610Y-68032287D01*
X140702770Y-68016913D01*
X140847213Y-67911971D01*
X140847215Y-67911968D01*
X140847219Y-67911966D01*
X140991966Y-67767219D01*
X140991968Y-67767215D01*
X140991971Y-67767213D01*
X141044732Y-67694590D01*
X141112287Y-67601610D01*
X141205220Y-67419219D01*
X141268477Y-67224534D01*
X141300500Y-67022352D01*
X141300500Y-66817648D01*
X141285552Y-66723269D01*
X141268477Y-66615465D01*
X141205218Y-66420776D01*
X141155409Y-66323022D01*
X141112287Y-66238390D01*
X141059596Y-66165866D01*
X140991971Y-66072786D01*
X140847213Y-65928028D01*
X140681613Y-65807715D01*
X140681612Y-65807714D01*
X140681610Y-65807713D01*
X140624653Y-65778691D01*
X140499223Y-65714781D01*
X140304534Y-65651522D01*
X140129995Y-65623878D01*
X140102352Y-65619500D01*
X139897648Y-65619500D01*
X139873329Y-65623351D01*
X139695465Y-65651522D01*
X139500776Y-65714781D01*
X139318386Y-65807715D01*
X139152786Y-65928028D01*
X139008028Y-66072786D01*
X138887715Y-66238386D01*
X138794781Y-66420776D01*
X138731522Y-66615465D01*
X138699500Y-66817648D01*
X138699500Y-67022351D01*
X138731522Y-67224534D01*
X138794781Y-67419223D01*
X138887715Y-67601613D01*
X139008028Y-67767213D01*
X139152786Y-67911971D01*
X139307749Y-68024556D01*
X139318390Y-68032287D01*
X139409840Y-68078883D01*
X139411080Y-68079515D01*
X139461876Y-68127490D01*
X139478671Y-68195311D01*
X139456134Y-68261446D01*
X139411080Y-68300485D01*
X139318386Y-68347715D01*
X139152786Y-68468028D01*
X139008028Y-68612786D01*
X138887715Y-68778386D01*
X138794781Y-68960776D01*
X138731522Y-69155465D01*
X138699500Y-69357648D01*
X138699500Y-69562351D01*
X138731522Y-69764534D01*
X138794781Y-69959223D01*
X138887715Y-70141613D01*
X139008028Y-70307213D01*
X139152786Y-70451971D01*
X139275332Y-70541004D01*
X139318390Y-70572287D01*
X139409840Y-70618883D01*
X139411080Y-70619515D01*
X139461876Y-70667490D01*
X139478671Y-70735311D01*
X139456134Y-70801446D01*
X139411080Y-70840485D01*
X139318386Y-70887715D01*
X139152786Y-71008028D01*
X139008028Y-71152786D01*
X138887715Y-71318386D01*
X138794781Y-71500776D01*
X138731522Y-71695465D01*
X138699500Y-71897648D01*
X138699500Y-72102351D01*
X138731522Y-72304534D01*
X138794781Y-72499223D01*
X138817655Y-72544114D01*
X138883620Y-72673578D01*
X138887715Y-72681613D01*
X139008028Y-72847213D01*
X139152786Y-72991971D01*
X139307749Y-73104556D01*
X139318390Y-73112287D01*
X139409840Y-73158883D01*
X139411080Y-73159515D01*
X139461876Y-73207490D01*
X139478671Y-73275311D01*
X139456134Y-73341446D01*
X139411080Y-73380485D01*
X139318386Y-73427715D01*
X139152786Y-73548028D01*
X139008028Y-73692786D01*
X138887715Y-73858386D01*
X138794781Y-74040776D01*
X138731522Y-74235465D01*
X138699500Y-74437648D01*
X138699500Y-74642351D01*
X138731522Y-74844534D01*
X138794781Y-75039223D01*
X138887715Y-75221613D01*
X139008028Y-75387213D01*
X139152786Y-75531971D01*
X139307749Y-75644556D01*
X139318390Y-75652287D01*
X139409840Y-75698883D01*
X139411080Y-75699515D01*
X139461876Y-75747490D01*
X139478671Y-75815311D01*
X139456134Y-75881446D01*
X139411080Y-75920485D01*
X139318386Y-75967715D01*
X139152786Y-76088028D01*
X139008028Y-76232786D01*
X138887715Y-76398386D01*
X138794781Y-76580776D01*
X138731522Y-76775465D01*
X138699500Y-76977648D01*
X138699500Y-77182351D01*
X138731522Y-77384534D01*
X138794781Y-77579223D01*
X138887715Y-77761613D01*
X139008028Y-77927213D01*
X139152786Y-78071971D01*
X139307749Y-78184556D01*
X139318390Y-78192287D01*
X139409840Y-78238883D01*
X139411080Y-78239515D01*
X139461876Y-78287490D01*
X139478671Y-78355311D01*
X139456134Y-78421446D01*
X139411080Y-78460485D01*
X139318386Y-78507715D01*
X139152786Y-78628028D01*
X139008028Y-78772786D01*
X138887715Y-78938386D01*
X138794781Y-79120776D01*
X138731522Y-79315465D01*
X138699500Y-79517648D01*
X138699500Y-79722351D01*
X138731522Y-79924534D01*
X138794781Y-80119223D01*
X138887715Y-80301613D01*
X139008028Y-80467213D01*
X139152786Y-80611971D01*
X139307749Y-80724556D01*
X139318390Y-80732287D01*
X139409840Y-80778883D01*
X139411080Y-80779515D01*
X139461876Y-80827490D01*
X139478671Y-80895311D01*
X139456134Y-80961446D01*
X139411080Y-81000485D01*
X139318386Y-81047715D01*
X139152786Y-81168028D01*
X139008028Y-81312786D01*
X138887715Y-81478386D01*
X138794781Y-81660776D01*
X138731522Y-81855465D01*
X138699500Y-82057648D01*
X138699500Y-82262351D01*
X138731522Y-82464534D01*
X138794781Y-82659223D01*
X138887715Y-82841613D01*
X139008028Y-83007213D01*
X139152786Y-83151971D01*
X139307749Y-83264556D01*
X139318390Y-83272287D01*
X139409840Y-83318883D01*
X139411080Y-83319515D01*
X139461876Y-83367490D01*
X139478671Y-83435311D01*
X139456134Y-83501446D01*
X139411080Y-83540485D01*
X139318386Y-83587715D01*
X139152786Y-83708028D01*
X139008028Y-83852786D01*
X138887715Y-84018386D01*
X138794781Y-84200776D01*
X138731522Y-84395465D01*
X138699500Y-84597648D01*
X138699500Y-84802351D01*
X138731522Y-85004534D01*
X138794781Y-85199223D01*
X138846385Y-85300500D01*
X138887712Y-85381609D01*
X138887715Y-85381613D01*
X139008028Y-85547213D01*
X139152786Y-85691971D01*
X139245109Y-85759046D01*
X139318390Y-85812287D01*
X139409840Y-85858883D01*
X139411080Y-85859515D01*
X139461876Y-85907490D01*
X139478671Y-85975311D01*
X139456134Y-86041446D01*
X139411080Y-86080485D01*
X139318386Y-86127715D01*
X139152786Y-86248028D01*
X139008028Y-86392786D01*
X138887715Y-86558386D01*
X138794781Y-86740776D01*
X138731522Y-86935465D01*
X138699500Y-87137648D01*
X138699500Y-87342351D01*
X138731522Y-87544534D01*
X138794781Y-87739223D01*
X138887715Y-87921613D01*
X139008028Y-88087213D01*
X139152786Y-88231971D01*
X139307749Y-88344556D01*
X139318390Y-88352287D01*
X139409840Y-88398883D01*
X139411080Y-88399515D01*
X139461876Y-88447490D01*
X139478671Y-88515311D01*
X139456134Y-88581446D01*
X139411080Y-88620485D01*
X139318386Y-88667715D01*
X139152786Y-88788028D01*
X139008028Y-88932786D01*
X138887715Y-89098386D01*
X138794781Y-89280776D01*
X138731522Y-89475465D01*
X138699500Y-89677648D01*
X138699500Y-89882351D01*
X138731522Y-90084534D01*
X138794781Y-90279223D01*
X138817655Y-90324114D01*
X138883620Y-90453578D01*
X138887715Y-90461613D01*
X139008028Y-90627213D01*
X139152786Y-90771971D01*
X139307749Y-90884556D01*
X139318390Y-90892287D01*
X139409840Y-90938883D01*
X139411080Y-90939515D01*
X139461876Y-90987490D01*
X139478671Y-91055311D01*
X139456134Y-91121446D01*
X139411080Y-91160485D01*
X139318386Y-91207715D01*
X139152786Y-91328028D01*
X139008028Y-91472786D01*
X138887715Y-91638386D01*
X138794781Y-91820776D01*
X138731522Y-92015465D01*
X138699500Y-92217648D01*
X138699500Y-92422351D01*
X138731522Y-92624534D01*
X138794781Y-92819223D01*
X138887715Y-93001613D01*
X139008028Y-93167213D01*
X139152786Y-93311971D01*
X139307749Y-93424556D01*
X139318390Y-93432287D01*
X139390424Y-93468990D01*
X139411629Y-93479795D01*
X139462425Y-93527770D01*
X139479220Y-93595591D01*
X139456682Y-93661726D01*
X139411629Y-93700765D01*
X139318650Y-93748140D01*
X139153105Y-93868417D01*
X139153104Y-93868417D01*
X139008417Y-94013104D01*
X139008417Y-94013105D01*
X138888140Y-94178650D01*
X138795244Y-94360970D01*
X138732009Y-94555586D01*
X138723391Y-94610000D01*
X139566988Y-94610000D01*
X139534075Y-94667007D01*
X139500000Y-94794174D01*
X139500000Y-94925826D01*
X139534075Y-95052993D01*
X139566988Y-95110000D01*
X138723391Y-95110000D01*
X138732009Y-95164413D01*
X138795244Y-95359029D01*
X138888140Y-95541349D01*
X139008417Y-95706894D01*
X139008417Y-95706895D01*
X139153104Y-95851582D01*
X139318652Y-95971861D01*
X139411628Y-96019234D01*
X139462425Y-96067208D01*
X139479220Y-96135029D01*
X139456683Y-96201164D01*
X139411630Y-96240203D01*
X139318388Y-96287713D01*
X139152786Y-96408028D01*
X139008028Y-96552786D01*
X138887715Y-96718386D01*
X138794781Y-96900776D01*
X138731522Y-97095465D01*
X138699500Y-97297648D01*
X138699500Y-97502351D01*
X138731522Y-97704534D01*
X138794781Y-97899223D01*
X138887715Y-98081613D01*
X139008028Y-98247213D01*
X139152786Y-98391971D01*
X139307749Y-98504556D01*
X139318390Y-98512287D01*
X139409840Y-98558883D01*
X139411080Y-98559515D01*
X139461876Y-98607490D01*
X139478671Y-98675311D01*
X139456134Y-98741446D01*
X139411080Y-98780485D01*
X139318386Y-98827715D01*
X139152786Y-98948028D01*
X139008028Y-99092786D01*
X138887715Y-99258386D01*
X138794781Y-99440776D01*
X138731522Y-99635465D01*
X138699500Y-99837648D01*
X138699500Y-100042351D01*
X138731522Y-100244534D01*
X138794781Y-100439223D01*
X138858691Y-100564653D01*
X138881761Y-100609929D01*
X138887715Y-100621613D01*
X139008028Y-100787213D01*
X139152784Y-100931969D01*
X139189068Y-100958330D01*
X139231735Y-101013659D01*
X139237715Y-101083273D01*
X139205109Y-101145068D01*
X139144271Y-101179426D01*
X139129440Y-101181938D01*
X139092519Y-101185907D01*
X138957671Y-101236202D01*
X138957664Y-101236206D01*
X138842455Y-101322452D01*
X138842452Y-101322455D01*
X138756206Y-101437664D01*
X138756202Y-101437671D01*
X138705908Y-101572517D01*
X138699501Y-101632116D01*
X138699501Y-101632123D01*
X138699500Y-101632135D01*
X138699500Y-103327870D01*
X138699501Y-103327876D01*
X138705908Y-103387483D01*
X138756202Y-103522328D01*
X138756206Y-103522335D01*
X138842452Y-103637544D01*
X138842455Y-103637547D01*
X138957664Y-103723793D01*
X138957671Y-103723797D01*
X139092517Y-103774091D01*
X139092516Y-103774091D01*
X139099444Y-103774835D01*
X139152127Y-103780500D01*
X140847872Y-103780499D01*
X140907483Y-103774091D01*
X141042331Y-103723796D01*
X141157546Y-103637546D01*
X141243796Y-103522331D01*
X141294091Y-103387483D01*
X141300500Y-103327873D01*
X141300499Y-101632128D01*
X141294091Y-101572517D01*
X141243796Y-101437669D01*
X141243795Y-101437668D01*
X141243793Y-101437664D01*
X141157547Y-101322455D01*
X141157544Y-101322452D01*
X141042335Y-101236206D01*
X141042328Y-101236202D01*
X140907482Y-101185908D01*
X140907483Y-101185908D01*
X140870560Y-101181939D01*
X140806009Y-101155201D01*
X140766160Y-101097809D01*
X140763667Y-101027984D01*
X140799319Y-100967895D01*
X140810930Y-100958331D01*
X140847219Y-100931966D01*
X140991966Y-100787219D01*
X140991968Y-100787215D01*
X140991971Y-100787213D01*
X141074792Y-100673218D01*
X141112287Y-100621610D01*
X141205220Y-100439219D01*
X141268477Y-100244534D01*
X141300500Y-100042352D01*
X141300500Y-99837648D01*
X141286144Y-99747007D01*
X141268477Y-99635465D01*
X141216038Y-99474075D01*
X141205220Y-99440781D01*
X141205218Y-99440778D01*
X141205218Y-99440776D01*
X141112419Y-99258650D01*
X141112287Y-99258390D01*
X141086183Y-99222460D01*
X140991971Y-99092786D01*
X140847213Y-98948028D01*
X140681614Y-98827715D01*
X140656273Y-98814803D01*
X140588917Y-98780483D01*
X140538123Y-98732511D01*
X140521328Y-98664690D01*
X140543865Y-98598555D01*
X140588917Y-98559516D01*
X140681610Y-98512287D01*
X140702770Y-98496913D01*
X140847213Y-98391971D01*
X140847215Y-98391968D01*
X140847219Y-98391966D01*
X140991966Y-98247219D01*
X140991968Y-98247215D01*
X140991971Y-98247213D01*
X141044732Y-98174590D01*
X141112287Y-98081610D01*
X141205220Y-97899219D01*
X141268477Y-97704534D01*
X141300500Y-97502352D01*
X141300500Y-97297648D01*
X141268477Y-97095466D01*
X141205220Y-96900781D01*
X141205218Y-96900778D01*
X141205218Y-96900776D01*
X141171503Y-96834607D01*
X141112287Y-96718390D01*
X141104556Y-96707749D01*
X140991971Y-96552786D01*
X140847213Y-96408028D01*
X140681611Y-96287713D01*
X140588369Y-96240203D01*
X140537574Y-96192229D01*
X140520779Y-96124407D01*
X140543317Y-96058273D01*
X140588371Y-96019234D01*
X140681347Y-95971861D01*
X140846894Y-95851582D01*
X140846895Y-95851582D01*
X140991582Y-95706895D01*
X140991582Y-95706894D01*
X141111859Y-95541349D01*
X141204755Y-95359029D01*
X141267990Y-95164413D01*
X141276609Y-95110000D01*
X140433012Y-95110000D01*
X140465925Y-95052993D01*
X140500000Y-94925826D01*
X140500000Y-94794174D01*
X140465925Y-94667007D01*
X140433012Y-94610000D01*
X141276609Y-94610000D01*
X141267990Y-94555586D01*
X141204755Y-94360970D01*
X141111859Y-94178650D01*
X140991582Y-94013105D01*
X140991582Y-94013104D01*
X140846895Y-93868417D01*
X140681349Y-93748140D01*
X140588370Y-93700765D01*
X140537574Y-93652790D01*
X140520779Y-93584969D01*
X140543316Y-93518835D01*
X140588370Y-93479795D01*
X140588920Y-93479515D01*
X140681610Y-93432287D01*
X140762195Y-93373739D01*
X140847213Y-93311971D01*
X140847215Y-93311968D01*
X140847219Y-93311966D01*
X140991966Y-93167219D01*
X140991968Y-93167215D01*
X140991971Y-93167213D01*
X141112284Y-93001614D01*
X141112285Y-93001613D01*
X141112287Y-93001610D01*
X141119117Y-92988204D01*
X141167091Y-92937409D01*
X141229602Y-92920500D01*
X142019903Y-92920500D01*
X142086942Y-92940185D01*
X142107584Y-92956819D01*
X142463181Y-93312416D01*
X142496666Y-93373739D01*
X142499500Y-93400097D01*
X142499500Y-122499903D01*
X142479815Y-122566942D01*
X142463181Y-122587584D01*
X142227584Y-122823181D01*
X142166261Y-122856666D01*
X142139903Y-122859500D01*
X138595933Y-122859500D01*
X138528894Y-122839815D01*
X138490540Y-122797427D01*
X138489174Y-122798265D01*
X138486633Y-122794119D01*
X138486628Y-122794112D01*
X138369083Y-122632325D01*
X138227675Y-122490917D01*
X138122931Y-122414816D01*
X138080267Y-122359487D01*
X138074288Y-122289873D01*
X138106894Y-122228078D01*
X138167733Y-122193721D01*
X138195818Y-122190499D01*
X138217871Y-122190499D01*
X138217872Y-122190499D01*
X138277483Y-122184091D01*
X138412331Y-122133796D01*
X138527546Y-122047546D01*
X138613796Y-121932331D01*
X138664091Y-121797483D01*
X138670500Y-121737873D01*
X138670499Y-120102128D01*
X138664091Y-120042517D01*
X138613796Y-119907669D01*
X138613795Y-119907668D01*
X138613793Y-119907664D01*
X138527547Y-119792455D01*
X138527544Y-119792452D01*
X138412335Y-119706206D01*
X138412328Y-119706202D01*
X138277482Y-119655908D01*
X138277483Y-119655908D01*
X138217883Y-119649501D01*
X138217881Y-119649500D01*
X138217873Y-119649500D01*
X138217864Y-119649500D01*
X136582129Y-119649500D01*
X136582123Y-119649501D01*
X136522516Y-119655908D01*
X136387671Y-119706202D01*
X136387664Y-119706206D01*
X136272455Y-119792452D01*
X136272452Y-119792455D01*
X136186206Y-119907664D01*
X136186202Y-119907671D01*
X136135908Y-120042517D01*
X136129501Y-120102116D01*
X136129501Y-120102123D01*
X136129500Y-120102135D01*
X136129500Y-121737870D01*
X136129501Y-121737876D01*
X136135908Y-121797483D01*
X136186202Y-121932328D01*
X136186206Y-121932335D01*
X136272452Y-122047544D01*
X136272455Y-122047547D01*
X136387664Y-122133793D01*
X136387671Y-122133797D01*
X136432618Y-122150561D01*
X136522517Y-122184091D01*
X136582127Y-122190500D01*
X136604178Y-122190499D01*
X136671215Y-122210181D01*
X136716972Y-122262983D01*
X136726919Y-122332141D01*
X136697896Y-122395698D01*
X136677067Y-122414816D01*
X136572325Y-122490916D01*
X136430919Y-122632322D01*
X136430919Y-122632323D01*
X136430917Y-122632325D01*
X136380435Y-122701806D01*
X136313371Y-122794112D01*
X136222579Y-122972299D01*
X136160784Y-123162488D01*
X136129500Y-123360009D01*
X136129500Y-123559990D01*
X136160784Y-123757511D01*
X136222579Y-123947700D01*
X136259202Y-124019576D01*
X136313371Y-124125887D01*
X136430917Y-124287675D01*
X136572325Y-124429083D01*
X136734113Y-124546629D01*
X136877709Y-124619795D01*
X136928505Y-124667770D01*
X136945300Y-124735591D01*
X136922763Y-124801726D01*
X136877710Y-124840764D01*
X136734375Y-124913798D01*
X136695555Y-124942001D01*
X136695555Y-124942002D01*
X137353553Y-125600000D01*
X137347339Y-125600000D01*
X137245606Y-125627259D01*
X137154394Y-125679920D01*
X137079920Y-125754394D01*
X137027259Y-125845606D01*
X137000000Y-125947339D01*
X137000000Y-125953553D01*
X136342002Y-125295555D01*
X136342001Y-125295555D01*
X136313800Y-125334372D01*
X136223043Y-125512491D01*
X136161272Y-125702606D01*
X136130000Y-125900049D01*
X136130000Y-126099950D01*
X136161272Y-126297393D01*
X136223043Y-126487508D01*
X136313798Y-126665623D01*
X136313799Y-126665625D01*
X136342001Y-126704443D01*
X136342002Y-126704443D01*
X137000000Y-126046445D01*
X137000000Y-126052661D01*
X137027259Y-126154394D01*
X137079920Y-126245606D01*
X137154394Y-126320080D01*
X137245606Y-126372741D01*
X137347339Y-126400000D01*
X137353553Y-126400000D01*
X136695555Y-127057995D01*
X136695555Y-127057996D01*
X136734378Y-127086202D01*
X136912491Y-127176956D01*
X137102606Y-127238727D01*
X137300050Y-127270000D01*
X137499950Y-127270000D01*
X137697393Y-127238727D01*
X137887508Y-127176956D01*
X138065617Y-127086204D01*
X138065630Y-127086196D01*
X138104443Y-127057997D01*
X138104444Y-127057996D01*
X137446447Y-126400000D01*
X137452661Y-126400000D01*
X137554394Y-126372741D01*
X137645606Y-126320080D01*
X137720080Y-126245606D01*
X137772741Y-126154394D01*
X137800000Y-126052661D01*
X137800000Y-126046447D01*
X138457996Y-126704444D01*
X138457997Y-126704443D01*
X138486196Y-126665630D01*
X138486204Y-126665617D01*
X138576956Y-126487508D01*
X138638727Y-126297393D01*
X138670000Y-126099950D01*
X138670000Y-125900049D01*
X138638727Y-125702606D01*
X138576956Y-125512491D01*
X138486202Y-125334378D01*
X138457996Y-125295555D01*
X138457995Y-125295555D01*
X137800000Y-125953551D01*
X137800000Y-125947339D01*
X137772741Y-125845606D01*
X137720080Y-125754394D01*
X137645606Y-125679920D01*
X137554394Y-125627259D01*
X137452661Y-125600000D01*
X137446445Y-125600000D01*
X138104443Y-124942002D01*
X138104443Y-124942001D01*
X138065625Y-124913799D01*
X138065618Y-124913795D01*
X137922289Y-124840764D01*
X137871494Y-124792790D01*
X137854699Y-124724969D01*
X137877237Y-124658834D01*
X137922287Y-124619797D01*
X138065887Y-124546629D01*
X138227675Y-124429083D01*
X138369083Y-124287675D01*
X138486629Y-124125887D01*
X138486633Y-124125880D01*
X138489174Y-124121735D01*
X138490682Y-124122659D01*
X138533432Y-124077404D01*
X138595933Y-124060500D01*
X142353331Y-124060500D01*
X142353347Y-124060501D01*
X142360943Y-124060501D01*
X142519054Y-124060501D01*
X142519057Y-124060501D01*
X142671785Y-124019577D01*
X142721904Y-123990639D01*
X142808716Y-123940520D01*
X142920520Y-123828716D01*
X142920520Y-123828714D01*
X142930728Y-123818507D01*
X142930730Y-123818504D01*
X143458506Y-123290728D01*
X143458511Y-123290724D01*
X143468714Y-123280520D01*
X143468716Y-123280520D01*
X143580520Y-123168716D01*
X143645233Y-123056629D01*
X143659577Y-123031785D01*
X143700501Y-122879057D01*
X143700501Y-122720943D01*
X143700501Y-122713348D01*
X143700500Y-122713330D01*
X143700500Y-93189059D01*
X143700501Y-93189046D01*
X143700501Y-93020945D01*
X143700501Y-93020943D01*
X143659577Y-92868215D01*
X143616679Y-92793914D01*
X143580520Y-92731284D01*
X143468716Y-92619480D01*
X143468715Y-92619479D01*
X143464385Y-92615149D01*
X143464374Y-92615139D01*
X142668718Y-91819483D01*
X142668716Y-91819481D01*
X142531785Y-91740423D01*
X142379057Y-91699499D01*
X142220943Y-91699499D01*
X142162066Y-91715275D01*
X142129973Y-91719500D01*
X141229602Y-91719500D01*
X141162563Y-91699815D01*
X141119117Y-91651795D01*
X141112284Y-91638385D01*
X140991971Y-91472786D01*
X140847213Y-91328028D01*
X140681614Y-91207715D01*
X140675006Y-91204348D01*
X140588917Y-91160483D01*
X140538123Y-91112511D01*
X140521328Y-91044690D01*
X140543865Y-90978555D01*
X140588917Y-90939516D01*
X140681610Y-90892287D01*
X140702770Y-90876913D01*
X140847213Y-90771971D01*
X140847215Y-90771968D01*
X140847219Y-90771966D01*
X140991966Y-90627219D01*
X141061425Y-90531615D01*
X141116755Y-90488949D01*
X141161744Y-90480500D01*
X149688996Y-90480500D01*
X149783959Y-90461610D01*
X149824328Y-90453580D01*
X149888069Y-90427177D01*
X149951807Y-90400777D01*
X149951808Y-90400776D01*
X149951811Y-90400775D01*
X150066543Y-90324114D01*
X150914114Y-89476543D01*
X150990775Y-89361811D01*
X151043580Y-89234329D01*
X151058519Y-89159225D01*
X151070500Y-89098993D01*
X151070500Y-82253434D01*
X177199500Y-82253434D01*
X177199500Y-82458137D01*
X177231522Y-82660320D01*
X177294781Y-82855009D01*
X177387715Y-83037399D01*
X177508028Y-83202999D01*
X177652786Y-83347757D01*
X177755463Y-83422355D01*
X177798129Y-83477684D01*
X177804108Y-83547298D01*
X177771503Y-83609093D01*
X177710664Y-83643450D01*
X177695833Y-83645963D01*
X177642516Y-83651695D01*
X177507671Y-83701988D01*
X177507664Y-83701992D01*
X177392455Y-83788238D01*
X177392452Y-83788241D01*
X177306206Y-83903450D01*
X177306202Y-83903457D01*
X177255908Y-84038303D01*
X177251147Y-84082591D01*
X177249501Y-84097909D01*
X177249500Y-84097921D01*
X177249500Y-85693656D01*
X177249501Y-85693662D01*
X177255908Y-85753269D01*
X177306202Y-85888114D01*
X177306206Y-85888121D01*
X177392452Y-86003330D01*
X177392455Y-86003333D01*
X177507664Y-86089579D01*
X177507671Y-86089583D01*
X177552618Y-86106347D01*
X177642517Y-86139877D01*
X177696576Y-86145689D01*
X177761122Y-86172425D01*
X177800971Y-86229816D01*
X177803466Y-86299642D01*
X177774725Y-86348082D01*
X177774077Y-86356310D01*
X178453554Y-87035786D01*
X178447339Y-87035786D01*
X178345606Y-87063045D01*
X178254394Y-87115706D01*
X178179920Y-87190180D01*
X178127259Y-87281392D01*
X178100000Y-87383125D01*
X178100000Y-87389339D01*
X177420524Y-86709863D01*
X177420523Y-86709863D01*
X177388143Y-86754430D01*
X177295244Y-86936754D01*
X177232009Y-87131368D01*
X177200000Y-87333468D01*
X177200000Y-87538103D01*
X177232009Y-87740203D01*
X177295244Y-87934817D01*
X177388141Y-88117136D01*
X177388147Y-88117145D01*
X177420523Y-88161707D01*
X177420524Y-88161708D01*
X178100000Y-87482232D01*
X178100000Y-87488447D01*
X178127259Y-87590180D01*
X178179920Y-87681392D01*
X178254394Y-87755866D01*
X178345606Y-87808527D01*
X178447339Y-87835786D01*
X178453553Y-87835786D01*
X177774076Y-88515260D01*
X177818650Y-88547645D01*
X178000968Y-88640541D01*
X178195582Y-88703776D01*
X178397683Y-88735786D01*
X178602317Y-88735786D01*
X178804417Y-88703776D01*
X178999031Y-88640541D01*
X179181349Y-88547645D01*
X179225921Y-88515260D01*
X178546447Y-87835786D01*
X178552661Y-87835786D01*
X178654394Y-87808527D01*
X178745606Y-87755866D01*
X178820080Y-87681392D01*
X178872741Y-87590180D01*
X178900000Y-87488447D01*
X178900000Y-87482234D01*
X179579474Y-88161708D01*
X179579474Y-88161707D01*
X179611859Y-88117135D01*
X179704755Y-87934817D01*
X179767990Y-87740203D01*
X179800000Y-87538103D01*
X179800000Y-87333468D01*
X179767990Y-87131368D01*
X179704755Y-86936754D01*
X179611859Y-86754436D01*
X179579474Y-86709863D01*
X179579474Y-86709862D01*
X178900000Y-87389337D01*
X178900000Y-87383125D01*
X178872741Y-87281392D01*
X178820080Y-87190180D01*
X178745606Y-87115706D01*
X178654394Y-87063045D01*
X178552661Y-87035786D01*
X178546446Y-87035786D01*
X179225922Y-86356310D01*
X179225028Y-86344957D01*
X179201130Y-86313965D01*
X179195151Y-86244352D01*
X179227757Y-86182557D01*
X179288596Y-86148199D01*
X179303418Y-86145688D01*
X179357483Y-86139877D01*
X179492331Y-86089582D01*
X179607546Y-86003332D01*
X179693796Y-85888117D01*
X179744091Y-85753269D01*
X179750500Y-85693659D01*
X179750499Y-84097914D01*
X179744091Y-84038303D01*
X179736662Y-84018386D01*
X179693797Y-83903457D01*
X179693793Y-83903450D01*
X179607547Y-83788241D01*
X179607544Y-83788238D01*
X179492335Y-83701992D01*
X179492328Y-83701988D01*
X179357482Y-83651694D01*
X179357483Y-83651694D01*
X179304165Y-83645962D01*
X179239614Y-83619224D01*
X179199766Y-83561831D01*
X179197273Y-83492006D01*
X179232926Y-83431917D01*
X179244537Y-83422354D01*
X179347215Y-83347755D01*
X179347215Y-83347754D01*
X179347219Y-83347752D01*
X179491966Y-83203005D01*
X179491968Y-83203001D01*
X179491971Y-83202999D01*
X179544732Y-83130376D01*
X179612287Y-83037396D01*
X179705220Y-82855005D01*
X179768477Y-82660320D01*
X179800500Y-82458138D01*
X179800500Y-82253434D01*
X179768477Y-82051252D01*
X179705220Y-81856567D01*
X179705218Y-81856564D01*
X179705218Y-81856562D01*
X179671503Y-81790393D01*
X179612287Y-81674176D01*
X179602551Y-81660776D01*
X179491971Y-81508572D01*
X179347213Y-81363814D01*
X179181613Y-81243501D01*
X179181612Y-81243500D01*
X179181610Y-81243499D01*
X179124653Y-81214477D01*
X178999223Y-81150567D01*
X178804534Y-81087308D01*
X178629995Y-81059664D01*
X178602352Y-81055286D01*
X178397648Y-81055286D01*
X178373329Y-81059137D01*
X178195465Y-81087308D01*
X178000776Y-81150567D01*
X177818386Y-81243501D01*
X177652786Y-81363814D01*
X177508028Y-81508572D01*
X177387715Y-81674172D01*
X177294781Y-81856562D01*
X177231522Y-82051251D01*
X177199500Y-82253434D01*
X151070500Y-82253434D01*
X151070500Y-66970447D01*
X151090185Y-66903408D01*
X151121609Y-66870133D01*
X151197675Y-66814869D01*
X151339083Y-66673461D01*
X151456629Y-66511673D01*
X151529515Y-66368626D01*
X151577490Y-66317831D01*
X151645311Y-66301036D01*
X151711446Y-66323574D01*
X151750484Y-66368626D01*
X151823371Y-66511673D01*
X151940917Y-66673461D01*
X152082325Y-66814869D01*
X152244113Y-66932415D01*
X152420621Y-67022351D01*
X152422299Y-67023206D01*
X152501985Y-67049097D01*
X152612490Y-67085002D01*
X152810009Y-67116286D01*
X152810010Y-67116286D01*
X153009990Y-67116286D01*
X153009991Y-67116286D01*
X153207510Y-67085002D01*
X153397703Y-67023205D01*
X153575887Y-66932415D01*
X153737675Y-66814869D01*
X153879083Y-66673461D01*
X153996629Y-66511673D01*
X154069515Y-66368626D01*
X154117490Y-66317831D01*
X154185311Y-66301036D01*
X154251446Y-66323574D01*
X154290484Y-66368626D01*
X154363371Y-66511673D01*
X154480917Y-66673461D01*
X154622325Y-66814869D01*
X154784113Y-66932415D01*
X154960621Y-67022351D01*
X154962299Y-67023206D01*
X155041985Y-67049097D01*
X155152490Y-67085002D01*
X155350009Y-67116286D01*
X155350010Y-67116286D01*
X155549990Y-67116286D01*
X155549991Y-67116286D01*
X155747510Y-67085002D01*
X155937703Y-67023205D01*
X156115887Y-66932415D01*
X156277675Y-66814869D01*
X156419083Y-66673461D01*
X156536629Y-66511673D01*
X156609515Y-66368626D01*
X156657490Y-66317831D01*
X156725311Y-66301036D01*
X156791446Y-66323574D01*
X156830484Y-66368626D01*
X156903371Y-66511673D01*
X157020917Y-66673461D01*
X157020919Y-66673463D01*
X157162328Y-66814872D01*
X157248384Y-66877394D01*
X157291051Y-66932724D01*
X157299500Y-66977713D01*
X157299500Y-75451063D01*
X157279815Y-75518102D01*
X157227011Y-75563857D01*
X157199693Y-75572680D01*
X157151922Y-75582182D01*
X157151917Y-75582184D01*
X156997139Y-75646295D01*
X156857837Y-75739373D01*
X156739373Y-75857837D01*
X156646295Y-75997139D01*
X156582184Y-76151917D01*
X156582182Y-76151925D01*
X156549500Y-76316228D01*
X156549500Y-76483771D01*
X156582182Y-76648074D01*
X156582184Y-76648082D01*
X156646295Y-76802860D01*
X156739373Y-76942162D01*
X156857837Y-77060626D01*
X156950494Y-77122537D01*
X156997137Y-77153703D01*
X157151918Y-77217816D01*
X157316228Y-77250499D01*
X157316232Y-77250500D01*
X157316233Y-77250500D01*
X157483768Y-77250500D01*
X157483769Y-77250499D01*
X157648082Y-77217816D01*
X157802863Y-77153703D01*
X157942162Y-77060626D01*
X158060626Y-76942162D01*
X158153703Y-76802863D01*
X158217816Y-76648082D01*
X158229160Y-76591046D01*
X158261544Y-76529139D01*
X158262984Y-76527671D01*
X158544114Y-76246543D01*
X158620775Y-76131811D01*
X158673580Y-76004329D01*
X158683699Y-75953457D01*
X158699349Y-75874780D01*
X158700500Y-75868995D01*
X158700500Y-72787484D01*
X158720185Y-72720445D01*
X158772989Y-72674690D01*
X158842147Y-72664746D01*
X158893391Y-72684382D01*
X158997137Y-72753703D01*
X159151918Y-72817816D01*
X159299708Y-72847213D01*
X159316228Y-72850499D01*
X159316232Y-72850500D01*
X159316233Y-72850500D01*
X159483768Y-72850500D01*
X159483769Y-72850499D01*
X159648082Y-72817816D01*
X159802863Y-72753703D01*
X159851211Y-72721398D01*
X159917888Y-72700520D01*
X159920102Y-72700500D01*
X162508996Y-72700500D01*
X162603959Y-72681610D01*
X162644328Y-72673580D01*
X162708069Y-72647177D01*
X162771807Y-72620777D01*
X162771808Y-72620776D01*
X162771811Y-72620775D01*
X162886543Y-72544114D01*
X163614114Y-71816543D01*
X163690775Y-71701811D01*
X163743580Y-71574328D01*
X163770500Y-71438994D01*
X163770500Y-71301006D01*
X163770500Y-66970447D01*
X163770861Y-66969216D01*
X163770525Y-66967981D01*
X163780679Y-66935778D01*
X163790185Y-66903408D01*
X163791277Y-66902172D01*
X163791538Y-66901346D01*
X163797239Y-66895428D01*
X163815177Y-66875138D01*
X163818304Y-66872534D01*
X163897675Y-66814869D01*
X164039083Y-66673461D01*
X164156629Y-66511673D01*
X164229796Y-66368073D01*
X164277769Y-66317280D01*
X164345590Y-66300485D01*
X164411725Y-66323022D01*
X164450764Y-66368075D01*
X164523795Y-66511404D01*
X164523799Y-66511411D01*
X164552001Y-66550229D01*
X164552002Y-66550229D01*
X165210000Y-65892231D01*
X165210000Y-65898447D01*
X165237259Y-66000180D01*
X165289920Y-66091392D01*
X165364394Y-66165866D01*
X165455606Y-66218527D01*
X165557339Y-66245786D01*
X165563553Y-66245786D01*
X164905555Y-66903781D01*
X164905555Y-66903782D01*
X164944378Y-66931988D01*
X165122491Y-67022742D01*
X165312606Y-67084513D01*
X165510050Y-67115786D01*
X165709950Y-67115786D01*
X165907393Y-67084513D01*
X166097508Y-67022742D01*
X166275617Y-66931990D01*
X166275630Y-66931982D01*
X166314443Y-66903783D01*
X166314444Y-66903782D01*
X165656447Y-66245786D01*
X165662661Y-66245786D01*
X165764394Y-66218527D01*
X165855606Y-66165866D01*
X165930080Y-66091392D01*
X165982741Y-66000180D01*
X166010000Y-65898447D01*
X166010000Y-65892233D01*
X166667996Y-66550230D01*
X166679196Y-66549348D01*
X166710509Y-66525202D01*
X166780122Y-66519221D01*
X166841918Y-66551825D01*
X166876277Y-66612663D01*
X166879500Y-66640747D01*
X166879500Y-66663653D01*
X166879501Y-66663662D01*
X166885908Y-66723269D01*
X166936202Y-66858114D01*
X166936206Y-66858121D01*
X167022452Y-66973330D01*
X167022455Y-66973333D01*
X167137664Y-67059579D01*
X167137671Y-67059583D01*
X167272517Y-67109877D01*
X167272516Y-67109877D01*
X167279444Y-67110621D01*
X167332127Y-67116286D01*
X168967872Y-67116285D01*
X169027483Y-67109877D01*
X169162331Y-67059582D01*
X169277546Y-66973332D01*
X169363796Y-66858117D01*
X169414091Y-66723269D01*
X169420500Y-66663659D01*
X169420499Y-65027914D01*
X169414091Y-64968303D01*
X169379926Y-64876703D01*
X169363797Y-64833457D01*
X169363793Y-64833450D01*
X169277547Y-64718241D01*
X169277544Y-64718238D01*
X169162335Y-64631992D01*
X169162328Y-64631988D01*
X169027482Y-64581694D01*
X169027483Y-64581694D01*
X168967872Y-64575285D01*
X168967838Y-64575284D01*
X168967830Y-64575281D01*
X168964572Y-64574931D01*
X168964654Y-64574160D01*
X168901953Y-64552026D01*
X168859101Y-64496840D01*
X168850500Y-64451463D01*
X168850500Y-59987363D01*
X179835286Y-59987363D01*
X179835286Y-60184208D01*
X179866076Y-60378612D01*
X179926903Y-60565815D01*
X179977521Y-60665157D01*
X180016262Y-60741191D01*
X180131958Y-60900432D01*
X180271140Y-61039614D01*
X180430381Y-61155310D01*
X180513241Y-61197529D01*
X180605756Y-61244668D01*
X180605758Y-61244668D01*
X180605761Y-61244670D01*
X180706103Y-61277273D01*
X180792959Y-61305495D01*
X180987364Y-61336286D01*
X180987369Y-61336286D01*
X181184208Y-61336286D01*
X181378612Y-61305495D01*
X181565811Y-61244670D01*
X181741191Y-61155310D01*
X181900432Y-61039614D01*
X182039614Y-60900432D01*
X182155310Y-60741191D01*
X182244670Y-60565811D01*
X182305495Y-60378612D01*
X182317415Y-60303354D01*
X182336286Y-60184208D01*
X182336286Y-59987363D01*
X182305495Y-59792959D01*
X182254761Y-59636819D01*
X182244670Y-59605761D01*
X182244668Y-59605758D01*
X182244668Y-59605756D01*
X182155309Y-59430380D01*
X182110393Y-59368559D01*
X182039614Y-59271140D01*
X181900432Y-59131958D01*
X181741191Y-59016262D01*
X181565815Y-58926903D01*
X181378612Y-58866076D01*
X181184208Y-58835286D01*
X181184203Y-58835286D01*
X180987369Y-58835286D01*
X180987364Y-58835286D01*
X180792959Y-58866076D01*
X180605756Y-58926903D01*
X180430380Y-59016262D01*
X180339527Y-59082271D01*
X180271140Y-59131958D01*
X180271138Y-59131960D01*
X180271137Y-59131960D01*
X180131960Y-59271137D01*
X180131960Y-59271138D01*
X180131958Y-59271140D01*
X180088261Y-59331284D01*
X180016262Y-59430380D01*
X179926903Y-59605756D01*
X179866076Y-59792959D01*
X179835286Y-59987363D01*
X168850500Y-59987363D01*
X168850500Y-58681002D01*
X168847952Y-58668199D01*
X168847950Y-58668191D01*
X168847950Y-58668189D01*
X168823580Y-58545672D01*
X168805000Y-58500816D01*
X168770777Y-58418192D01*
X168694112Y-58303454D01*
X167646545Y-57255887D01*
X167531807Y-57179222D01*
X167404332Y-57126421D01*
X167404322Y-57126418D01*
X167268996Y-57099500D01*
X167268994Y-57099500D01*
X167268993Y-57099500D01*
X122331007Y-57099500D01*
X122331003Y-57099500D01*
X122222590Y-57121065D01*
X122222589Y-57121065D01*
X122195681Y-57126418D01*
X122195671Y-57126420D01*
X122068190Y-57179224D01*
X121953454Y-57255887D01*
X120655887Y-58553454D01*
X120579224Y-58668191D01*
X120526421Y-58795667D01*
X120526418Y-58795679D01*
X120500319Y-58926889D01*
X120500318Y-58926896D01*
X120499500Y-58931003D01*
X120499500Y-68635500D01*
X120479815Y-68702539D01*
X120427011Y-68748294D01*
X120375500Y-68759500D01*
X106771004Y-68759500D01*
X106635677Y-68786418D01*
X106635667Y-68786421D01*
X106508192Y-68839222D01*
X106393454Y-68915887D01*
X105145890Y-70163451D01*
X105145884Y-70163458D01*
X105096654Y-70237138D01*
X105096654Y-70237139D01*
X105069223Y-70278191D01*
X105069222Y-70278193D01*
X105016421Y-70405667D01*
X105016418Y-70405677D01*
X104989500Y-70541004D01*
X104989500Y-98780823D01*
X104969815Y-98847862D01*
X104938386Y-98881140D01*
X104862331Y-98936398D01*
X104862322Y-98936405D01*
X104720919Y-99077808D01*
X104720919Y-99077809D01*
X104720917Y-99077811D01*
X104697773Y-99109666D01*
X104603369Y-99239600D01*
X104530203Y-99383196D01*
X104482229Y-99433991D01*
X104414408Y-99450786D01*
X104348273Y-99428248D01*
X104309234Y-99383195D01*
X104236202Y-99239865D01*
X104207996Y-99201041D01*
X104207995Y-99201041D01*
X103550000Y-99859037D01*
X103550000Y-99852825D01*
X103522741Y-99751092D01*
X103470080Y-99659880D01*
X103395606Y-99585406D01*
X103304394Y-99532745D01*
X103202661Y-99505486D01*
X103196445Y-99505486D01*
X103854443Y-98847488D01*
X103854443Y-98847487D01*
X103815625Y-98819285D01*
X103815623Y-98819284D01*
X103637508Y-98728529D01*
X103447393Y-98666758D01*
X103249950Y-98635486D01*
X103050050Y-98635486D01*
X102852606Y-98666758D01*
X102662491Y-98728529D01*
X102484372Y-98819286D01*
X102445555Y-98847487D01*
X102445555Y-98847488D01*
X103103553Y-99505486D01*
X103097339Y-99505486D01*
X102995606Y-99532745D01*
X102904394Y-99585406D01*
X102829920Y-99659880D01*
X102777259Y-99751092D01*
X102750000Y-99852825D01*
X102750000Y-99859039D01*
X102092002Y-99201041D01*
X102092001Y-99201041D01*
X102063800Y-99239858D01*
X101973043Y-99417977D01*
X101911272Y-99608092D01*
X101880000Y-99805535D01*
X101880000Y-100005436D01*
X101911272Y-100202879D01*
X101973043Y-100392994D01*
X102063798Y-100571109D01*
X102063799Y-100571111D01*
X102092001Y-100609929D01*
X102092002Y-100609929D01*
X102750000Y-99951931D01*
X102750000Y-99958147D01*
X102777259Y-100059880D01*
X102829920Y-100151092D01*
X102904394Y-100225566D01*
X102995606Y-100278227D01*
X103097339Y-100305486D01*
X103103553Y-100305486D01*
X102445555Y-100963481D01*
X102445555Y-100963482D01*
X102484378Y-100991688D01*
X102662491Y-101082442D01*
X102852606Y-101144213D01*
X103050050Y-101175486D01*
X103249950Y-101175486D01*
X103447393Y-101144213D01*
X103637508Y-101082442D01*
X103815617Y-100991690D01*
X103815630Y-100991682D01*
X103854443Y-100963483D01*
X103854444Y-100963482D01*
X103196447Y-100305486D01*
X103202661Y-100305486D01*
X103304394Y-100278227D01*
X103395606Y-100225566D01*
X103470080Y-100151092D01*
X103522741Y-100059880D01*
X103550000Y-99958147D01*
X103550000Y-99951934D01*
X104207996Y-100609930D01*
X104207997Y-100609929D01*
X104236196Y-100571116D01*
X104236204Y-100571103D01*
X104309234Y-100427776D01*
X104357209Y-100376980D01*
X104425030Y-100360185D01*
X104491165Y-100382722D01*
X104530204Y-100427776D01*
X104603233Y-100571103D01*
X104603371Y-100571373D01*
X104720917Y-100733161D01*
X104862325Y-100874569D01*
X105024113Y-100992115D01*
X105201388Y-101082442D01*
X105202299Y-101082906D01*
X105297393Y-101113803D01*
X105392490Y-101144702D01*
X105590009Y-101175986D01*
X105590010Y-101175986D01*
X105789990Y-101175986D01*
X105789991Y-101175986D01*
X105987510Y-101144702D01*
X106177703Y-101082905D01*
X106355887Y-100992115D01*
X106517675Y-100874569D01*
X106659083Y-100733161D01*
X106776629Y-100571373D01*
X106849515Y-100428326D01*
X106897490Y-100377531D01*
X106965311Y-100360736D01*
X107031446Y-100383274D01*
X107070484Y-100428326D01*
X107143371Y-100571373D01*
X107260917Y-100733161D01*
X107402325Y-100874569D01*
X107564113Y-100992115D01*
X107741388Y-101082442D01*
X107742299Y-101082906D01*
X107837393Y-101113803D01*
X107932490Y-101144702D01*
X108130009Y-101175986D01*
X108130010Y-101175986D01*
X108329990Y-101175986D01*
X108329991Y-101175986D01*
X108527510Y-101144702D01*
X108717703Y-101082905D01*
X108895887Y-100992115D01*
X109057675Y-100874569D01*
X109199083Y-100733161D01*
X109316629Y-100571373D01*
X109389515Y-100428326D01*
X109437490Y-100377531D01*
X109505311Y-100360736D01*
X109571446Y-100383274D01*
X109610484Y-100428326D01*
X109683371Y-100571373D01*
X109800917Y-100733161D01*
X109942325Y-100874569D01*
X110104113Y-100992115D01*
X110281388Y-101082442D01*
X110282299Y-101082906D01*
X110377393Y-101113803D01*
X110472490Y-101144702D01*
X110670009Y-101175986D01*
X110670010Y-101175986D01*
X110869990Y-101175986D01*
X110869991Y-101175986D01*
X111067510Y-101144702D01*
X111257703Y-101082905D01*
X111435887Y-100992115D01*
X111597675Y-100874569D01*
X111739083Y-100733161D01*
X111856629Y-100571373D01*
X111929515Y-100428326D01*
X111977490Y-100377531D01*
X112045311Y-100360736D01*
X112111446Y-100383274D01*
X112150484Y-100428326D01*
X112223371Y-100571373D01*
X112340917Y-100733161D01*
X112482325Y-100874569D01*
X112644113Y-100992115D01*
X112821388Y-101082442D01*
X112822299Y-101082906D01*
X112917393Y-101113803D01*
X113012490Y-101144702D01*
X113210009Y-101175986D01*
X113210010Y-101175986D01*
X113409990Y-101175986D01*
X113409991Y-101175986D01*
X113607510Y-101144702D01*
X113797703Y-101082905D01*
X113975887Y-100992115D01*
X114137675Y-100874569D01*
X114279083Y-100733161D01*
X114355183Y-100628417D01*
X114410511Y-100585753D01*
X114480125Y-100579774D01*
X114541920Y-100612379D01*
X114576277Y-100673218D01*
X114579500Y-100701299D01*
X114579500Y-100723353D01*
X114579501Y-100723362D01*
X114585908Y-100782969D01*
X114636202Y-100917814D01*
X114636206Y-100917821D01*
X114722452Y-101033030D01*
X114722455Y-101033033D01*
X114837664Y-101119279D01*
X114837671Y-101119283D01*
X114972517Y-101169577D01*
X114972516Y-101169577D01*
X114979444Y-101170321D01*
X115032127Y-101175986D01*
X116667872Y-101175985D01*
X116727483Y-101169577D01*
X116862331Y-101119282D01*
X116977546Y-101033032D01*
X117063796Y-100917817D01*
X117114091Y-100782969D01*
X117120500Y-100723359D01*
X117120499Y-99087614D01*
X117114091Y-99028003D01*
X117084407Y-98948417D01*
X117063797Y-98893157D01*
X117063793Y-98893150D01*
X116977547Y-98777941D01*
X116977544Y-98777938D01*
X116862335Y-98691692D01*
X116862328Y-98691688D01*
X116727482Y-98641394D01*
X116727483Y-98641394D01*
X116667883Y-98634987D01*
X116667881Y-98634986D01*
X116667873Y-98634986D01*
X116667864Y-98634986D01*
X115032129Y-98634986D01*
X115032123Y-98634987D01*
X114972516Y-98641394D01*
X114837671Y-98691688D01*
X114837664Y-98691692D01*
X114722455Y-98777938D01*
X114722452Y-98777941D01*
X114636206Y-98893150D01*
X114636202Y-98893157D01*
X114585908Y-99028003D01*
X114580554Y-99077808D01*
X114579501Y-99087609D01*
X114579500Y-99087621D01*
X114579500Y-99109666D01*
X114559815Y-99176705D01*
X114507011Y-99222460D01*
X114437853Y-99232404D01*
X114374297Y-99203379D01*
X114355182Y-99182552D01*
X114349700Y-99175007D01*
X114279083Y-99077811D01*
X114137675Y-98936403D01*
X113975887Y-98818857D01*
X113967931Y-98814803D01*
X113797700Y-98728065D01*
X113607511Y-98666270D01*
X113508750Y-98650628D01*
X113409991Y-98634986D01*
X113210009Y-98634986D01*
X113144169Y-98645414D01*
X113012488Y-98666270D01*
X112822299Y-98728065D01*
X112644112Y-98818857D01*
X112604191Y-98847862D01*
X112482325Y-98936403D01*
X112482323Y-98936405D01*
X112482322Y-98936405D01*
X112340919Y-99077808D01*
X112340919Y-99077809D01*
X112340917Y-99077811D01*
X112317773Y-99109666D01*
X112223367Y-99239603D01*
X112150484Y-99382644D01*
X112102510Y-99433440D01*
X112034689Y-99450235D01*
X111968554Y-99427697D01*
X111929516Y-99382644D01*
X111856632Y-99239603D01*
X111844177Y-99222460D01*
X111739083Y-99077811D01*
X111597675Y-98936403D01*
X111435887Y-98818857D01*
X111435886Y-98818856D01*
X111435880Y-98818852D01*
X111431735Y-98816312D01*
X111432659Y-98814803D01*
X111387404Y-98772054D01*
X111370500Y-98709553D01*
X111370500Y-88030098D01*
X111379144Y-88000660D01*
X111385668Y-87970670D01*
X111389423Y-87965653D01*
X111390185Y-87963059D01*
X111406819Y-87942416D01*
X111472418Y-87876818D01*
X111533742Y-87843334D01*
X111560099Y-87840500D01*
X123530398Y-87840500D01*
X123597437Y-87860185D01*
X123640883Y-87908205D01*
X123647715Y-87921614D01*
X123768028Y-88087213D01*
X123912786Y-88231971D01*
X124067749Y-88344556D01*
X124078390Y-88352287D01*
X124169840Y-88398883D01*
X124171080Y-88399515D01*
X124221876Y-88447490D01*
X124238671Y-88515311D01*
X124216134Y-88581446D01*
X124171080Y-88620485D01*
X124078386Y-88667715D01*
X123912786Y-88788028D01*
X123768028Y-88932786D01*
X123647715Y-89098386D01*
X123554781Y-89280776D01*
X123491522Y-89475465D01*
X123459500Y-89677648D01*
X123459500Y-89882351D01*
X123491522Y-90084534D01*
X123554781Y-90279223D01*
X123577655Y-90324114D01*
X123643620Y-90453578D01*
X123647715Y-90461613D01*
X123768028Y-90627213D01*
X123912786Y-90771971D01*
X124067749Y-90884556D01*
X124078390Y-90892287D01*
X124169840Y-90938883D01*
X124171080Y-90939515D01*
X124221876Y-90987490D01*
X124238671Y-91055311D01*
X124216134Y-91121446D01*
X124171080Y-91160485D01*
X124078386Y-91207715D01*
X123912786Y-91328028D01*
X123768028Y-91472786D01*
X123647715Y-91638386D01*
X123554781Y-91820776D01*
X123491522Y-92015465D01*
X123459500Y-92217648D01*
X123459500Y-92422351D01*
X123491522Y-92624534D01*
X123554781Y-92819223D01*
X123647715Y-93001613D01*
X123768028Y-93167213D01*
X123912786Y-93311971D01*
X124067749Y-93424556D01*
X124078390Y-93432287D01*
X124169840Y-93478883D01*
X124171080Y-93479515D01*
X124221876Y-93527490D01*
X124238671Y-93595311D01*
X124216134Y-93661446D01*
X124171080Y-93700485D01*
X124078386Y-93747715D01*
X123912786Y-93868028D01*
X123768030Y-94012784D01*
X123698575Y-94108384D01*
X123643245Y-94151051D01*
X123598256Y-94159500D01*
X122671003Y-94159500D01*
X122573760Y-94178843D01*
X122573758Y-94178843D01*
X122562591Y-94181065D01*
X122535671Y-94186420D01*
X122482866Y-94208292D01*
X122408189Y-94239225D01*
X122408188Y-94239226D01*
X122387199Y-94253249D01*
X122387192Y-94253253D01*
X122293457Y-94315886D01*
X122293453Y-94315889D01*
X121655886Y-94953456D01*
X121649946Y-94962348D01*
X121649943Y-94962352D01*
X121579228Y-95068182D01*
X121579221Y-95068195D01*
X121526421Y-95195667D01*
X121526418Y-95195677D01*
X121499500Y-95331004D01*
X121499500Y-115958481D01*
X121490855Y-115987921D01*
X121484332Y-116017908D01*
X121480577Y-116022923D01*
X121479815Y-116025520D01*
X121463181Y-116046162D01*
X121356162Y-116153181D01*
X121294839Y-116186666D01*
X121268481Y-116189500D01*
X102020322Y-116189500D01*
X101953283Y-116169815D01*
X101907528Y-116117011D01*
X101897297Y-116075381D01*
X101896854Y-116075429D01*
X101890091Y-116012516D01*
X101839797Y-115877671D01*
X101839793Y-115877664D01*
X101753547Y-115762455D01*
X101753544Y-115762452D01*
X101638335Y-115676206D01*
X101638328Y-115676202D01*
X101503482Y-115625908D01*
X101503483Y-115625908D01*
X101443883Y-115619501D01*
X101443881Y-115619500D01*
X101443873Y-115619500D01*
X101443864Y-115619500D01*
X99808129Y-115619500D01*
X99808123Y-115619501D01*
X99748516Y-115625908D01*
X99613671Y-115676202D01*
X99613664Y-115676206D01*
X99498455Y-115762452D01*
X99498452Y-115762455D01*
X99412206Y-115877664D01*
X99412202Y-115877671D01*
X99361908Y-116012517D01*
X99355501Y-116072116D01*
X99355500Y-116072131D01*
X93836286Y-116072131D01*
X93836286Y-59987363D01*
X96335286Y-59987363D01*
X96335286Y-60184208D01*
X96366076Y-60378612D01*
X96426903Y-60565815D01*
X96477521Y-60665157D01*
X96516262Y-60741191D01*
X96631958Y-60900432D01*
X96771140Y-61039614D01*
X96930381Y-61155310D01*
X97013241Y-61197529D01*
X97105756Y-61244668D01*
X97105758Y-61244668D01*
X97105761Y-61244670D01*
X97206103Y-61277273D01*
X97292959Y-61305495D01*
X97487364Y-61336286D01*
X97487369Y-61336286D01*
X97684208Y-61336286D01*
X97878612Y-61305495D01*
X98065811Y-61244670D01*
X98241191Y-61155310D01*
X98400432Y-61039614D01*
X98539614Y-60900432D01*
X98655310Y-60741191D01*
X98744670Y-60565811D01*
X98805495Y-60378612D01*
X98817415Y-60303354D01*
X98836286Y-60184208D01*
X98836286Y-59987363D01*
X98805495Y-59792959D01*
X98754761Y-59636819D01*
X98744670Y-59605761D01*
X98744668Y-59605758D01*
X98744668Y-59605756D01*
X98655309Y-59430380D01*
X98610393Y-59368559D01*
X98539614Y-59271140D01*
X98400432Y-59131958D01*
X98241191Y-59016262D01*
X98065815Y-58926903D01*
X97878612Y-58866076D01*
X97684208Y-58835286D01*
X97684203Y-58835286D01*
X97487369Y-58835286D01*
X97487364Y-58835286D01*
X97292959Y-58866076D01*
X97105756Y-58926903D01*
X96930380Y-59016262D01*
X96839527Y-59082271D01*
X96771140Y-59131958D01*
X96771138Y-59131960D01*
X96771137Y-59131960D01*
X96631960Y-59271137D01*
X96631960Y-59271138D01*
X96631958Y-59271140D01*
X96588261Y-59331284D01*
X96516262Y-59430380D01*
X96426903Y-59605756D01*
X96366076Y-59792959D01*
X96335286Y-59987363D01*
X93836286Y-59987363D01*
X93836286Y-58090213D01*
X93836602Y-58081366D01*
X93853462Y-57845653D01*
X93855980Y-57828141D01*
X93855981Y-57828139D01*
X93905273Y-57601555D01*
X93910254Y-57584590D01*
X93910258Y-57584580D01*
X93991294Y-57367315D01*
X93998633Y-57351245D01*
X94109771Y-57147714D01*
X94119327Y-57132844D01*
X94258296Y-56947203D01*
X94269870Y-56933846D01*
X94433848Y-56769869D01*
X94447203Y-56758296D01*
X94632844Y-56619327D01*
X94647714Y-56609771D01*
X94851245Y-56498633D01*
X94867315Y-56491294D01*
X95084594Y-56410252D01*
X95101560Y-56405271D01*
X95328146Y-56355979D01*
X95345648Y-56353462D01*
X95581370Y-56336601D01*
X95590217Y-56336286D01*
X183041618Y-56336286D01*
X183081362Y-56336286D01*
X183090206Y-56336601D01*
G37*
G04 #@! TD.AperFunction*
M02*
