G04 #@! TF.GenerationSoftware,KiCad,Pcbnew,9.0.2*
G04 #@! TF.CreationDate,2025-07-27T14:28:18-07:00*
G04 #@! TF.ProjectId,PortableWeatherStation,506f7274-6162-46c6-9557-656174686572,rev?*
G04 #@! TF.SameCoordinates,Original*
G04 #@! TF.FileFunction,Soldermask,Top*
G04 #@! TF.FilePolarity,Negative*
%FSLAX46Y46*%
G04 Gerber Fmt 4.6, Leading zero omitted, Abs format (unit mm)*
G04 Created by KiCad (PCBNEW 9.0.2) date 2025-07-27 14:28:18*
%MOMM*%
%LPD*%
G01*
G04 APERTURE LIST*
G04 APERTURE END LIST*
G36*
X137623519Y-125263156D02*
G01*
X137762975Y-125320921D01*
X137888483Y-125404782D01*
X137995218Y-125511517D01*
X138079079Y-125637025D01*
X138136844Y-125776481D01*
X138166292Y-125924527D01*
X138166292Y-126075473D01*
X138136844Y-126223519D01*
X138079079Y-126362975D01*
X137995218Y-126488483D01*
X137888483Y-126595218D01*
X137762975Y-126679079D01*
X137623519Y-126736844D01*
X137475473Y-126766292D01*
X137324527Y-126766292D01*
X137176481Y-126736844D01*
X137037025Y-126679079D01*
X136911517Y-126595218D01*
X136804782Y-126488483D01*
X136720921Y-126362975D01*
X136663156Y-126223519D01*
X136633708Y-126075473D01*
X136633708Y-125924527D01*
X136663156Y-125776481D01*
X136720921Y-125637025D01*
X136804782Y-125511517D01*
X136911517Y-125404782D01*
X137037025Y-125320921D01*
X137176481Y-125263156D01*
X137324527Y-125233708D01*
X137475473Y-125233708D01*
X137623519Y-125263156D01*
G37*
G36*
X100849519Y-123773156D02*
G01*
X100988975Y-123830921D01*
X101114483Y-123914782D01*
X101221218Y-124021517D01*
X101305079Y-124147025D01*
X101362844Y-124286481D01*
X101392292Y-124434527D01*
X101392292Y-124585473D01*
X101362844Y-124733519D01*
X101305079Y-124872975D01*
X101221218Y-124998483D01*
X101114483Y-125105218D01*
X100988975Y-125189079D01*
X100849519Y-125246844D01*
X100701473Y-125276292D01*
X100550527Y-125276292D01*
X100402481Y-125246844D01*
X100263025Y-125189079D01*
X100137517Y-125105218D01*
X100030782Y-124998483D01*
X99946921Y-124872975D01*
X99889156Y-124733519D01*
X99859708Y-124585473D01*
X99859708Y-124434527D01*
X99889156Y-124286481D01*
X99946921Y-124147025D01*
X100030782Y-124021517D01*
X100137517Y-123914782D01*
X100263025Y-123830921D01*
X100402481Y-123773156D01*
X100550527Y-123743708D01*
X100701473Y-123743708D01*
X100849519Y-123773156D01*
G37*
G36*
X137623519Y-122723156D02*
G01*
X137762975Y-122780921D01*
X137888483Y-122864782D01*
X137995218Y-122971517D01*
X138079079Y-123097025D01*
X138136844Y-123236481D01*
X138166292Y-123384527D01*
X138166292Y-123535473D01*
X138136844Y-123683519D01*
X138079079Y-123822975D01*
X137995218Y-123948483D01*
X137888483Y-124055218D01*
X137762975Y-124139079D01*
X137623519Y-124196844D01*
X137475473Y-124226292D01*
X137324527Y-124226292D01*
X137176481Y-124196844D01*
X137037025Y-124139079D01*
X136911517Y-124055218D01*
X136804782Y-123948483D01*
X136720921Y-123822975D01*
X136663156Y-123683519D01*
X136633708Y-123535473D01*
X136633708Y-123384527D01*
X136663156Y-123236481D01*
X136720921Y-123097025D01*
X136804782Y-122971517D01*
X136911517Y-122864782D01*
X137037025Y-122780921D01*
X137176481Y-122723156D01*
X137324527Y-122693708D01*
X137475473Y-122693708D01*
X137623519Y-122723156D01*
G37*
G36*
X100849519Y-121233156D02*
G01*
X100988975Y-121290921D01*
X101114483Y-121374782D01*
X101221218Y-121481517D01*
X101305079Y-121607025D01*
X101362844Y-121746481D01*
X101392292Y-121894527D01*
X101392292Y-122045473D01*
X101362844Y-122193519D01*
X101305079Y-122332975D01*
X101221218Y-122458483D01*
X101114483Y-122565218D01*
X100988975Y-122649079D01*
X100849519Y-122706844D01*
X100701473Y-122736292D01*
X100550527Y-122736292D01*
X100402481Y-122706844D01*
X100263025Y-122649079D01*
X100137517Y-122565218D01*
X100030782Y-122458483D01*
X99946921Y-122332975D01*
X99889156Y-122193519D01*
X99859708Y-122045473D01*
X99859708Y-121894527D01*
X99889156Y-121746481D01*
X99946921Y-121607025D01*
X100030782Y-121481517D01*
X100137517Y-121374782D01*
X100263025Y-121290921D01*
X100402481Y-121233156D01*
X100550527Y-121203708D01*
X100701473Y-121203708D01*
X100849519Y-121233156D01*
G37*
G36*
X138170000Y-121690000D02*
G01*
X136630000Y-121690000D01*
X136630000Y-120150000D01*
X138170000Y-120150000D01*
X138170000Y-121690000D01*
G37*
G36*
X100849519Y-118693156D02*
G01*
X100988975Y-118750921D01*
X101114483Y-118834782D01*
X101221218Y-118941517D01*
X101305079Y-119067025D01*
X101362844Y-119206481D01*
X101392292Y-119354527D01*
X101392292Y-119505473D01*
X101362844Y-119653519D01*
X101305079Y-119792975D01*
X101221218Y-119918483D01*
X101114483Y-120025218D01*
X100988975Y-120109079D01*
X100849519Y-120166844D01*
X100701473Y-120196292D01*
X100550527Y-120196292D01*
X100402481Y-120166844D01*
X100263025Y-120109079D01*
X100137517Y-120025218D01*
X100030782Y-119918483D01*
X99946921Y-119792975D01*
X99889156Y-119653519D01*
X99859708Y-119505473D01*
X99859708Y-119354527D01*
X99889156Y-119206481D01*
X99946921Y-119067025D01*
X100030782Y-118941517D01*
X100137517Y-118834782D01*
X100263025Y-118750921D01*
X100402481Y-118693156D01*
X100550527Y-118663708D01*
X100701473Y-118663708D01*
X100849519Y-118693156D01*
G37*
G36*
X101396000Y-117660000D02*
G01*
X99856000Y-117660000D01*
X99856000Y-116120000D01*
X101396000Y-116120000D01*
X101396000Y-117660000D01*
G37*
G36*
X140800000Y-103280000D02*
G01*
X139200000Y-103280000D01*
X139200000Y-101680000D01*
X140800000Y-101680000D01*
X140800000Y-103280000D01*
G37*
G36*
X124992228Y-101714448D02*
G01*
X125137117Y-101774463D01*
X125267515Y-101861592D01*
X125378408Y-101972485D01*
X125465537Y-102102883D01*
X125525552Y-102247772D01*
X125556148Y-102401586D01*
X125556148Y-102558414D01*
X125525552Y-102712228D01*
X125465537Y-102857117D01*
X125378408Y-102987515D01*
X125267515Y-103098408D01*
X125137117Y-103185537D01*
X124992228Y-103245552D01*
X124838414Y-103276148D01*
X124681586Y-103276148D01*
X124527772Y-103245552D01*
X124382883Y-103185537D01*
X124252485Y-103098408D01*
X124141592Y-102987515D01*
X124054463Y-102857117D01*
X123994448Y-102712228D01*
X123963852Y-102558414D01*
X123963852Y-102401586D01*
X123994448Y-102247772D01*
X124054463Y-102102883D01*
X124141592Y-101972485D01*
X124252485Y-101861592D01*
X124382883Y-101774463D01*
X124527772Y-101714448D01*
X124681586Y-101683852D01*
X124838414Y-101683852D01*
X124992228Y-101714448D01*
G37*
G36*
X124992228Y-99174448D02*
G01*
X125137117Y-99234463D01*
X125267515Y-99321592D01*
X125378408Y-99432485D01*
X125465537Y-99562883D01*
X125525552Y-99707772D01*
X125556148Y-99861586D01*
X125556148Y-100018414D01*
X125525552Y-100172228D01*
X125465537Y-100317117D01*
X125378408Y-100447515D01*
X125267515Y-100558408D01*
X125137117Y-100645537D01*
X124992228Y-100705552D01*
X124838414Y-100736148D01*
X124681586Y-100736148D01*
X124527772Y-100705552D01*
X124382883Y-100645537D01*
X124252485Y-100558408D01*
X124141592Y-100447515D01*
X124054463Y-100317117D01*
X123994448Y-100172228D01*
X123963852Y-100018414D01*
X123963852Y-99861586D01*
X123994448Y-99707772D01*
X124054463Y-99562883D01*
X124141592Y-99432485D01*
X124252485Y-99321592D01*
X124382883Y-99234463D01*
X124527772Y-99174448D01*
X124681586Y-99143852D01*
X124838414Y-99143852D01*
X124992228Y-99174448D01*
G37*
G36*
X140232228Y-99174448D02*
G01*
X140377117Y-99234463D01*
X140507515Y-99321592D01*
X140618408Y-99432485D01*
X140705537Y-99562883D01*
X140765552Y-99707772D01*
X140796148Y-99861586D01*
X140796148Y-100018414D01*
X140765552Y-100172228D01*
X140705537Y-100317117D01*
X140618408Y-100447515D01*
X140507515Y-100558408D01*
X140377117Y-100645537D01*
X140232228Y-100705552D01*
X140078414Y-100736148D01*
X139921586Y-100736148D01*
X139767772Y-100705552D01*
X139622883Y-100645537D01*
X139492485Y-100558408D01*
X139381592Y-100447515D01*
X139294463Y-100317117D01*
X139234448Y-100172228D01*
X139203852Y-100018414D01*
X139203852Y-99861586D01*
X139234448Y-99707772D01*
X139294463Y-99562883D01*
X139381592Y-99432485D01*
X139492485Y-99321592D01*
X139622883Y-99234463D01*
X139767772Y-99174448D01*
X139921586Y-99143852D01*
X140078414Y-99143852D01*
X140232228Y-99174448D01*
G37*
G36*
X116620000Y-100675486D02*
G01*
X115080000Y-100675486D01*
X115080000Y-99135486D01*
X116620000Y-99135486D01*
X116620000Y-100675486D01*
G37*
G36*
X103373519Y-99168642D02*
G01*
X103512975Y-99226407D01*
X103638483Y-99310268D01*
X103745218Y-99417003D01*
X103829079Y-99542511D01*
X103886844Y-99681967D01*
X103916292Y-99830013D01*
X103916292Y-99980959D01*
X103886844Y-100129005D01*
X103829079Y-100268461D01*
X103745218Y-100393969D01*
X103638483Y-100500704D01*
X103512975Y-100584565D01*
X103373519Y-100642330D01*
X103225473Y-100671778D01*
X103074527Y-100671778D01*
X102926481Y-100642330D01*
X102787025Y-100584565D01*
X102661517Y-100500704D01*
X102554782Y-100393969D01*
X102470921Y-100268461D01*
X102413156Y-100129005D01*
X102383708Y-99980959D01*
X102383708Y-99830013D01*
X102413156Y-99681967D01*
X102470921Y-99542511D01*
X102554782Y-99417003D01*
X102661517Y-99310268D01*
X102787025Y-99226407D01*
X102926481Y-99168642D01*
X103074527Y-99139194D01*
X103225473Y-99139194D01*
X103373519Y-99168642D01*
G37*
G36*
X105913519Y-99168642D02*
G01*
X106052975Y-99226407D01*
X106178483Y-99310268D01*
X106285218Y-99417003D01*
X106369079Y-99542511D01*
X106426844Y-99681967D01*
X106456292Y-99830013D01*
X106456292Y-99980959D01*
X106426844Y-100129005D01*
X106369079Y-100268461D01*
X106285218Y-100393969D01*
X106178483Y-100500704D01*
X106052975Y-100584565D01*
X105913519Y-100642330D01*
X105765473Y-100671778D01*
X105614527Y-100671778D01*
X105466481Y-100642330D01*
X105327025Y-100584565D01*
X105201517Y-100500704D01*
X105094782Y-100393969D01*
X105010921Y-100268461D01*
X104953156Y-100129005D01*
X104923708Y-99980959D01*
X104923708Y-99830013D01*
X104953156Y-99681967D01*
X105010921Y-99542511D01*
X105094782Y-99417003D01*
X105201517Y-99310268D01*
X105327025Y-99226407D01*
X105466481Y-99168642D01*
X105614527Y-99139194D01*
X105765473Y-99139194D01*
X105913519Y-99168642D01*
G37*
G36*
X108453519Y-99168642D02*
G01*
X108592975Y-99226407D01*
X108718483Y-99310268D01*
X108825218Y-99417003D01*
X108909079Y-99542511D01*
X108966844Y-99681967D01*
X108996292Y-99830013D01*
X108996292Y-99980959D01*
X108966844Y-100129005D01*
X108909079Y-100268461D01*
X108825218Y-100393969D01*
X108718483Y-100500704D01*
X108592975Y-100584565D01*
X108453519Y-100642330D01*
X108305473Y-100671778D01*
X108154527Y-100671778D01*
X108006481Y-100642330D01*
X107867025Y-100584565D01*
X107741517Y-100500704D01*
X107634782Y-100393969D01*
X107550921Y-100268461D01*
X107493156Y-100129005D01*
X107463708Y-99980959D01*
X107463708Y-99830013D01*
X107493156Y-99681967D01*
X107550921Y-99542511D01*
X107634782Y-99417003D01*
X107741517Y-99310268D01*
X107867025Y-99226407D01*
X108006481Y-99168642D01*
X108154527Y-99139194D01*
X108305473Y-99139194D01*
X108453519Y-99168642D01*
G37*
G36*
X110993519Y-99168642D02*
G01*
X111132975Y-99226407D01*
X111258483Y-99310268D01*
X111365218Y-99417003D01*
X111449079Y-99542511D01*
X111506844Y-99681967D01*
X111536292Y-99830013D01*
X111536292Y-99980959D01*
X111506844Y-100129005D01*
X111449079Y-100268461D01*
X111365218Y-100393969D01*
X111258483Y-100500704D01*
X111132975Y-100584565D01*
X110993519Y-100642330D01*
X110845473Y-100671778D01*
X110694527Y-100671778D01*
X110546481Y-100642330D01*
X110407025Y-100584565D01*
X110281517Y-100500704D01*
X110174782Y-100393969D01*
X110090921Y-100268461D01*
X110033156Y-100129005D01*
X110003708Y-99980959D01*
X110003708Y-99830013D01*
X110033156Y-99681967D01*
X110090921Y-99542511D01*
X110174782Y-99417003D01*
X110281517Y-99310268D01*
X110407025Y-99226407D01*
X110546481Y-99168642D01*
X110694527Y-99139194D01*
X110845473Y-99139194D01*
X110993519Y-99168642D01*
G37*
G36*
X113533519Y-99168642D02*
G01*
X113672975Y-99226407D01*
X113798483Y-99310268D01*
X113905218Y-99417003D01*
X113989079Y-99542511D01*
X114046844Y-99681967D01*
X114076292Y-99830013D01*
X114076292Y-99980959D01*
X114046844Y-100129005D01*
X113989079Y-100268461D01*
X113905218Y-100393969D01*
X113798483Y-100500704D01*
X113672975Y-100584565D01*
X113533519Y-100642330D01*
X113385473Y-100671778D01*
X113234527Y-100671778D01*
X113086481Y-100642330D01*
X112947025Y-100584565D01*
X112821517Y-100500704D01*
X112714782Y-100393969D01*
X112630921Y-100268461D01*
X112573156Y-100129005D01*
X112543708Y-99980959D01*
X112543708Y-99830013D01*
X112573156Y-99681967D01*
X112630921Y-99542511D01*
X112714782Y-99417003D01*
X112821517Y-99310268D01*
X112947025Y-99226407D01*
X113086481Y-99168642D01*
X113234527Y-99139194D01*
X113385473Y-99139194D01*
X113533519Y-99168642D01*
G37*
G36*
X124992228Y-96634448D02*
G01*
X125137117Y-96694463D01*
X125267515Y-96781592D01*
X125378408Y-96892485D01*
X125465537Y-97022883D01*
X125525552Y-97167772D01*
X125556148Y-97321586D01*
X125556148Y-97478414D01*
X125525552Y-97632228D01*
X125465537Y-97777117D01*
X125378408Y-97907515D01*
X125267515Y-98018408D01*
X125137117Y-98105537D01*
X124992228Y-98165552D01*
X124838414Y-98196148D01*
X124681586Y-98196148D01*
X124527772Y-98165552D01*
X124382883Y-98105537D01*
X124252485Y-98018408D01*
X124141592Y-97907515D01*
X124054463Y-97777117D01*
X123994448Y-97632228D01*
X123963852Y-97478414D01*
X123963852Y-97321586D01*
X123994448Y-97167772D01*
X124054463Y-97022883D01*
X124141592Y-96892485D01*
X124252485Y-96781592D01*
X124382883Y-96694463D01*
X124527772Y-96634448D01*
X124681586Y-96603852D01*
X124838414Y-96603852D01*
X124992228Y-96634448D01*
G37*
G36*
X140232228Y-96634448D02*
G01*
X140377117Y-96694463D01*
X140507515Y-96781592D01*
X140618408Y-96892485D01*
X140705537Y-97022883D01*
X140765552Y-97167772D01*
X140796148Y-97321586D01*
X140796148Y-97478414D01*
X140765552Y-97632228D01*
X140705537Y-97777117D01*
X140618408Y-97907515D01*
X140507515Y-98018408D01*
X140377117Y-98105537D01*
X140232228Y-98165552D01*
X140078414Y-98196148D01*
X139921586Y-98196148D01*
X139767772Y-98165552D01*
X139622883Y-98105537D01*
X139492485Y-98018408D01*
X139381592Y-97907515D01*
X139294463Y-97777117D01*
X139234448Y-97632228D01*
X139203852Y-97478414D01*
X139203852Y-97321586D01*
X139234448Y-97167772D01*
X139294463Y-97022883D01*
X139381592Y-96892485D01*
X139492485Y-96781592D01*
X139622883Y-96694463D01*
X139767772Y-96634448D01*
X139921586Y-96603852D01*
X140078414Y-96603852D01*
X140232228Y-96634448D01*
G37*
G36*
X124992228Y-94094448D02*
G01*
X125137117Y-94154463D01*
X125267515Y-94241592D01*
X125378408Y-94352485D01*
X125465537Y-94482883D01*
X125525552Y-94627772D01*
X125556148Y-94781586D01*
X125556148Y-94938414D01*
X125525552Y-95092228D01*
X125465537Y-95237117D01*
X125378408Y-95367515D01*
X125267515Y-95478408D01*
X125137117Y-95565537D01*
X124992228Y-95625552D01*
X124838414Y-95656148D01*
X124681586Y-95656148D01*
X124527772Y-95625552D01*
X124382883Y-95565537D01*
X124252485Y-95478408D01*
X124141592Y-95367515D01*
X124054463Y-95237117D01*
X123994448Y-95092228D01*
X123963852Y-94938414D01*
X123963852Y-94781586D01*
X123994448Y-94627772D01*
X124054463Y-94482883D01*
X124141592Y-94352485D01*
X124252485Y-94241592D01*
X124382883Y-94154463D01*
X124527772Y-94094448D01*
X124681586Y-94063852D01*
X124838414Y-94063852D01*
X124992228Y-94094448D01*
G37*
G36*
X140232228Y-94094448D02*
G01*
X140377117Y-94154463D01*
X140507515Y-94241592D01*
X140618408Y-94352485D01*
X140705537Y-94482883D01*
X140765552Y-94627772D01*
X140796148Y-94781586D01*
X140796148Y-94938414D01*
X140765552Y-95092228D01*
X140705537Y-95237117D01*
X140618408Y-95367515D01*
X140507515Y-95478408D01*
X140377117Y-95565537D01*
X140232228Y-95625552D01*
X140078414Y-95656148D01*
X139921586Y-95656148D01*
X139767772Y-95625552D01*
X139622883Y-95565537D01*
X139492485Y-95478408D01*
X139381592Y-95367515D01*
X139294463Y-95237117D01*
X139234448Y-95092228D01*
X139203852Y-94938414D01*
X139203852Y-94781586D01*
X139234448Y-94627772D01*
X139294463Y-94482883D01*
X139381592Y-94352485D01*
X139492485Y-94241592D01*
X139622883Y-94154463D01*
X139767772Y-94094448D01*
X139921586Y-94063852D01*
X140078414Y-94063852D01*
X140232228Y-94094448D01*
G37*
G36*
X124992228Y-91554448D02*
G01*
X125137117Y-91614463D01*
X125267515Y-91701592D01*
X125378408Y-91812485D01*
X125465537Y-91942883D01*
X125525552Y-92087772D01*
X125556148Y-92241586D01*
X125556148Y-92398414D01*
X125525552Y-92552228D01*
X125465537Y-92697117D01*
X125378408Y-92827515D01*
X125267515Y-92938408D01*
X125137117Y-93025537D01*
X124992228Y-93085552D01*
X124838414Y-93116148D01*
X124681586Y-93116148D01*
X124527772Y-93085552D01*
X124382883Y-93025537D01*
X124252485Y-92938408D01*
X124141592Y-92827515D01*
X124054463Y-92697117D01*
X123994448Y-92552228D01*
X123963852Y-92398414D01*
X123963852Y-92241586D01*
X123994448Y-92087772D01*
X124054463Y-91942883D01*
X124141592Y-91812485D01*
X124252485Y-91701592D01*
X124382883Y-91614463D01*
X124527772Y-91554448D01*
X124681586Y-91523852D01*
X124838414Y-91523852D01*
X124992228Y-91554448D01*
G37*
G36*
X140232228Y-91554448D02*
G01*
X140377117Y-91614463D01*
X140507515Y-91701592D01*
X140618408Y-91812485D01*
X140705537Y-91942883D01*
X140765552Y-92087772D01*
X140796148Y-92241586D01*
X140796148Y-92398414D01*
X140765552Y-92552228D01*
X140705537Y-92697117D01*
X140618408Y-92827515D01*
X140507515Y-92938408D01*
X140377117Y-93025537D01*
X140232228Y-93085552D01*
X140078414Y-93116148D01*
X139921586Y-93116148D01*
X139767772Y-93085552D01*
X139622883Y-93025537D01*
X139492485Y-92938408D01*
X139381592Y-92827515D01*
X139294463Y-92697117D01*
X139234448Y-92552228D01*
X139203852Y-92398414D01*
X139203852Y-92241586D01*
X139234448Y-92087772D01*
X139294463Y-91942883D01*
X139381592Y-91812485D01*
X139492485Y-91701592D01*
X139622883Y-91614463D01*
X139767772Y-91554448D01*
X139921586Y-91523852D01*
X140078414Y-91523852D01*
X140232228Y-91554448D01*
G37*
G36*
X124992228Y-89014448D02*
G01*
X125137117Y-89074463D01*
X125267515Y-89161592D01*
X125378408Y-89272485D01*
X125465537Y-89402883D01*
X125525552Y-89547772D01*
X125556148Y-89701586D01*
X125556148Y-89858414D01*
X125525552Y-90012228D01*
X125465537Y-90157117D01*
X125378408Y-90287515D01*
X125267515Y-90398408D01*
X125137117Y-90485537D01*
X124992228Y-90545552D01*
X124838414Y-90576148D01*
X124681586Y-90576148D01*
X124527772Y-90545552D01*
X124382883Y-90485537D01*
X124252485Y-90398408D01*
X124141592Y-90287515D01*
X124054463Y-90157117D01*
X123994448Y-90012228D01*
X123963852Y-89858414D01*
X123963852Y-89701586D01*
X123994448Y-89547772D01*
X124054463Y-89402883D01*
X124141592Y-89272485D01*
X124252485Y-89161592D01*
X124382883Y-89074463D01*
X124527772Y-89014448D01*
X124681586Y-88983852D01*
X124838414Y-88983852D01*
X124992228Y-89014448D01*
G37*
G36*
X140232228Y-89014448D02*
G01*
X140377117Y-89074463D01*
X140507515Y-89161592D01*
X140618408Y-89272485D01*
X140705537Y-89402883D01*
X140765552Y-89547772D01*
X140796148Y-89701586D01*
X140796148Y-89858414D01*
X140765552Y-90012228D01*
X140705537Y-90157117D01*
X140618408Y-90287515D01*
X140507515Y-90398408D01*
X140377117Y-90485537D01*
X140232228Y-90545552D01*
X140078414Y-90576148D01*
X139921586Y-90576148D01*
X139767772Y-90545552D01*
X139622883Y-90485537D01*
X139492485Y-90398408D01*
X139381592Y-90287515D01*
X139294463Y-90157117D01*
X139234448Y-90012228D01*
X139203852Y-89858414D01*
X139203852Y-89701586D01*
X139234448Y-89547772D01*
X139294463Y-89402883D01*
X139381592Y-89272485D01*
X139492485Y-89161592D01*
X139622883Y-89074463D01*
X139767772Y-89014448D01*
X139921586Y-88983852D01*
X140078414Y-88983852D01*
X140232228Y-89014448D01*
G37*
G36*
X178732228Y-86670234D02*
G01*
X178877117Y-86730249D01*
X179007515Y-86817378D01*
X179118408Y-86928271D01*
X179205537Y-87058669D01*
X179265552Y-87203558D01*
X179296148Y-87357372D01*
X179296148Y-87514200D01*
X179265552Y-87668014D01*
X179205537Y-87812903D01*
X179118408Y-87943301D01*
X179007515Y-88054194D01*
X178877117Y-88141323D01*
X178732228Y-88201338D01*
X178578414Y-88231934D01*
X178421586Y-88231934D01*
X178267772Y-88201338D01*
X178122883Y-88141323D01*
X177992485Y-88054194D01*
X177881592Y-87943301D01*
X177794463Y-87812903D01*
X177734448Y-87668014D01*
X177703852Y-87514200D01*
X177703852Y-87357372D01*
X177734448Y-87203558D01*
X177794463Y-87058669D01*
X177881592Y-86928271D01*
X177992485Y-86817378D01*
X178122883Y-86730249D01*
X178267772Y-86670234D01*
X178421586Y-86639638D01*
X178578414Y-86639638D01*
X178732228Y-86670234D01*
G37*
G36*
X124992228Y-86474448D02*
G01*
X125137117Y-86534463D01*
X125267515Y-86621592D01*
X125378408Y-86732485D01*
X125465537Y-86862883D01*
X125525552Y-87007772D01*
X125556148Y-87161586D01*
X125556148Y-87318414D01*
X125525552Y-87472228D01*
X125465537Y-87617117D01*
X125378408Y-87747515D01*
X125267515Y-87858408D01*
X125137117Y-87945537D01*
X124992228Y-88005552D01*
X124838414Y-88036148D01*
X124681586Y-88036148D01*
X124527772Y-88005552D01*
X124382883Y-87945537D01*
X124252485Y-87858408D01*
X124141592Y-87747515D01*
X124054463Y-87617117D01*
X123994448Y-87472228D01*
X123963852Y-87318414D01*
X123963852Y-87161586D01*
X123994448Y-87007772D01*
X124054463Y-86862883D01*
X124141592Y-86732485D01*
X124252485Y-86621592D01*
X124382883Y-86534463D01*
X124527772Y-86474448D01*
X124681586Y-86443852D01*
X124838414Y-86443852D01*
X124992228Y-86474448D01*
G37*
G36*
X140232228Y-86474448D02*
G01*
X140377117Y-86534463D01*
X140507515Y-86621592D01*
X140618408Y-86732485D01*
X140705537Y-86862883D01*
X140765552Y-87007772D01*
X140796148Y-87161586D01*
X140796148Y-87318414D01*
X140765552Y-87472228D01*
X140705537Y-87617117D01*
X140618408Y-87747515D01*
X140507515Y-87858408D01*
X140377117Y-87945537D01*
X140232228Y-88005552D01*
X140078414Y-88036148D01*
X139921586Y-88036148D01*
X139767772Y-88005552D01*
X139622883Y-87945537D01*
X139492485Y-87858408D01*
X139381592Y-87747515D01*
X139294463Y-87617117D01*
X139234448Y-87472228D01*
X139203852Y-87318414D01*
X139203852Y-87161586D01*
X139234448Y-87007772D01*
X139294463Y-86862883D01*
X139381592Y-86732485D01*
X139492485Y-86621592D01*
X139622883Y-86534463D01*
X139767772Y-86474448D01*
X139921586Y-86443852D01*
X140078414Y-86443852D01*
X140232228Y-86474448D01*
G37*
G36*
X179250000Y-85645786D02*
G01*
X177750000Y-85645786D01*
X177750000Y-84145786D01*
X179250000Y-84145786D01*
X179250000Y-85645786D01*
G37*
G36*
X124992228Y-83934448D02*
G01*
X125137117Y-83994463D01*
X125267515Y-84081592D01*
X125378408Y-84192485D01*
X125465537Y-84322883D01*
X125525552Y-84467772D01*
X125556148Y-84621586D01*
X125556148Y-84778414D01*
X125525552Y-84932228D01*
X125465537Y-85077117D01*
X125378408Y-85207515D01*
X125267515Y-85318408D01*
X125137117Y-85405537D01*
X124992228Y-85465552D01*
X124838414Y-85496148D01*
X124681586Y-85496148D01*
X124527772Y-85465552D01*
X124382883Y-85405537D01*
X124252485Y-85318408D01*
X124141592Y-85207515D01*
X124054463Y-85077117D01*
X123994448Y-84932228D01*
X123963852Y-84778414D01*
X123963852Y-84621586D01*
X123994448Y-84467772D01*
X124054463Y-84322883D01*
X124141592Y-84192485D01*
X124252485Y-84081592D01*
X124382883Y-83994463D01*
X124527772Y-83934448D01*
X124681586Y-83903852D01*
X124838414Y-83903852D01*
X124992228Y-83934448D01*
G37*
G36*
X140232228Y-83934448D02*
G01*
X140377117Y-83994463D01*
X140507515Y-84081592D01*
X140618408Y-84192485D01*
X140705537Y-84322883D01*
X140765552Y-84467772D01*
X140796148Y-84621586D01*
X140796148Y-84778414D01*
X140765552Y-84932228D01*
X140705537Y-85077117D01*
X140618408Y-85207515D01*
X140507515Y-85318408D01*
X140377117Y-85405537D01*
X140232228Y-85465552D01*
X140078414Y-85496148D01*
X139921586Y-85496148D01*
X139767772Y-85465552D01*
X139622883Y-85405537D01*
X139492485Y-85318408D01*
X139381592Y-85207515D01*
X139294463Y-85077117D01*
X139234448Y-84932228D01*
X139203852Y-84778414D01*
X139203852Y-84621586D01*
X139234448Y-84467772D01*
X139294463Y-84322883D01*
X139381592Y-84192485D01*
X139492485Y-84081592D01*
X139622883Y-83994463D01*
X139767772Y-83934448D01*
X139921586Y-83903852D01*
X140078414Y-83903852D01*
X140232228Y-83934448D01*
G37*
G36*
X178732228Y-81590234D02*
G01*
X178877117Y-81650249D01*
X179007515Y-81737378D01*
X179118408Y-81848271D01*
X179205537Y-81978669D01*
X179265552Y-82123558D01*
X179296148Y-82277372D01*
X179296148Y-82434200D01*
X179265552Y-82588014D01*
X179205537Y-82732903D01*
X179118408Y-82863301D01*
X179007515Y-82974194D01*
X178877117Y-83061323D01*
X178732228Y-83121338D01*
X178578414Y-83151934D01*
X178421586Y-83151934D01*
X178267772Y-83121338D01*
X178122883Y-83061323D01*
X177992485Y-82974194D01*
X177881592Y-82863301D01*
X177794463Y-82732903D01*
X177734448Y-82588014D01*
X177703852Y-82434200D01*
X177703852Y-82277372D01*
X177734448Y-82123558D01*
X177794463Y-81978669D01*
X177881592Y-81848271D01*
X177992485Y-81737378D01*
X178122883Y-81650249D01*
X178267772Y-81590234D01*
X178421586Y-81559638D01*
X178578414Y-81559638D01*
X178732228Y-81590234D01*
G37*
G36*
X124992228Y-81394448D02*
G01*
X125137117Y-81454463D01*
X125267515Y-81541592D01*
X125378408Y-81652485D01*
X125465537Y-81782883D01*
X125525552Y-81927772D01*
X125556148Y-82081586D01*
X125556148Y-82238414D01*
X125525552Y-82392228D01*
X125465537Y-82537117D01*
X125378408Y-82667515D01*
X125267515Y-82778408D01*
X125137117Y-82865537D01*
X124992228Y-82925552D01*
X124838414Y-82956148D01*
X124681586Y-82956148D01*
X124527772Y-82925552D01*
X124382883Y-82865537D01*
X124252485Y-82778408D01*
X124141592Y-82667515D01*
X124054463Y-82537117D01*
X123994448Y-82392228D01*
X123963852Y-82238414D01*
X123963852Y-82081586D01*
X123994448Y-81927772D01*
X124054463Y-81782883D01*
X124141592Y-81652485D01*
X124252485Y-81541592D01*
X124382883Y-81454463D01*
X124527772Y-81394448D01*
X124681586Y-81363852D01*
X124838414Y-81363852D01*
X124992228Y-81394448D01*
G37*
G36*
X140232228Y-81394448D02*
G01*
X140377117Y-81454463D01*
X140507515Y-81541592D01*
X140618408Y-81652485D01*
X140705537Y-81782883D01*
X140765552Y-81927772D01*
X140796148Y-82081586D01*
X140796148Y-82238414D01*
X140765552Y-82392228D01*
X140705537Y-82537117D01*
X140618408Y-82667515D01*
X140507515Y-82778408D01*
X140377117Y-82865537D01*
X140232228Y-82925552D01*
X140078414Y-82956148D01*
X139921586Y-82956148D01*
X139767772Y-82925552D01*
X139622883Y-82865537D01*
X139492485Y-82778408D01*
X139381592Y-82667515D01*
X139294463Y-82537117D01*
X139234448Y-82392228D01*
X139203852Y-82238414D01*
X139203852Y-82081586D01*
X139234448Y-81927772D01*
X139294463Y-81782883D01*
X139381592Y-81652485D01*
X139492485Y-81541592D01*
X139622883Y-81454463D01*
X139767772Y-81394448D01*
X139921586Y-81363852D01*
X140078414Y-81363852D01*
X140232228Y-81394448D01*
G37*
G36*
X124992228Y-78854448D02*
G01*
X125137117Y-78914463D01*
X125267515Y-79001592D01*
X125378408Y-79112485D01*
X125465537Y-79242883D01*
X125525552Y-79387772D01*
X125556148Y-79541586D01*
X125556148Y-79698414D01*
X125525552Y-79852228D01*
X125465537Y-79997117D01*
X125378408Y-80127515D01*
X125267515Y-80238408D01*
X125137117Y-80325537D01*
X124992228Y-80385552D01*
X124838414Y-80416148D01*
X124681586Y-80416148D01*
X124527772Y-80385552D01*
X124382883Y-80325537D01*
X124252485Y-80238408D01*
X124141592Y-80127515D01*
X124054463Y-79997117D01*
X123994448Y-79852228D01*
X123963852Y-79698414D01*
X123963852Y-79541586D01*
X123994448Y-79387772D01*
X124054463Y-79242883D01*
X124141592Y-79112485D01*
X124252485Y-79001592D01*
X124382883Y-78914463D01*
X124527772Y-78854448D01*
X124681586Y-78823852D01*
X124838414Y-78823852D01*
X124992228Y-78854448D01*
G37*
G36*
X140232228Y-78854448D02*
G01*
X140377117Y-78914463D01*
X140507515Y-79001592D01*
X140618408Y-79112485D01*
X140705537Y-79242883D01*
X140765552Y-79387772D01*
X140796148Y-79541586D01*
X140796148Y-79698414D01*
X140765552Y-79852228D01*
X140705537Y-79997117D01*
X140618408Y-80127515D01*
X140507515Y-80238408D01*
X140377117Y-80325537D01*
X140232228Y-80385552D01*
X140078414Y-80416148D01*
X139921586Y-80416148D01*
X139767772Y-80385552D01*
X139622883Y-80325537D01*
X139492485Y-80238408D01*
X139381592Y-80127515D01*
X139294463Y-79997117D01*
X139234448Y-79852228D01*
X139203852Y-79698414D01*
X139203852Y-79541586D01*
X139234448Y-79387772D01*
X139294463Y-79242883D01*
X139381592Y-79112485D01*
X139492485Y-79001592D01*
X139622883Y-78914463D01*
X139767772Y-78854448D01*
X139921586Y-78823852D01*
X140078414Y-78823852D01*
X140232228Y-78854448D01*
G37*
G36*
X124992228Y-76314448D02*
G01*
X125137117Y-76374463D01*
X125267515Y-76461592D01*
X125378408Y-76572485D01*
X125465537Y-76702883D01*
X125525552Y-76847772D01*
X125556148Y-77001586D01*
X125556148Y-77158414D01*
X125525552Y-77312228D01*
X125465537Y-77457117D01*
X125378408Y-77587515D01*
X125267515Y-77698408D01*
X125137117Y-77785537D01*
X124992228Y-77845552D01*
X124838414Y-77876148D01*
X124681586Y-77876148D01*
X124527772Y-77845552D01*
X124382883Y-77785537D01*
X124252485Y-77698408D01*
X124141592Y-77587515D01*
X124054463Y-77457117D01*
X123994448Y-77312228D01*
X123963852Y-77158414D01*
X123963852Y-77001586D01*
X123994448Y-76847772D01*
X124054463Y-76702883D01*
X124141592Y-76572485D01*
X124252485Y-76461592D01*
X124382883Y-76374463D01*
X124527772Y-76314448D01*
X124681586Y-76283852D01*
X124838414Y-76283852D01*
X124992228Y-76314448D01*
G37*
G36*
X140232228Y-76314448D02*
G01*
X140377117Y-76374463D01*
X140507515Y-76461592D01*
X140618408Y-76572485D01*
X140705537Y-76702883D01*
X140765552Y-76847772D01*
X140796148Y-77001586D01*
X140796148Y-77158414D01*
X140765552Y-77312228D01*
X140705537Y-77457117D01*
X140618408Y-77587515D01*
X140507515Y-77698408D01*
X140377117Y-77785537D01*
X140232228Y-77845552D01*
X140078414Y-77876148D01*
X139921586Y-77876148D01*
X139767772Y-77845552D01*
X139622883Y-77785537D01*
X139492485Y-77698408D01*
X139381592Y-77587515D01*
X139294463Y-77457117D01*
X139234448Y-77312228D01*
X139203852Y-77158414D01*
X139203852Y-77001586D01*
X139234448Y-76847772D01*
X139294463Y-76702883D01*
X139381592Y-76572485D01*
X139492485Y-76461592D01*
X139622883Y-76374463D01*
X139767772Y-76314448D01*
X139921586Y-76283852D01*
X140078414Y-76283852D01*
X140232228Y-76314448D01*
G37*
G36*
X124992228Y-73774448D02*
G01*
X125137117Y-73834463D01*
X125267515Y-73921592D01*
X125378408Y-74032485D01*
X125465537Y-74162883D01*
X125525552Y-74307772D01*
X125556148Y-74461586D01*
X125556148Y-74618414D01*
X125525552Y-74772228D01*
X125465537Y-74917117D01*
X125378408Y-75047515D01*
X125267515Y-75158408D01*
X125137117Y-75245537D01*
X124992228Y-75305552D01*
X124838414Y-75336148D01*
X124681586Y-75336148D01*
X124527772Y-75305552D01*
X124382883Y-75245537D01*
X124252485Y-75158408D01*
X124141592Y-75047515D01*
X124054463Y-74917117D01*
X123994448Y-74772228D01*
X123963852Y-74618414D01*
X123963852Y-74461586D01*
X123994448Y-74307772D01*
X124054463Y-74162883D01*
X124141592Y-74032485D01*
X124252485Y-73921592D01*
X124382883Y-73834463D01*
X124527772Y-73774448D01*
X124681586Y-73743852D01*
X124838414Y-73743852D01*
X124992228Y-73774448D01*
G37*
G36*
X140232228Y-73774448D02*
G01*
X140377117Y-73834463D01*
X140507515Y-73921592D01*
X140618408Y-74032485D01*
X140705537Y-74162883D01*
X140765552Y-74307772D01*
X140796148Y-74461586D01*
X140796148Y-74618414D01*
X140765552Y-74772228D01*
X140705537Y-74917117D01*
X140618408Y-75047515D01*
X140507515Y-75158408D01*
X140377117Y-75245537D01*
X140232228Y-75305552D01*
X140078414Y-75336148D01*
X139921586Y-75336148D01*
X139767772Y-75305552D01*
X139622883Y-75245537D01*
X139492485Y-75158408D01*
X139381592Y-75047515D01*
X139294463Y-74917117D01*
X139234448Y-74772228D01*
X139203852Y-74618414D01*
X139203852Y-74461586D01*
X139234448Y-74307772D01*
X139294463Y-74162883D01*
X139381592Y-74032485D01*
X139492485Y-73921592D01*
X139622883Y-73834463D01*
X139767772Y-73774448D01*
X139921586Y-73743852D01*
X140078414Y-73743852D01*
X140232228Y-73774448D01*
G37*
G36*
X124992228Y-71234448D02*
G01*
X125137117Y-71294463D01*
X125267515Y-71381592D01*
X125378408Y-71492485D01*
X125465537Y-71622883D01*
X125525552Y-71767772D01*
X125556148Y-71921586D01*
X125556148Y-72078414D01*
X125525552Y-72232228D01*
X125465537Y-72377117D01*
X125378408Y-72507515D01*
X125267515Y-72618408D01*
X125137117Y-72705537D01*
X124992228Y-72765552D01*
X124838414Y-72796148D01*
X124681586Y-72796148D01*
X124527772Y-72765552D01*
X124382883Y-72705537D01*
X124252485Y-72618408D01*
X124141592Y-72507515D01*
X124054463Y-72377117D01*
X123994448Y-72232228D01*
X123963852Y-72078414D01*
X123963852Y-71921586D01*
X123994448Y-71767772D01*
X124054463Y-71622883D01*
X124141592Y-71492485D01*
X124252485Y-71381592D01*
X124382883Y-71294463D01*
X124527772Y-71234448D01*
X124681586Y-71203852D01*
X124838414Y-71203852D01*
X124992228Y-71234448D01*
G37*
G36*
X140232228Y-71234448D02*
G01*
X140377117Y-71294463D01*
X140507515Y-71381592D01*
X140618408Y-71492485D01*
X140705537Y-71622883D01*
X140765552Y-71767772D01*
X140796148Y-71921586D01*
X140796148Y-72078414D01*
X140765552Y-72232228D01*
X140705537Y-72377117D01*
X140618408Y-72507515D01*
X140507515Y-72618408D01*
X140377117Y-72705537D01*
X140232228Y-72765552D01*
X140078414Y-72796148D01*
X139921586Y-72796148D01*
X139767772Y-72765552D01*
X139622883Y-72705537D01*
X139492485Y-72618408D01*
X139381592Y-72507515D01*
X139294463Y-72377117D01*
X139234448Y-72232228D01*
X139203852Y-72078414D01*
X139203852Y-71921586D01*
X139234448Y-71767772D01*
X139294463Y-71622883D01*
X139381592Y-71492485D01*
X139492485Y-71381592D01*
X139622883Y-71294463D01*
X139767772Y-71234448D01*
X139921586Y-71203852D01*
X140078414Y-71203852D01*
X140232228Y-71234448D01*
G37*
G36*
X124992228Y-68694448D02*
G01*
X125137117Y-68754463D01*
X125267515Y-68841592D01*
X125378408Y-68952485D01*
X125465537Y-69082883D01*
X125525552Y-69227772D01*
X125556148Y-69381586D01*
X125556148Y-69538414D01*
X125525552Y-69692228D01*
X125465537Y-69837117D01*
X125378408Y-69967515D01*
X125267515Y-70078408D01*
X125137117Y-70165537D01*
X124992228Y-70225552D01*
X124838414Y-70256148D01*
X124681586Y-70256148D01*
X124527772Y-70225552D01*
X124382883Y-70165537D01*
X124252485Y-70078408D01*
X124141592Y-69967515D01*
X124054463Y-69837117D01*
X123994448Y-69692228D01*
X123963852Y-69538414D01*
X123963852Y-69381586D01*
X123994448Y-69227772D01*
X124054463Y-69082883D01*
X124141592Y-68952485D01*
X124252485Y-68841592D01*
X124382883Y-68754463D01*
X124527772Y-68694448D01*
X124681586Y-68663852D01*
X124838414Y-68663852D01*
X124992228Y-68694448D01*
G37*
G36*
X140232228Y-68694448D02*
G01*
X140377117Y-68754463D01*
X140507515Y-68841592D01*
X140618408Y-68952485D01*
X140705537Y-69082883D01*
X140765552Y-69227772D01*
X140796148Y-69381586D01*
X140796148Y-69538414D01*
X140765552Y-69692228D01*
X140705537Y-69837117D01*
X140618408Y-69967515D01*
X140507515Y-70078408D01*
X140377117Y-70165537D01*
X140232228Y-70225552D01*
X140078414Y-70256148D01*
X139921586Y-70256148D01*
X139767772Y-70225552D01*
X139622883Y-70165537D01*
X139492485Y-70078408D01*
X139381592Y-69967515D01*
X139294463Y-69837117D01*
X139234448Y-69692228D01*
X139203852Y-69538414D01*
X139203852Y-69381586D01*
X139234448Y-69227772D01*
X139294463Y-69082883D01*
X139381592Y-68952485D01*
X139492485Y-68841592D01*
X139622883Y-68754463D01*
X139767772Y-68694448D01*
X139921586Y-68663852D01*
X140078414Y-68663852D01*
X140232228Y-68694448D01*
G37*
G36*
X124992228Y-66154448D02*
G01*
X125137117Y-66214463D01*
X125267515Y-66301592D01*
X125378408Y-66412485D01*
X125465537Y-66542883D01*
X125525552Y-66687772D01*
X125556148Y-66841586D01*
X125556148Y-66998414D01*
X125525552Y-67152228D01*
X125465537Y-67297117D01*
X125378408Y-67427515D01*
X125267515Y-67538408D01*
X125137117Y-67625537D01*
X124992228Y-67685552D01*
X124838414Y-67716148D01*
X124681586Y-67716148D01*
X124527772Y-67685552D01*
X124382883Y-67625537D01*
X124252485Y-67538408D01*
X124141592Y-67427515D01*
X124054463Y-67297117D01*
X123994448Y-67152228D01*
X123963852Y-66998414D01*
X123963852Y-66841586D01*
X123994448Y-66687772D01*
X124054463Y-66542883D01*
X124141592Y-66412485D01*
X124252485Y-66301592D01*
X124382883Y-66214463D01*
X124527772Y-66154448D01*
X124681586Y-66123852D01*
X124838414Y-66123852D01*
X124992228Y-66154448D01*
G37*
G36*
X140232228Y-66154448D02*
G01*
X140377117Y-66214463D01*
X140507515Y-66301592D01*
X140618408Y-66412485D01*
X140705537Y-66542883D01*
X140765552Y-66687772D01*
X140796148Y-66841586D01*
X140796148Y-66998414D01*
X140765552Y-67152228D01*
X140705537Y-67297117D01*
X140618408Y-67427515D01*
X140507515Y-67538408D01*
X140377117Y-67625537D01*
X140232228Y-67685552D01*
X140078414Y-67716148D01*
X139921586Y-67716148D01*
X139767772Y-67685552D01*
X139622883Y-67625537D01*
X139492485Y-67538408D01*
X139381592Y-67427515D01*
X139294463Y-67297117D01*
X139234448Y-67152228D01*
X139203852Y-66998414D01*
X139203852Y-66841586D01*
X139234448Y-66687772D01*
X139294463Y-66542883D01*
X139381592Y-66412485D01*
X139492485Y-66301592D01*
X139622883Y-66214463D01*
X139767772Y-66154448D01*
X139921586Y-66123852D01*
X140078414Y-66123852D01*
X140232228Y-66154448D01*
G37*
G36*
X168920000Y-66615786D02*
G01*
X167380000Y-66615786D01*
X167380000Y-65075786D01*
X168920000Y-65075786D01*
X168920000Y-66615786D01*
G37*
G36*
X150593519Y-65108942D02*
G01*
X150732975Y-65166707D01*
X150858483Y-65250568D01*
X150965218Y-65357303D01*
X151049079Y-65482811D01*
X151106844Y-65622267D01*
X151136292Y-65770313D01*
X151136292Y-65921259D01*
X151106844Y-66069305D01*
X151049079Y-66208761D01*
X150965218Y-66334269D01*
X150858483Y-66441004D01*
X150732975Y-66524865D01*
X150593519Y-66582630D01*
X150445473Y-66612078D01*
X150294527Y-66612078D01*
X150146481Y-66582630D01*
X150007025Y-66524865D01*
X149881517Y-66441004D01*
X149774782Y-66334269D01*
X149690921Y-66208761D01*
X149633156Y-66069305D01*
X149603708Y-65921259D01*
X149603708Y-65770313D01*
X149633156Y-65622267D01*
X149690921Y-65482811D01*
X149774782Y-65357303D01*
X149881517Y-65250568D01*
X150007025Y-65166707D01*
X150146481Y-65108942D01*
X150294527Y-65079494D01*
X150445473Y-65079494D01*
X150593519Y-65108942D01*
G37*
G36*
X153133519Y-65108942D02*
G01*
X153272975Y-65166707D01*
X153398483Y-65250568D01*
X153505218Y-65357303D01*
X153589079Y-65482811D01*
X153646844Y-65622267D01*
X153676292Y-65770313D01*
X153676292Y-65921259D01*
X153646844Y-66069305D01*
X153589079Y-66208761D01*
X153505218Y-66334269D01*
X153398483Y-66441004D01*
X153272975Y-66524865D01*
X153133519Y-66582630D01*
X152985473Y-66612078D01*
X152834527Y-66612078D01*
X152686481Y-66582630D01*
X152547025Y-66524865D01*
X152421517Y-66441004D01*
X152314782Y-66334269D01*
X152230921Y-66208761D01*
X152173156Y-66069305D01*
X152143708Y-65921259D01*
X152143708Y-65770313D01*
X152173156Y-65622267D01*
X152230921Y-65482811D01*
X152314782Y-65357303D01*
X152421517Y-65250568D01*
X152547025Y-65166707D01*
X152686481Y-65108942D01*
X152834527Y-65079494D01*
X152985473Y-65079494D01*
X153133519Y-65108942D01*
G37*
G36*
X155673519Y-65108942D02*
G01*
X155812975Y-65166707D01*
X155938483Y-65250568D01*
X156045218Y-65357303D01*
X156129079Y-65482811D01*
X156186844Y-65622267D01*
X156216292Y-65770313D01*
X156216292Y-65921259D01*
X156186844Y-66069305D01*
X156129079Y-66208761D01*
X156045218Y-66334269D01*
X155938483Y-66441004D01*
X155812975Y-66524865D01*
X155673519Y-66582630D01*
X155525473Y-66612078D01*
X155374527Y-66612078D01*
X155226481Y-66582630D01*
X155087025Y-66524865D01*
X154961517Y-66441004D01*
X154854782Y-66334269D01*
X154770921Y-66208761D01*
X154713156Y-66069305D01*
X154683708Y-65921259D01*
X154683708Y-65770313D01*
X154713156Y-65622267D01*
X154770921Y-65482811D01*
X154854782Y-65357303D01*
X154961517Y-65250568D01*
X155087025Y-65166707D01*
X155226481Y-65108942D01*
X155374527Y-65079494D01*
X155525473Y-65079494D01*
X155673519Y-65108942D01*
G37*
G36*
X158213519Y-65108942D02*
G01*
X158352975Y-65166707D01*
X158478483Y-65250568D01*
X158585218Y-65357303D01*
X158669079Y-65482811D01*
X158726844Y-65622267D01*
X158756292Y-65770313D01*
X158756292Y-65921259D01*
X158726844Y-66069305D01*
X158669079Y-66208761D01*
X158585218Y-66334269D01*
X158478483Y-66441004D01*
X158352975Y-66524865D01*
X158213519Y-66582630D01*
X158065473Y-66612078D01*
X157914527Y-66612078D01*
X157766481Y-66582630D01*
X157627025Y-66524865D01*
X157501517Y-66441004D01*
X157394782Y-66334269D01*
X157310921Y-66208761D01*
X157253156Y-66069305D01*
X157223708Y-65921259D01*
X157223708Y-65770313D01*
X157253156Y-65622267D01*
X157310921Y-65482811D01*
X157394782Y-65357303D01*
X157501517Y-65250568D01*
X157627025Y-65166707D01*
X157766481Y-65108942D01*
X157914527Y-65079494D01*
X158065473Y-65079494D01*
X158213519Y-65108942D01*
G37*
G36*
X160753519Y-65108942D02*
G01*
X160892975Y-65166707D01*
X161018483Y-65250568D01*
X161125218Y-65357303D01*
X161209079Y-65482811D01*
X161266844Y-65622267D01*
X161296292Y-65770313D01*
X161296292Y-65921259D01*
X161266844Y-66069305D01*
X161209079Y-66208761D01*
X161125218Y-66334269D01*
X161018483Y-66441004D01*
X160892975Y-66524865D01*
X160753519Y-66582630D01*
X160605473Y-66612078D01*
X160454527Y-66612078D01*
X160306481Y-66582630D01*
X160167025Y-66524865D01*
X160041517Y-66441004D01*
X159934782Y-66334269D01*
X159850921Y-66208761D01*
X159793156Y-66069305D01*
X159763708Y-65921259D01*
X159763708Y-65770313D01*
X159793156Y-65622267D01*
X159850921Y-65482811D01*
X159934782Y-65357303D01*
X160041517Y-65250568D01*
X160167025Y-65166707D01*
X160306481Y-65108942D01*
X160454527Y-65079494D01*
X160605473Y-65079494D01*
X160753519Y-65108942D01*
G37*
G36*
X163293519Y-65108942D02*
G01*
X163432975Y-65166707D01*
X163558483Y-65250568D01*
X163665218Y-65357303D01*
X163749079Y-65482811D01*
X163806844Y-65622267D01*
X163836292Y-65770313D01*
X163836292Y-65921259D01*
X163806844Y-66069305D01*
X163749079Y-66208761D01*
X163665218Y-66334269D01*
X163558483Y-66441004D01*
X163432975Y-66524865D01*
X163293519Y-66582630D01*
X163145473Y-66612078D01*
X162994527Y-66612078D01*
X162846481Y-66582630D01*
X162707025Y-66524865D01*
X162581517Y-66441004D01*
X162474782Y-66334269D01*
X162390921Y-66208761D01*
X162333156Y-66069305D01*
X162303708Y-65921259D01*
X162303708Y-65770313D01*
X162333156Y-65622267D01*
X162390921Y-65482811D01*
X162474782Y-65357303D01*
X162581517Y-65250568D01*
X162707025Y-65166707D01*
X162846481Y-65108942D01*
X162994527Y-65079494D01*
X163145473Y-65079494D01*
X163293519Y-65108942D01*
G37*
G36*
X165833519Y-65108942D02*
G01*
X165972975Y-65166707D01*
X166098483Y-65250568D01*
X166205218Y-65357303D01*
X166289079Y-65482811D01*
X166346844Y-65622267D01*
X166376292Y-65770313D01*
X166376292Y-65921259D01*
X166346844Y-66069305D01*
X166289079Y-66208761D01*
X166205218Y-66334269D01*
X166098483Y-66441004D01*
X165972975Y-66524865D01*
X165833519Y-66582630D01*
X165685473Y-66612078D01*
X165534527Y-66612078D01*
X165386481Y-66582630D01*
X165247025Y-66524865D01*
X165121517Y-66441004D01*
X165014782Y-66334269D01*
X164930921Y-66208761D01*
X164873156Y-66069305D01*
X164843708Y-65921259D01*
X164843708Y-65770313D01*
X164873156Y-65622267D01*
X164930921Y-65482811D01*
X165014782Y-65357303D01*
X165121517Y-65250568D01*
X165247025Y-65166707D01*
X165386481Y-65108942D01*
X165534527Y-65079494D01*
X165685473Y-65079494D01*
X165833519Y-65108942D01*
G37*
M02*
