G04 #@! TF.GenerationSoftware,KiCad,Pcbnew,9.0.2*
G04 #@! TF.CreationDate,2025-07-27T14:28:18-07:00*
G04 #@! TF.ProjectId,PortableWeatherStation,506f7274-6162-46c6-9557-656174686572,rev?*
G04 #@! TF.SameCoordinates,Original*
G04 #@! TF.FileFunction,Legend,Top*
G04 #@! TF.FilePolarity,Positive*
%FSLAX46Y46*%
G04 Gerber Fmt 4.6, Leading zero omitted, Abs format (unit mm)*
G04 Created by KiCad (PCBNEW 9.0.2) date 2025-07-27 14:28:18*
%MOMM*%
%LPD*%
G01*
G04 APERTURE LIST*
%ADD10C,0.150000*%
%ADD11C,0.100000*%
%ADD12C,0.120000*%
%ADD13C,0.000000*%
G04 APERTURE END LIST*
D10*
X173222493Y-125603152D02*
X172984398Y-125603152D01*
X172984398Y-125603152D02*
X172984398Y-124174580D01*
X172984398Y-124174580D02*
X173222493Y-124174580D01*
X173936779Y-124746009D02*
X174079636Y-124793628D01*
X174079636Y-124793628D02*
X174127255Y-124841247D01*
X174127255Y-124841247D02*
X174174874Y-124936485D01*
X174174874Y-124936485D02*
X174174874Y-125079342D01*
X174174874Y-125079342D02*
X174127255Y-125174580D01*
X174127255Y-125174580D02*
X174079636Y-125222200D01*
X174079636Y-125222200D02*
X173984398Y-125269819D01*
X173984398Y-125269819D02*
X173603446Y-125269819D01*
X173603446Y-125269819D02*
X173603446Y-124269819D01*
X173603446Y-124269819D02*
X173936779Y-124269819D01*
X173936779Y-124269819D02*
X174032017Y-124317438D01*
X174032017Y-124317438D02*
X174079636Y-124365057D01*
X174079636Y-124365057D02*
X174127255Y-124460295D01*
X174127255Y-124460295D02*
X174127255Y-124555533D01*
X174127255Y-124555533D02*
X174079636Y-124650771D01*
X174079636Y-124650771D02*
X174032017Y-124698390D01*
X174032017Y-124698390D02*
X173936779Y-124746009D01*
X173936779Y-124746009D02*
X173603446Y-124746009D01*
X174603446Y-125269819D02*
X174603446Y-124269819D01*
X174603446Y-124269819D02*
X174841541Y-124269819D01*
X174841541Y-124269819D02*
X174984398Y-124317438D01*
X174984398Y-124317438D02*
X175079636Y-124412676D01*
X175079636Y-124412676D02*
X175127255Y-124507914D01*
X175127255Y-124507914D02*
X175174874Y-124698390D01*
X175174874Y-124698390D02*
X175174874Y-124841247D01*
X175174874Y-124841247D02*
X175127255Y-125031723D01*
X175127255Y-125031723D02*
X175079636Y-125126961D01*
X175079636Y-125126961D02*
X174984398Y-125222200D01*
X174984398Y-125222200D02*
X174841541Y-125269819D01*
X174841541Y-125269819D02*
X174603446Y-125269819D01*
X175508208Y-125603152D02*
X175746303Y-125603152D01*
X175746303Y-125603152D02*
X175746303Y-124174580D01*
X175746303Y-124174580D02*
X175508208Y-124174580D01*
X169922493Y-120669819D02*
X169922493Y-121384104D01*
X169922493Y-121384104D02*
X169874874Y-121526961D01*
X169874874Y-121526961D02*
X169779636Y-121622200D01*
X169779636Y-121622200D02*
X169636779Y-121669819D01*
X169636779Y-121669819D02*
X169541541Y-121669819D01*
X170827255Y-121003152D02*
X170827255Y-121669819D01*
X170398684Y-121003152D02*
X170398684Y-121526961D01*
X170398684Y-121526961D02*
X170446303Y-121622200D01*
X170446303Y-121622200D02*
X170541541Y-121669819D01*
X170541541Y-121669819D02*
X170684398Y-121669819D01*
X170684398Y-121669819D02*
X170779636Y-121622200D01*
X170779636Y-121622200D02*
X170827255Y-121574580D01*
X171446303Y-121669819D02*
X171351065Y-121622200D01*
X171351065Y-121622200D02*
X171303446Y-121526961D01*
X171303446Y-121526961D02*
X171303446Y-120669819D01*
X171732018Y-121003152D02*
X171970113Y-121669819D01*
X172208208Y-121003152D02*
X171970113Y-121669819D01*
X171970113Y-121669819D02*
X171874875Y-121907914D01*
X171874875Y-121907914D02*
X171827256Y-121955533D01*
X171827256Y-121955533D02*
X171732018Y-122003152D01*
X172827256Y-122003152D02*
X172827256Y-120574580D01*
X173493923Y-120765057D02*
X173541542Y-120717438D01*
X173541542Y-120717438D02*
X173636780Y-120669819D01*
X173636780Y-120669819D02*
X173874875Y-120669819D01*
X173874875Y-120669819D02*
X173970113Y-120717438D01*
X173970113Y-120717438D02*
X174017732Y-120765057D01*
X174017732Y-120765057D02*
X174065351Y-120860295D01*
X174065351Y-120860295D02*
X174065351Y-120955533D01*
X174065351Y-120955533D02*
X174017732Y-121098390D01*
X174017732Y-121098390D02*
X173446304Y-121669819D01*
X173446304Y-121669819D02*
X174065351Y-121669819D01*
X174398685Y-120669819D02*
X175065351Y-120669819D01*
X175065351Y-120669819D02*
X174636780Y-121669819D01*
X175684399Y-122003152D02*
X175684399Y-120574580D01*
X176351066Y-120765057D02*
X176398685Y-120717438D01*
X176398685Y-120717438D02*
X176493923Y-120669819D01*
X176493923Y-120669819D02*
X176732018Y-120669819D01*
X176732018Y-120669819D02*
X176827256Y-120717438D01*
X176827256Y-120717438D02*
X176874875Y-120765057D01*
X176874875Y-120765057D02*
X176922494Y-120860295D01*
X176922494Y-120860295D02*
X176922494Y-120955533D01*
X176922494Y-120955533D02*
X176874875Y-121098390D01*
X176874875Y-121098390D02*
X176303447Y-121669819D01*
X176303447Y-121669819D02*
X176922494Y-121669819D01*
X177541542Y-120669819D02*
X177636780Y-120669819D01*
X177636780Y-120669819D02*
X177732018Y-120717438D01*
X177732018Y-120717438D02*
X177779637Y-120765057D01*
X177779637Y-120765057D02*
X177827256Y-120860295D01*
X177827256Y-120860295D02*
X177874875Y-121050771D01*
X177874875Y-121050771D02*
X177874875Y-121288866D01*
X177874875Y-121288866D02*
X177827256Y-121479342D01*
X177827256Y-121479342D02*
X177779637Y-121574580D01*
X177779637Y-121574580D02*
X177732018Y-121622200D01*
X177732018Y-121622200D02*
X177636780Y-121669819D01*
X177636780Y-121669819D02*
X177541542Y-121669819D01*
X177541542Y-121669819D02*
X177446304Y-121622200D01*
X177446304Y-121622200D02*
X177398685Y-121574580D01*
X177398685Y-121574580D02*
X177351066Y-121479342D01*
X177351066Y-121479342D02*
X177303447Y-121288866D01*
X177303447Y-121288866D02*
X177303447Y-121050771D01*
X177303447Y-121050771D02*
X177351066Y-120860295D01*
X177351066Y-120860295D02*
X177398685Y-120765057D01*
X177398685Y-120765057D02*
X177446304Y-120717438D01*
X177446304Y-120717438D02*
X177541542Y-120669819D01*
X178255828Y-120765057D02*
X178303447Y-120717438D01*
X178303447Y-120717438D02*
X178398685Y-120669819D01*
X178398685Y-120669819D02*
X178636780Y-120669819D01*
X178636780Y-120669819D02*
X178732018Y-120717438D01*
X178732018Y-120717438D02*
X178779637Y-120765057D01*
X178779637Y-120765057D02*
X178827256Y-120860295D01*
X178827256Y-120860295D02*
X178827256Y-120955533D01*
X178827256Y-120955533D02*
X178779637Y-121098390D01*
X178779637Y-121098390D02*
X178208209Y-121669819D01*
X178208209Y-121669819D02*
X178827256Y-121669819D01*
X179732018Y-120669819D02*
X179255828Y-120669819D01*
X179255828Y-120669819D02*
X179208209Y-121146009D01*
X179208209Y-121146009D02*
X179255828Y-121098390D01*
X179255828Y-121098390D02*
X179351066Y-121050771D01*
X179351066Y-121050771D02*
X179589161Y-121050771D01*
X179589161Y-121050771D02*
X179684399Y-121098390D01*
X179684399Y-121098390D02*
X179732018Y-121146009D01*
X179732018Y-121146009D02*
X179779637Y-121241247D01*
X179779637Y-121241247D02*
X179779637Y-121479342D01*
X179779637Y-121479342D02*
X179732018Y-121574580D01*
X179732018Y-121574580D02*
X179684399Y-121622200D01*
X179684399Y-121622200D02*
X179589161Y-121669819D01*
X179589161Y-121669819D02*
X179351066Y-121669819D01*
X179351066Y-121669819D02*
X179255828Y-121622200D01*
X179255828Y-121622200D02*
X179208209Y-121574580D01*
X127289160Y-89184104D02*
X127765350Y-89184104D01*
X127193922Y-89469819D02*
X127527255Y-88469819D01*
X127527255Y-88469819D02*
X127860588Y-89469819D01*
X128193922Y-89469819D02*
X128193922Y-88803152D01*
X128193922Y-88993628D02*
X128241541Y-88898390D01*
X128241541Y-88898390D02*
X128289160Y-88850771D01*
X128289160Y-88850771D02*
X128384398Y-88803152D01*
X128384398Y-88803152D02*
X128479636Y-88803152D01*
X129241541Y-89469819D02*
X129241541Y-88469819D01*
X129241541Y-89422200D02*
X129146303Y-89469819D01*
X129146303Y-89469819D02*
X128955827Y-89469819D01*
X128955827Y-89469819D02*
X128860589Y-89422200D01*
X128860589Y-89422200D02*
X128812970Y-89374580D01*
X128812970Y-89374580D02*
X128765351Y-89279342D01*
X128765351Y-89279342D02*
X128765351Y-88993628D01*
X128765351Y-88993628D02*
X128812970Y-88898390D01*
X128812970Y-88898390D02*
X128860589Y-88850771D01*
X128860589Y-88850771D02*
X128955827Y-88803152D01*
X128955827Y-88803152D02*
X129146303Y-88803152D01*
X129146303Y-88803152D02*
X129241541Y-88850771D01*
X130146303Y-88803152D02*
X130146303Y-89469819D01*
X129717732Y-88803152D02*
X129717732Y-89326961D01*
X129717732Y-89326961D02*
X129765351Y-89422200D01*
X129765351Y-89422200D02*
X129860589Y-89469819D01*
X129860589Y-89469819D02*
X130003446Y-89469819D01*
X130003446Y-89469819D02*
X130098684Y-89422200D01*
X130098684Y-89422200D02*
X130146303Y-89374580D01*
X130622494Y-89469819D02*
X130622494Y-88803152D01*
X130622494Y-88469819D02*
X130574875Y-88517438D01*
X130574875Y-88517438D02*
X130622494Y-88565057D01*
X130622494Y-88565057D02*
X130670113Y-88517438D01*
X130670113Y-88517438D02*
X130622494Y-88469819D01*
X130622494Y-88469819D02*
X130622494Y-88565057D01*
X131098684Y-88803152D02*
X131098684Y-89469819D01*
X131098684Y-88898390D02*
X131146303Y-88850771D01*
X131146303Y-88850771D02*
X131241541Y-88803152D01*
X131241541Y-88803152D02*
X131384398Y-88803152D01*
X131384398Y-88803152D02*
X131479636Y-88850771D01*
X131479636Y-88850771D02*
X131527255Y-88946009D01*
X131527255Y-88946009D02*
X131527255Y-89469819D01*
X132146303Y-89469819D02*
X132051065Y-89422200D01*
X132051065Y-89422200D02*
X132003446Y-89374580D01*
X132003446Y-89374580D02*
X131955827Y-89279342D01*
X131955827Y-89279342D02*
X131955827Y-88993628D01*
X131955827Y-88993628D02*
X132003446Y-88898390D01*
X132003446Y-88898390D02*
X132051065Y-88850771D01*
X132051065Y-88850771D02*
X132146303Y-88803152D01*
X132146303Y-88803152D02*
X132289160Y-88803152D01*
X132289160Y-88803152D02*
X132384398Y-88850771D01*
X132384398Y-88850771D02*
X132432017Y-88898390D01*
X132432017Y-88898390D02*
X132479636Y-88993628D01*
X132479636Y-88993628D02*
X132479636Y-89279342D01*
X132479636Y-89279342D02*
X132432017Y-89374580D01*
X132432017Y-89374580D02*
X132384398Y-89422200D01*
X132384398Y-89422200D02*
X132289160Y-89469819D01*
X132289160Y-89469819D02*
X132146303Y-89469819D01*
X132908208Y-89088866D02*
X133670113Y-89088866D01*
X134146303Y-89469819D02*
X134146303Y-88469819D01*
X134146303Y-88469819D02*
X134717731Y-89469819D01*
X134717731Y-89469819D02*
X134717731Y-88469819D01*
X135622493Y-89469819D02*
X135622493Y-88946009D01*
X135622493Y-88946009D02*
X135574874Y-88850771D01*
X135574874Y-88850771D02*
X135479636Y-88803152D01*
X135479636Y-88803152D02*
X135289160Y-88803152D01*
X135289160Y-88803152D02*
X135193922Y-88850771D01*
X135622493Y-89422200D02*
X135527255Y-89469819D01*
X135527255Y-89469819D02*
X135289160Y-89469819D01*
X135289160Y-89469819D02*
X135193922Y-89422200D01*
X135193922Y-89422200D02*
X135146303Y-89326961D01*
X135146303Y-89326961D02*
X135146303Y-89231723D01*
X135146303Y-89231723D02*
X135193922Y-89136485D01*
X135193922Y-89136485D02*
X135289160Y-89088866D01*
X135289160Y-89088866D02*
X135527255Y-89088866D01*
X135527255Y-89088866D02*
X135622493Y-89041247D01*
X136098684Y-88803152D02*
X136098684Y-89469819D01*
X136098684Y-88898390D02*
X136146303Y-88850771D01*
X136146303Y-88850771D02*
X136241541Y-88803152D01*
X136241541Y-88803152D02*
X136384398Y-88803152D01*
X136384398Y-88803152D02*
X136479636Y-88850771D01*
X136479636Y-88850771D02*
X136527255Y-88946009D01*
X136527255Y-88946009D02*
X136527255Y-89469819D01*
X137146303Y-89469819D02*
X137051065Y-89422200D01*
X137051065Y-89422200D02*
X137003446Y-89374580D01*
X137003446Y-89374580D02*
X136955827Y-89279342D01*
X136955827Y-89279342D02*
X136955827Y-88993628D01*
X136955827Y-88993628D02*
X137003446Y-88898390D01*
X137003446Y-88898390D02*
X137051065Y-88850771D01*
X137051065Y-88850771D02*
X137146303Y-88803152D01*
X137146303Y-88803152D02*
X137289160Y-88803152D01*
X137289160Y-88803152D02*
X137384398Y-88850771D01*
X137384398Y-88850771D02*
X137432017Y-88898390D01*
X137432017Y-88898390D02*
X137479636Y-88993628D01*
X137479636Y-88993628D02*
X137479636Y-89279342D01*
X137479636Y-89279342D02*
X137432017Y-89374580D01*
X137432017Y-89374580D02*
X137384398Y-89422200D01*
X137384398Y-89422200D02*
X137289160Y-89469819D01*
X137289160Y-89469819D02*
X137146303Y-89469819D01*
X167241541Y-122469819D02*
X167479636Y-123469819D01*
X167479636Y-123469819D02*
X167670112Y-122755533D01*
X167670112Y-122755533D02*
X167860588Y-123469819D01*
X167860588Y-123469819D02*
X168098684Y-122469819D01*
X168860588Y-123422200D02*
X168765350Y-123469819D01*
X168765350Y-123469819D02*
X168574874Y-123469819D01*
X168574874Y-123469819D02*
X168479636Y-123422200D01*
X168479636Y-123422200D02*
X168432017Y-123326961D01*
X168432017Y-123326961D02*
X168432017Y-122946009D01*
X168432017Y-122946009D02*
X168479636Y-122850771D01*
X168479636Y-122850771D02*
X168574874Y-122803152D01*
X168574874Y-122803152D02*
X168765350Y-122803152D01*
X168765350Y-122803152D02*
X168860588Y-122850771D01*
X168860588Y-122850771D02*
X168908207Y-122946009D01*
X168908207Y-122946009D02*
X168908207Y-123041247D01*
X168908207Y-123041247D02*
X168432017Y-123136485D01*
X169765350Y-123469819D02*
X169765350Y-122946009D01*
X169765350Y-122946009D02*
X169717731Y-122850771D01*
X169717731Y-122850771D02*
X169622493Y-122803152D01*
X169622493Y-122803152D02*
X169432017Y-122803152D01*
X169432017Y-122803152D02*
X169336779Y-122850771D01*
X169765350Y-123422200D02*
X169670112Y-123469819D01*
X169670112Y-123469819D02*
X169432017Y-123469819D01*
X169432017Y-123469819D02*
X169336779Y-123422200D01*
X169336779Y-123422200D02*
X169289160Y-123326961D01*
X169289160Y-123326961D02*
X169289160Y-123231723D01*
X169289160Y-123231723D02*
X169336779Y-123136485D01*
X169336779Y-123136485D02*
X169432017Y-123088866D01*
X169432017Y-123088866D02*
X169670112Y-123088866D01*
X169670112Y-123088866D02*
X169765350Y-123041247D01*
X170098684Y-122803152D02*
X170479636Y-122803152D01*
X170241541Y-122469819D02*
X170241541Y-123326961D01*
X170241541Y-123326961D02*
X170289160Y-123422200D01*
X170289160Y-123422200D02*
X170384398Y-123469819D01*
X170384398Y-123469819D02*
X170479636Y-123469819D01*
X170812970Y-123469819D02*
X170812970Y-122469819D01*
X171241541Y-123469819D02*
X171241541Y-122946009D01*
X171241541Y-122946009D02*
X171193922Y-122850771D01*
X171193922Y-122850771D02*
X171098684Y-122803152D01*
X171098684Y-122803152D02*
X170955827Y-122803152D01*
X170955827Y-122803152D02*
X170860589Y-122850771D01*
X170860589Y-122850771D02*
X170812970Y-122898390D01*
X172098684Y-123422200D02*
X172003446Y-123469819D01*
X172003446Y-123469819D02*
X171812970Y-123469819D01*
X171812970Y-123469819D02*
X171717732Y-123422200D01*
X171717732Y-123422200D02*
X171670113Y-123326961D01*
X171670113Y-123326961D02*
X171670113Y-122946009D01*
X171670113Y-122946009D02*
X171717732Y-122850771D01*
X171717732Y-122850771D02*
X171812970Y-122803152D01*
X171812970Y-122803152D02*
X172003446Y-122803152D01*
X172003446Y-122803152D02*
X172098684Y-122850771D01*
X172098684Y-122850771D02*
X172146303Y-122946009D01*
X172146303Y-122946009D02*
X172146303Y-123041247D01*
X172146303Y-123041247D02*
X171670113Y-123136485D01*
X172574875Y-123469819D02*
X172574875Y-122803152D01*
X172574875Y-122993628D02*
X172622494Y-122898390D01*
X172622494Y-122898390D02*
X172670113Y-122850771D01*
X172670113Y-122850771D02*
X172765351Y-122803152D01*
X172765351Y-122803152D02*
X172860589Y-122803152D01*
X173908209Y-123422200D02*
X174051066Y-123469819D01*
X174051066Y-123469819D02*
X174289161Y-123469819D01*
X174289161Y-123469819D02*
X174384399Y-123422200D01*
X174384399Y-123422200D02*
X174432018Y-123374580D01*
X174432018Y-123374580D02*
X174479637Y-123279342D01*
X174479637Y-123279342D02*
X174479637Y-123184104D01*
X174479637Y-123184104D02*
X174432018Y-123088866D01*
X174432018Y-123088866D02*
X174384399Y-123041247D01*
X174384399Y-123041247D02*
X174289161Y-122993628D01*
X174289161Y-122993628D02*
X174098685Y-122946009D01*
X174098685Y-122946009D02*
X174003447Y-122898390D01*
X174003447Y-122898390D02*
X173955828Y-122850771D01*
X173955828Y-122850771D02*
X173908209Y-122755533D01*
X173908209Y-122755533D02*
X173908209Y-122660295D01*
X173908209Y-122660295D02*
X173955828Y-122565057D01*
X173955828Y-122565057D02*
X174003447Y-122517438D01*
X174003447Y-122517438D02*
X174098685Y-122469819D01*
X174098685Y-122469819D02*
X174336780Y-122469819D01*
X174336780Y-122469819D02*
X174479637Y-122517438D01*
X174765352Y-122803152D02*
X175146304Y-122803152D01*
X174908209Y-122469819D02*
X174908209Y-123326961D01*
X174908209Y-123326961D02*
X174955828Y-123422200D01*
X174955828Y-123422200D02*
X175051066Y-123469819D01*
X175051066Y-123469819D02*
X175146304Y-123469819D01*
X175908209Y-123469819D02*
X175908209Y-122946009D01*
X175908209Y-122946009D02*
X175860590Y-122850771D01*
X175860590Y-122850771D02*
X175765352Y-122803152D01*
X175765352Y-122803152D02*
X175574876Y-122803152D01*
X175574876Y-122803152D02*
X175479638Y-122850771D01*
X175908209Y-123422200D02*
X175812971Y-123469819D01*
X175812971Y-123469819D02*
X175574876Y-123469819D01*
X175574876Y-123469819D02*
X175479638Y-123422200D01*
X175479638Y-123422200D02*
X175432019Y-123326961D01*
X175432019Y-123326961D02*
X175432019Y-123231723D01*
X175432019Y-123231723D02*
X175479638Y-123136485D01*
X175479638Y-123136485D02*
X175574876Y-123088866D01*
X175574876Y-123088866D02*
X175812971Y-123088866D01*
X175812971Y-123088866D02*
X175908209Y-123041247D01*
X176241543Y-122803152D02*
X176622495Y-122803152D01*
X176384400Y-122469819D02*
X176384400Y-123326961D01*
X176384400Y-123326961D02*
X176432019Y-123422200D01*
X176432019Y-123422200D02*
X176527257Y-123469819D01*
X176527257Y-123469819D02*
X176622495Y-123469819D01*
X176955829Y-123469819D02*
X176955829Y-122803152D01*
X176955829Y-122469819D02*
X176908210Y-122517438D01*
X176908210Y-122517438D02*
X176955829Y-122565057D01*
X176955829Y-122565057D02*
X177003448Y-122517438D01*
X177003448Y-122517438D02*
X176955829Y-122469819D01*
X176955829Y-122469819D02*
X176955829Y-122565057D01*
X177574876Y-123469819D02*
X177479638Y-123422200D01*
X177479638Y-123422200D02*
X177432019Y-123374580D01*
X177432019Y-123374580D02*
X177384400Y-123279342D01*
X177384400Y-123279342D02*
X177384400Y-122993628D01*
X177384400Y-122993628D02*
X177432019Y-122898390D01*
X177432019Y-122898390D02*
X177479638Y-122850771D01*
X177479638Y-122850771D02*
X177574876Y-122803152D01*
X177574876Y-122803152D02*
X177717733Y-122803152D01*
X177717733Y-122803152D02*
X177812971Y-122850771D01*
X177812971Y-122850771D02*
X177860590Y-122898390D01*
X177860590Y-122898390D02*
X177908209Y-122993628D01*
X177908209Y-122993628D02*
X177908209Y-123279342D01*
X177908209Y-123279342D02*
X177860590Y-123374580D01*
X177860590Y-123374580D02*
X177812971Y-123422200D01*
X177812971Y-123422200D02*
X177717733Y-123469819D01*
X177717733Y-123469819D02*
X177574876Y-123469819D01*
X178336781Y-122803152D02*
X178336781Y-123469819D01*
X178336781Y-122898390D02*
X178384400Y-122850771D01*
X178384400Y-122850771D02*
X178479638Y-122803152D01*
X178479638Y-122803152D02*
X178622495Y-122803152D01*
X178622495Y-122803152D02*
X178717733Y-122850771D01*
X178717733Y-122850771D02*
X178765352Y-122946009D01*
X178765352Y-122946009D02*
X178765352Y-123469819D01*
X179908210Y-122803152D02*
X180146305Y-123469819D01*
X180146305Y-123469819D02*
X180384400Y-122803152D01*
X181289162Y-123469819D02*
X180717734Y-123469819D01*
X181003448Y-123469819D02*
X181003448Y-122469819D01*
X181003448Y-122469819D02*
X180908210Y-122612676D01*
X180908210Y-122612676D02*
X180812972Y-122707914D01*
X180812972Y-122707914D02*
X180717734Y-122755533D01*
X181717734Y-123374580D02*
X181765353Y-123422200D01*
X181765353Y-123422200D02*
X181717734Y-123469819D01*
X181717734Y-123469819D02*
X181670115Y-123422200D01*
X181670115Y-123422200D02*
X181717734Y-123374580D01*
X181717734Y-123374580D02*
X181717734Y-123469819D01*
X182384400Y-122469819D02*
X182479638Y-122469819D01*
X182479638Y-122469819D02*
X182574876Y-122517438D01*
X182574876Y-122517438D02*
X182622495Y-122565057D01*
X182622495Y-122565057D02*
X182670114Y-122660295D01*
X182670114Y-122660295D02*
X182717733Y-122850771D01*
X182717733Y-122850771D02*
X182717733Y-123088866D01*
X182717733Y-123088866D02*
X182670114Y-123279342D01*
X182670114Y-123279342D02*
X182622495Y-123374580D01*
X182622495Y-123374580D02*
X182574876Y-123422200D01*
X182574876Y-123422200D02*
X182479638Y-123469819D01*
X182479638Y-123469819D02*
X182384400Y-123469819D01*
X182384400Y-123469819D02*
X182289162Y-123422200D01*
X182289162Y-123422200D02*
X182241543Y-123374580D01*
X182241543Y-123374580D02*
X182193924Y-123279342D01*
X182193924Y-123279342D02*
X182146305Y-123088866D01*
X182146305Y-123088866D02*
X182146305Y-122850771D01*
X182146305Y-122850771D02*
X182193924Y-122660295D01*
X182193924Y-122660295D02*
X182241543Y-122565057D01*
X182241543Y-122565057D02*
X182289162Y-122517438D01*
X182289162Y-122517438D02*
X182384400Y-122469819D01*
D11*
X116838095Y-102257419D02*
X116838095Y-103066942D01*
X116838095Y-103066942D02*
X116885714Y-103162180D01*
X116885714Y-103162180D02*
X116933333Y-103209800D01*
X116933333Y-103209800D02*
X117028571Y-103257419D01*
X117028571Y-103257419D02*
X117219047Y-103257419D01*
X117219047Y-103257419D02*
X117314285Y-103209800D01*
X117314285Y-103209800D02*
X117361904Y-103162180D01*
X117361904Y-103162180D02*
X117409523Y-103066942D01*
X117409523Y-103066942D02*
X117409523Y-102257419D01*
X117838095Y-102352657D02*
X117885714Y-102305038D01*
X117885714Y-102305038D02*
X117980952Y-102257419D01*
X117980952Y-102257419D02*
X118219047Y-102257419D01*
X118219047Y-102257419D02*
X118314285Y-102305038D01*
X118314285Y-102305038D02*
X118361904Y-102352657D01*
X118361904Y-102352657D02*
X118409523Y-102447895D01*
X118409523Y-102447895D02*
X118409523Y-102543133D01*
X118409523Y-102543133D02*
X118361904Y-102685990D01*
X118361904Y-102685990D02*
X117790476Y-103257419D01*
X117790476Y-103257419D02*
X118409523Y-103257419D01*
X115372419Y-98096639D02*
X115372419Y-97477592D01*
X115372419Y-97477592D02*
X115753371Y-97810925D01*
X115753371Y-97810925D02*
X115753371Y-97668068D01*
X115753371Y-97668068D02*
X115800990Y-97572830D01*
X115800990Y-97572830D02*
X115848609Y-97525211D01*
X115848609Y-97525211D02*
X115943847Y-97477592D01*
X115943847Y-97477592D02*
X116181942Y-97477592D01*
X116181942Y-97477592D02*
X116277180Y-97525211D01*
X116277180Y-97525211D02*
X116324800Y-97572830D01*
X116324800Y-97572830D02*
X116372419Y-97668068D01*
X116372419Y-97668068D02*
X116372419Y-97953782D01*
X116372419Y-97953782D02*
X116324800Y-98049020D01*
X116324800Y-98049020D02*
X116277180Y-98096639D01*
X115467657Y-97096639D02*
X115420038Y-97049020D01*
X115420038Y-97049020D02*
X115372419Y-96953782D01*
X115372419Y-96953782D02*
X115372419Y-96715687D01*
X115372419Y-96715687D02*
X115420038Y-96620449D01*
X115420038Y-96620449D02*
X115467657Y-96572830D01*
X115467657Y-96572830D02*
X115562895Y-96525211D01*
X115562895Y-96525211D02*
X115658133Y-96525211D01*
X115658133Y-96525211D02*
X115800990Y-96572830D01*
X115800990Y-96572830D02*
X116372419Y-97144258D01*
X116372419Y-97144258D02*
X116372419Y-96525211D01*
X116372419Y-96096639D02*
X115372419Y-96096639D01*
X116372419Y-95525211D02*
X115800990Y-95953782D01*
X115372419Y-95525211D02*
X115943847Y-96096639D01*
X104872419Y-98144258D02*
X105872419Y-97810925D01*
X105872419Y-97810925D02*
X104872419Y-97477592D01*
X105777180Y-96572830D02*
X105824800Y-96620449D01*
X105824800Y-96620449D02*
X105872419Y-96763306D01*
X105872419Y-96763306D02*
X105872419Y-96858544D01*
X105872419Y-96858544D02*
X105824800Y-97001401D01*
X105824800Y-97001401D02*
X105729561Y-97096639D01*
X105729561Y-97096639D02*
X105634323Y-97144258D01*
X105634323Y-97144258D02*
X105443847Y-97191877D01*
X105443847Y-97191877D02*
X105300990Y-97191877D01*
X105300990Y-97191877D02*
X105110514Y-97144258D01*
X105110514Y-97144258D02*
X105015276Y-97096639D01*
X105015276Y-97096639D02*
X104920038Y-97001401D01*
X104920038Y-97001401D02*
X104872419Y-96858544D01*
X104872419Y-96858544D02*
X104872419Y-96763306D01*
X104872419Y-96763306D02*
X104920038Y-96620449D01*
X104920038Y-96620449D02*
X104967657Y-96572830D01*
X105777180Y-95572830D02*
X105824800Y-95620449D01*
X105824800Y-95620449D02*
X105872419Y-95763306D01*
X105872419Y-95763306D02*
X105872419Y-95858544D01*
X105872419Y-95858544D02*
X105824800Y-96001401D01*
X105824800Y-96001401D02*
X105729561Y-96096639D01*
X105729561Y-96096639D02*
X105634323Y-96144258D01*
X105634323Y-96144258D02*
X105443847Y-96191877D01*
X105443847Y-96191877D02*
X105300990Y-96191877D01*
X105300990Y-96191877D02*
X105110514Y-96144258D01*
X105110514Y-96144258D02*
X105015276Y-96096639D01*
X105015276Y-96096639D02*
X104920038Y-96001401D01*
X104920038Y-96001401D02*
X104872419Y-95858544D01*
X104872419Y-95858544D02*
X104872419Y-95763306D01*
X104872419Y-95763306D02*
X104920038Y-95620449D01*
X104920038Y-95620449D02*
X104967657Y-95572830D01*
X111324800Y-98049020D02*
X111372419Y-97906163D01*
X111372419Y-97906163D02*
X111372419Y-97668068D01*
X111372419Y-97668068D02*
X111324800Y-97572830D01*
X111324800Y-97572830D02*
X111277180Y-97525211D01*
X111277180Y-97525211D02*
X111181942Y-97477592D01*
X111181942Y-97477592D02*
X111086704Y-97477592D01*
X111086704Y-97477592D02*
X110991466Y-97525211D01*
X110991466Y-97525211D02*
X110943847Y-97572830D01*
X110943847Y-97572830D02*
X110896228Y-97668068D01*
X110896228Y-97668068D02*
X110848609Y-97858544D01*
X110848609Y-97858544D02*
X110800990Y-97953782D01*
X110800990Y-97953782D02*
X110753371Y-98001401D01*
X110753371Y-98001401D02*
X110658133Y-98049020D01*
X110658133Y-98049020D02*
X110562895Y-98049020D01*
X110562895Y-98049020D02*
X110467657Y-98001401D01*
X110467657Y-98001401D02*
X110420038Y-97953782D01*
X110420038Y-97953782D02*
X110372419Y-97858544D01*
X110372419Y-97858544D02*
X110372419Y-97620449D01*
X110372419Y-97620449D02*
X110420038Y-97477592D01*
X111277180Y-96477592D02*
X111324800Y-96525211D01*
X111324800Y-96525211D02*
X111372419Y-96668068D01*
X111372419Y-96668068D02*
X111372419Y-96763306D01*
X111372419Y-96763306D02*
X111324800Y-96906163D01*
X111324800Y-96906163D02*
X111229561Y-97001401D01*
X111229561Y-97001401D02*
X111134323Y-97049020D01*
X111134323Y-97049020D02*
X110943847Y-97096639D01*
X110943847Y-97096639D02*
X110800990Y-97096639D01*
X110800990Y-97096639D02*
X110610514Y-97049020D01*
X110610514Y-97049020D02*
X110515276Y-97001401D01*
X110515276Y-97001401D02*
X110420038Y-96906163D01*
X110420038Y-96906163D02*
X110372419Y-96763306D01*
X110372419Y-96763306D02*
X110372419Y-96668068D01*
X110372419Y-96668068D02*
X110420038Y-96525211D01*
X110420038Y-96525211D02*
X110467657Y-96477592D01*
X111372419Y-95572830D02*
X111372419Y-96049020D01*
X111372419Y-96049020D02*
X110372419Y-96049020D01*
X113824800Y-98049020D02*
X113872419Y-97906163D01*
X113872419Y-97906163D02*
X113872419Y-97668068D01*
X113872419Y-97668068D02*
X113824800Y-97572830D01*
X113824800Y-97572830D02*
X113777180Y-97525211D01*
X113777180Y-97525211D02*
X113681942Y-97477592D01*
X113681942Y-97477592D02*
X113586704Y-97477592D01*
X113586704Y-97477592D02*
X113491466Y-97525211D01*
X113491466Y-97525211D02*
X113443847Y-97572830D01*
X113443847Y-97572830D02*
X113396228Y-97668068D01*
X113396228Y-97668068D02*
X113348609Y-97858544D01*
X113348609Y-97858544D02*
X113300990Y-97953782D01*
X113300990Y-97953782D02*
X113253371Y-98001401D01*
X113253371Y-98001401D02*
X113158133Y-98049020D01*
X113158133Y-98049020D02*
X113062895Y-98049020D01*
X113062895Y-98049020D02*
X112967657Y-98001401D01*
X112967657Y-98001401D02*
X112920038Y-97953782D01*
X112920038Y-97953782D02*
X112872419Y-97858544D01*
X112872419Y-97858544D02*
X112872419Y-97620449D01*
X112872419Y-97620449D02*
X112920038Y-97477592D01*
X113967657Y-96382354D02*
X113920038Y-96477592D01*
X113920038Y-96477592D02*
X113824800Y-96572830D01*
X113824800Y-96572830D02*
X113681942Y-96715687D01*
X113681942Y-96715687D02*
X113634323Y-96810925D01*
X113634323Y-96810925D02*
X113634323Y-96906163D01*
X113872419Y-96858544D02*
X113824800Y-96953782D01*
X113824800Y-96953782D02*
X113729561Y-97049020D01*
X113729561Y-97049020D02*
X113539085Y-97096639D01*
X113539085Y-97096639D02*
X113205752Y-97096639D01*
X113205752Y-97096639D02*
X113015276Y-97049020D01*
X113015276Y-97049020D02*
X112920038Y-96953782D01*
X112920038Y-96953782D02*
X112872419Y-96858544D01*
X112872419Y-96858544D02*
X112872419Y-96668068D01*
X112872419Y-96668068D02*
X112920038Y-96572830D01*
X112920038Y-96572830D02*
X113015276Y-96477592D01*
X113015276Y-96477592D02*
X113205752Y-96429973D01*
X113205752Y-96429973D02*
X113539085Y-96429973D01*
X113539085Y-96429973D02*
X113729561Y-96477592D01*
X113729561Y-96477592D02*
X113824800Y-96572830D01*
X113824800Y-96572830D02*
X113872419Y-96668068D01*
X113872419Y-96668068D02*
X113872419Y-96858544D01*
X112872419Y-96096639D02*
X113872419Y-95858544D01*
X113872419Y-95858544D02*
X113158133Y-95668068D01*
X113158133Y-95668068D02*
X113872419Y-95477592D01*
X113872419Y-95477592D02*
X112872419Y-95239497D01*
X108803884Y-72396705D02*
X108803884Y-71396705D01*
X108803884Y-71396705D02*
X109184836Y-71396705D01*
X109184836Y-71396705D02*
X109280074Y-71444324D01*
X109280074Y-71444324D02*
X109327693Y-71491943D01*
X109327693Y-71491943D02*
X109375312Y-71587181D01*
X109375312Y-71587181D02*
X109375312Y-71730038D01*
X109375312Y-71730038D02*
X109327693Y-71825276D01*
X109327693Y-71825276D02*
X109280074Y-71872895D01*
X109280074Y-71872895D02*
X109184836Y-71920514D01*
X109184836Y-71920514D02*
X108803884Y-71920514D01*
X109946741Y-72396705D02*
X109851503Y-72349086D01*
X109851503Y-72349086D02*
X109803884Y-72253847D01*
X109803884Y-72253847D02*
X109803884Y-71396705D01*
X110756265Y-72396705D02*
X110756265Y-71872895D01*
X110756265Y-71872895D02*
X110708646Y-71777657D01*
X110708646Y-71777657D02*
X110613408Y-71730038D01*
X110613408Y-71730038D02*
X110422932Y-71730038D01*
X110422932Y-71730038D02*
X110327694Y-71777657D01*
X110756265Y-72349086D02*
X110661027Y-72396705D01*
X110661027Y-72396705D02*
X110422932Y-72396705D01*
X110422932Y-72396705D02*
X110327694Y-72349086D01*
X110327694Y-72349086D02*
X110280075Y-72253847D01*
X110280075Y-72253847D02*
X110280075Y-72158609D01*
X110280075Y-72158609D02*
X110327694Y-72063371D01*
X110327694Y-72063371D02*
X110422932Y-72015752D01*
X110422932Y-72015752D02*
X110661027Y-72015752D01*
X110661027Y-72015752D02*
X110756265Y-71968133D01*
X111661027Y-72349086D02*
X111565789Y-72396705D01*
X111565789Y-72396705D02*
X111375313Y-72396705D01*
X111375313Y-72396705D02*
X111280075Y-72349086D01*
X111280075Y-72349086D02*
X111232456Y-72301466D01*
X111232456Y-72301466D02*
X111184837Y-72206228D01*
X111184837Y-72206228D02*
X111184837Y-71920514D01*
X111184837Y-71920514D02*
X111232456Y-71825276D01*
X111232456Y-71825276D02*
X111280075Y-71777657D01*
X111280075Y-71777657D02*
X111375313Y-71730038D01*
X111375313Y-71730038D02*
X111565789Y-71730038D01*
X111565789Y-71730038D02*
X111661027Y-71777657D01*
X112470551Y-72349086D02*
X112375313Y-72396705D01*
X112375313Y-72396705D02*
X112184837Y-72396705D01*
X112184837Y-72396705D02*
X112089599Y-72349086D01*
X112089599Y-72349086D02*
X112041980Y-72253847D01*
X112041980Y-72253847D02*
X112041980Y-71872895D01*
X112041980Y-71872895D02*
X112089599Y-71777657D01*
X112089599Y-71777657D02*
X112184837Y-71730038D01*
X112184837Y-71730038D02*
X112375313Y-71730038D01*
X112375313Y-71730038D02*
X112470551Y-71777657D01*
X112470551Y-71777657D02*
X112518170Y-71872895D01*
X112518170Y-71872895D02*
X112518170Y-71968133D01*
X112518170Y-71968133D02*
X112041980Y-72063371D01*
X113708647Y-72396705D02*
X113708647Y-71396705D01*
X113708647Y-71396705D02*
X114041980Y-72110990D01*
X114041980Y-72110990D02*
X114375313Y-71396705D01*
X114375313Y-71396705D02*
X114375313Y-72396705D01*
X114994361Y-72396705D02*
X114899123Y-72349086D01*
X114899123Y-72349086D02*
X114851504Y-72301466D01*
X114851504Y-72301466D02*
X114803885Y-72206228D01*
X114803885Y-72206228D02*
X114803885Y-71920514D01*
X114803885Y-71920514D02*
X114851504Y-71825276D01*
X114851504Y-71825276D02*
X114899123Y-71777657D01*
X114899123Y-71777657D02*
X114994361Y-71730038D01*
X114994361Y-71730038D02*
X115137218Y-71730038D01*
X115137218Y-71730038D02*
X115232456Y-71777657D01*
X115232456Y-71777657D02*
X115280075Y-71825276D01*
X115280075Y-71825276D02*
X115327694Y-71920514D01*
X115327694Y-71920514D02*
X115327694Y-72206228D01*
X115327694Y-72206228D02*
X115280075Y-72301466D01*
X115280075Y-72301466D02*
X115232456Y-72349086D01*
X115232456Y-72349086D02*
X115137218Y-72396705D01*
X115137218Y-72396705D02*
X114994361Y-72396705D01*
X116184837Y-72396705D02*
X116184837Y-71396705D01*
X116184837Y-72349086D02*
X116089599Y-72396705D01*
X116089599Y-72396705D02*
X115899123Y-72396705D01*
X115899123Y-72396705D02*
X115803885Y-72349086D01*
X115803885Y-72349086D02*
X115756266Y-72301466D01*
X115756266Y-72301466D02*
X115708647Y-72206228D01*
X115708647Y-72206228D02*
X115708647Y-71920514D01*
X115708647Y-71920514D02*
X115756266Y-71825276D01*
X115756266Y-71825276D02*
X115803885Y-71777657D01*
X115803885Y-71777657D02*
X115899123Y-71730038D01*
X115899123Y-71730038D02*
X116089599Y-71730038D01*
X116089599Y-71730038D02*
X116184837Y-71777657D01*
X117089599Y-71730038D02*
X117089599Y-72396705D01*
X116661028Y-71730038D02*
X116661028Y-72253847D01*
X116661028Y-72253847D02*
X116708647Y-72349086D01*
X116708647Y-72349086D02*
X116803885Y-72396705D01*
X116803885Y-72396705D02*
X116946742Y-72396705D01*
X116946742Y-72396705D02*
X117041980Y-72349086D01*
X117041980Y-72349086D02*
X117089599Y-72301466D01*
X117708647Y-72396705D02*
X117613409Y-72349086D01*
X117613409Y-72349086D02*
X117565790Y-72253847D01*
X117565790Y-72253847D02*
X117565790Y-71396705D01*
X118470552Y-72349086D02*
X118375314Y-72396705D01*
X118375314Y-72396705D02*
X118184838Y-72396705D01*
X118184838Y-72396705D02*
X118089600Y-72349086D01*
X118089600Y-72349086D02*
X118041981Y-72253847D01*
X118041981Y-72253847D02*
X118041981Y-71872895D01*
X118041981Y-71872895D02*
X118089600Y-71777657D01*
X118089600Y-71777657D02*
X118184838Y-71730038D01*
X118184838Y-71730038D02*
X118375314Y-71730038D01*
X118375314Y-71730038D02*
X118470552Y-71777657D01*
X118470552Y-71777657D02*
X118518171Y-71872895D01*
X118518171Y-71872895D02*
X118518171Y-71968133D01*
X118518171Y-71968133D02*
X118041981Y-72063371D01*
X109166666Y-73395038D02*
X109357142Y-74061705D01*
X109357142Y-74061705D02*
X109547618Y-73585514D01*
X109547618Y-73585514D02*
X109738094Y-74061705D01*
X109738094Y-74061705D02*
X109928570Y-73395038D01*
X110309523Y-74061705D02*
X110309523Y-73395038D01*
X110309523Y-73061705D02*
X110261904Y-73109324D01*
X110261904Y-73109324D02*
X110309523Y-73156943D01*
X110309523Y-73156943D02*
X110357142Y-73109324D01*
X110357142Y-73109324D02*
X110309523Y-73061705D01*
X110309523Y-73061705D02*
X110309523Y-73156943D01*
X110642856Y-73395038D02*
X111023808Y-73395038D01*
X110785713Y-73061705D02*
X110785713Y-73918847D01*
X110785713Y-73918847D02*
X110833332Y-74014086D01*
X110833332Y-74014086D02*
X110928570Y-74061705D01*
X110928570Y-74061705D02*
X111023808Y-74061705D01*
X111357142Y-74061705D02*
X111357142Y-73061705D01*
X111785713Y-74061705D02*
X111785713Y-73537895D01*
X111785713Y-73537895D02*
X111738094Y-73442657D01*
X111738094Y-73442657D02*
X111642856Y-73395038D01*
X111642856Y-73395038D02*
X111499999Y-73395038D01*
X111499999Y-73395038D02*
X111404761Y-73442657D01*
X111404761Y-73442657D02*
X111357142Y-73490276D01*
X113023809Y-74061705D02*
X113023809Y-73061705D01*
X113023809Y-73442657D02*
X113119047Y-73395038D01*
X113119047Y-73395038D02*
X113309523Y-73395038D01*
X113309523Y-73395038D02*
X113404761Y-73442657D01*
X113404761Y-73442657D02*
X113452380Y-73490276D01*
X113452380Y-73490276D02*
X113499999Y-73585514D01*
X113499999Y-73585514D02*
X113499999Y-73871228D01*
X113499999Y-73871228D02*
X113452380Y-73966466D01*
X113452380Y-73966466D02*
X113404761Y-74014086D01*
X113404761Y-74014086D02*
X113309523Y-74061705D01*
X113309523Y-74061705D02*
X113119047Y-74061705D01*
X113119047Y-74061705D02*
X113023809Y-74014086D01*
X114357142Y-74061705D02*
X114357142Y-73537895D01*
X114357142Y-73537895D02*
X114309523Y-73442657D01*
X114309523Y-73442657D02*
X114214285Y-73395038D01*
X114214285Y-73395038D02*
X114023809Y-73395038D01*
X114023809Y-73395038D02*
X113928571Y-73442657D01*
X114357142Y-74014086D02*
X114261904Y-74061705D01*
X114261904Y-74061705D02*
X114023809Y-74061705D01*
X114023809Y-74061705D02*
X113928571Y-74014086D01*
X113928571Y-74014086D02*
X113880952Y-73918847D01*
X113880952Y-73918847D02*
X113880952Y-73823609D01*
X113880952Y-73823609D02*
X113928571Y-73728371D01*
X113928571Y-73728371D02*
X114023809Y-73680752D01*
X114023809Y-73680752D02*
X114261904Y-73680752D01*
X114261904Y-73680752D02*
X114357142Y-73633133D01*
X114690476Y-73395038D02*
X115071428Y-73395038D01*
X114833333Y-73061705D02*
X114833333Y-73918847D01*
X114833333Y-73918847D02*
X114880952Y-74014086D01*
X114880952Y-74014086D02*
X114976190Y-74061705D01*
X114976190Y-74061705D02*
X115071428Y-74061705D01*
X115261905Y-73395038D02*
X115642857Y-73395038D01*
X115404762Y-73061705D02*
X115404762Y-73918847D01*
X115404762Y-73918847D02*
X115452381Y-74014086D01*
X115452381Y-74014086D02*
X115547619Y-74061705D01*
X115547619Y-74061705D02*
X115642857Y-74061705D01*
X116357143Y-74014086D02*
X116261905Y-74061705D01*
X116261905Y-74061705D02*
X116071429Y-74061705D01*
X116071429Y-74061705D02*
X115976191Y-74014086D01*
X115976191Y-74014086D02*
X115928572Y-73918847D01*
X115928572Y-73918847D02*
X115928572Y-73537895D01*
X115928572Y-73537895D02*
X115976191Y-73442657D01*
X115976191Y-73442657D02*
X116071429Y-73395038D01*
X116071429Y-73395038D02*
X116261905Y-73395038D01*
X116261905Y-73395038D02*
X116357143Y-73442657D01*
X116357143Y-73442657D02*
X116404762Y-73537895D01*
X116404762Y-73537895D02*
X116404762Y-73633133D01*
X116404762Y-73633133D02*
X115928572Y-73728371D01*
X116833334Y-74061705D02*
X116833334Y-73395038D01*
X116833334Y-73585514D02*
X116880953Y-73490276D01*
X116880953Y-73490276D02*
X116928572Y-73442657D01*
X116928572Y-73442657D02*
X117023810Y-73395038D01*
X117023810Y-73395038D02*
X117119048Y-73395038D01*
X117357144Y-73395038D02*
X117595239Y-74061705D01*
X117833334Y-73395038D02*
X117595239Y-74061705D01*
X117595239Y-74061705D02*
X117500001Y-74299800D01*
X117500001Y-74299800D02*
X117452382Y-74347419D01*
X117452382Y-74347419D02*
X117357144Y-74395038D01*
X108324800Y-98049020D02*
X108372419Y-97906163D01*
X108372419Y-97906163D02*
X108372419Y-97668068D01*
X108372419Y-97668068D02*
X108324800Y-97572830D01*
X108324800Y-97572830D02*
X108277180Y-97525211D01*
X108277180Y-97525211D02*
X108181942Y-97477592D01*
X108181942Y-97477592D02*
X108086704Y-97477592D01*
X108086704Y-97477592D02*
X107991466Y-97525211D01*
X107991466Y-97525211D02*
X107943847Y-97572830D01*
X107943847Y-97572830D02*
X107896228Y-97668068D01*
X107896228Y-97668068D02*
X107848609Y-97858544D01*
X107848609Y-97858544D02*
X107800990Y-97953782D01*
X107800990Y-97953782D02*
X107753371Y-98001401D01*
X107753371Y-98001401D02*
X107658133Y-98049020D01*
X107658133Y-98049020D02*
X107562895Y-98049020D01*
X107562895Y-98049020D02*
X107467657Y-98001401D01*
X107467657Y-98001401D02*
X107420038Y-97953782D01*
X107420038Y-97953782D02*
X107372419Y-97858544D01*
X107372419Y-97858544D02*
X107372419Y-97620449D01*
X107372419Y-97620449D02*
X107420038Y-97477592D01*
X108372419Y-97049020D02*
X107372419Y-97049020D01*
X107372419Y-97049020D02*
X107372419Y-96810925D01*
X107372419Y-96810925D02*
X107420038Y-96668068D01*
X107420038Y-96668068D02*
X107515276Y-96572830D01*
X107515276Y-96572830D02*
X107610514Y-96525211D01*
X107610514Y-96525211D02*
X107800990Y-96477592D01*
X107800990Y-96477592D02*
X107943847Y-96477592D01*
X107943847Y-96477592D02*
X108134323Y-96525211D01*
X108134323Y-96525211D02*
X108229561Y-96572830D01*
X108229561Y-96572830D02*
X108324800Y-96668068D01*
X108324800Y-96668068D02*
X108372419Y-96810925D01*
X108372419Y-96810925D02*
X108372419Y-97049020D01*
X108086704Y-96096639D02*
X108086704Y-95620449D01*
X108372419Y-96191877D02*
X107372419Y-95858544D01*
X107372419Y-95858544D02*
X108372419Y-95525211D01*
X102372419Y-88800401D02*
X101372419Y-88800401D01*
X101372419Y-88800401D02*
X101372419Y-88562306D01*
X101372419Y-88562306D02*
X101420038Y-88419449D01*
X101420038Y-88419449D02*
X101515276Y-88324211D01*
X101515276Y-88324211D02*
X101610514Y-88276592D01*
X101610514Y-88276592D02*
X101800990Y-88228973D01*
X101800990Y-88228973D02*
X101943847Y-88228973D01*
X101943847Y-88228973D02*
X102134323Y-88276592D01*
X102134323Y-88276592D02*
X102229561Y-88324211D01*
X102229561Y-88324211D02*
X102324800Y-88419449D01*
X102324800Y-88419449D02*
X102372419Y-88562306D01*
X102372419Y-88562306D02*
X102372419Y-88800401D01*
X102324800Y-87848020D02*
X102372419Y-87705163D01*
X102372419Y-87705163D02*
X102372419Y-87467068D01*
X102372419Y-87467068D02*
X102324800Y-87371830D01*
X102324800Y-87371830D02*
X102277180Y-87324211D01*
X102277180Y-87324211D02*
X102181942Y-87276592D01*
X102181942Y-87276592D02*
X102086704Y-87276592D01*
X102086704Y-87276592D02*
X101991466Y-87324211D01*
X101991466Y-87324211D02*
X101943847Y-87371830D01*
X101943847Y-87371830D02*
X101896228Y-87467068D01*
X101896228Y-87467068D02*
X101848609Y-87657544D01*
X101848609Y-87657544D02*
X101800990Y-87752782D01*
X101800990Y-87752782D02*
X101753371Y-87800401D01*
X101753371Y-87800401D02*
X101658133Y-87848020D01*
X101658133Y-87848020D02*
X101562895Y-87848020D01*
X101562895Y-87848020D02*
X101467657Y-87800401D01*
X101467657Y-87800401D02*
X101420038Y-87752782D01*
X101420038Y-87752782D02*
X101372419Y-87657544D01*
X101372419Y-87657544D02*
X101372419Y-87419449D01*
X101372419Y-87419449D02*
X101420038Y-87276592D01*
X101372419Y-86943258D02*
X101372419Y-86324211D01*
X101372419Y-86324211D02*
X101753371Y-86657544D01*
X101753371Y-86657544D02*
X101753371Y-86514687D01*
X101753371Y-86514687D02*
X101800990Y-86419449D01*
X101800990Y-86419449D02*
X101848609Y-86371830D01*
X101848609Y-86371830D02*
X101943847Y-86324211D01*
X101943847Y-86324211D02*
X102181942Y-86324211D01*
X102181942Y-86324211D02*
X102277180Y-86371830D01*
X102277180Y-86371830D02*
X102324800Y-86419449D01*
X102324800Y-86419449D02*
X102372419Y-86514687D01*
X102372419Y-86514687D02*
X102372419Y-86800401D01*
X102372419Y-86800401D02*
X102324800Y-86895639D01*
X102324800Y-86895639D02*
X102277180Y-86943258D01*
X101467657Y-85943258D02*
X101420038Y-85895639D01*
X101420038Y-85895639D02*
X101372419Y-85800401D01*
X101372419Y-85800401D02*
X101372419Y-85562306D01*
X101372419Y-85562306D02*
X101420038Y-85467068D01*
X101420038Y-85467068D02*
X101467657Y-85419449D01*
X101467657Y-85419449D02*
X101562895Y-85371830D01*
X101562895Y-85371830D02*
X101658133Y-85371830D01*
X101658133Y-85371830D02*
X101800990Y-85419449D01*
X101800990Y-85419449D02*
X102372419Y-85990877D01*
X102372419Y-85990877D02*
X102372419Y-85371830D01*
X101372419Y-85038496D02*
X101372419Y-84419449D01*
X101372419Y-84419449D02*
X101753371Y-84752782D01*
X101753371Y-84752782D02*
X101753371Y-84609925D01*
X101753371Y-84609925D02*
X101800990Y-84514687D01*
X101800990Y-84514687D02*
X101848609Y-84467068D01*
X101848609Y-84467068D02*
X101943847Y-84419449D01*
X101943847Y-84419449D02*
X102181942Y-84419449D01*
X102181942Y-84419449D02*
X102277180Y-84467068D01*
X102277180Y-84467068D02*
X102324800Y-84514687D01*
X102324800Y-84514687D02*
X102372419Y-84609925D01*
X102372419Y-84609925D02*
X102372419Y-84895639D01*
X102372419Y-84895639D02*
X102324800Y-84990877D01*
X102324800Y-84990877D02*
X102277180Y-85038496D01*
X102372419Y-83467068D02*
X102372419Y-84038496D01*
X102372419Y-83752782D02*
X101372419Y-83752782D01*
X101372419Y-83752782D02*
X101515276Y-83848020D01*
X101515276Y-83848020D02*
X101610514Y-83943258D01*
X101610514Y-83943258D02*
X101658133Y-84038496D01*
X102372419Y-81705163D02*
X101896228Y-82038496D01*
X102372419Y-82276591D02*
X101372419Y-82276591D01*
X101372419Y-82276591D02*
X101372419Y-81895639D01*
X101372419Y-81895639D02*
X101420038Y-81800401D01*
X101420038Y-81800401D02*
X101467657Y-81752782D01*
X101467657Y-81752782D02*
X101562895Y-81705163D01*
X101562895Y-81705163D02*
X101705752Y-81705163D01*
X101705752Y-81705163D02*
X101800990Y-81752782D01*
X101800990Y-81752782D02*
X101848609Y-81800401D01*
X101848609Y-81800401D02*
X101896228Y-81895639D01*
X101896228Y-81895639D02*
X101896228Y-82276591D01*
X101372419Y-81419448D02*
X101372419Y-80848020D01*
X102372419Y-81133734D02*
X101372419Y-81133734D01*
X102277180Y-79943258D02*
X102324800Y-79990877D01*
X102324800Y-79990877D02*
X102372419Y-80133734D01*
X102372419Y-80133734D02*
X102372419Y-80228972D01*
X102372419Y-80228972D02*
X102324800Y-80371829D01*
X102324800Y-80371829D02*
X102229561Y-80467067D01*
X102229561Y-80467067D02*
X102134323Y-80514686D01*
X102134323Y-80514686D02*
X101943847Y-80562305D01*
X101943847Y-80562305D02*
X101800990Y-80562305D01*
X101800990Y-80562305D02*
X101610514Y-80514686D01*
X101610514Y-80514686D02*
X101515276Y-80467067D01*
X101515276Y-80467067D02*
X101420038Y-80371829D01*
X101420038Y-80371829D02*
X101372419Y-80228972D01*
X101372419Y-80228972D02*
X101372419Y-80133734D01*
X101372419Y-80133734D02*
X101420038Y-79990877D01*
X101420038Y-79990877D02*
X101467657Y-79943258D01*
X102372419Y-78752781D02*
X101372419Y-78752781D01*
X101372419Y-78752781D02*
X102086704Y-78419448D01*
X102086704Y-78419448D02*
X101372419Y-78086115D01*
X101372419Y-78086115D02*
X102372419Y-78086115D01*
X102372419Y-77467067D02*
X102324800Y-77562305D01*
X102324800Y-77562305D02*
X102277180Y-77609924D01*
X102277180Y-77609924D02*
X102181942Y-77657543D01*
X102181942Y-77657543D02*
X101896228Y-77657543D01*
X101896228Y-77657543D02*
X101800990Y-77609924D01*
X101800990Y-77609924D02*
X101753371Y-77562305D01*
X101753371Y-77562305D02*
X101705752Y-77467067D01*
X101705752Y-77467067D02*
X101705752Y-77324210D01*
X101705752Y-77324210D02*
X101753371Y-77228972D01*
X101753371Y-77228972D02*
X101800990Y-77181353D01*
X101800990Y-77181353D02*
X101896228Y-77133734D01*
X101896228Y-77133734D02*
X102181942Y-77133734D01*
X102181942Y-77133734D02*
X102277180Y-77181353D01*
X102277180Y-77181353D02*
X102324800Y-77228972D01*
X102324800Y-77228972D02*
X102372419Y-77324210D01*
X102372419Y-77324210D02*
X102372419Y-77467067D01*
X102372419Y-76276591D02*
X101372419Y-76276591D01*
X102324800Y-76276591D02*
X102372419Y-76371829D01*
X102372419Y-76371829D02*
X102372419Y-76562305D01*
X102372419Y-76562305D02*
X102324800Y-76657543D01*
X102324800Y-76657543D02*
X102277180Y-76705162D01*
X102277180Y-76705162D02*
X102181942Y-76752781D01*
X102181942Y-76752781D02*
X101896228Y-76752781D01*
X101896228Y-76752781D02*
X101800990Y-76705162D01*
X101800990Y-76705162D02*
X101753371Y-76657543D01*
X101753371Y-76657543D02*
X101705752Y-76562305D01*
X101705752Y-76562305D02*
X101705752Y-76371829D01*
X101705752Y-76371829D02*
X101753371Y-76276591D01*
X101705752Y-75371829D02*
X102372419Y-75371829D01*
X101705752Y-75800400D02*
X102229561Y-75800400D01*
X102229561Y-75800400D02*
X102324800Y-75752781D01*
X102324800Y-75752781D02*
X102372419Y-75657543D01*
X102372419Y-75657543D02*
X102372419Y-75514686D01*
X102372419Y-75514686D02*
X102324800Y-75419448D01*
X102324800Y-75419448D02*
X102277180Y-75371829D01*
X102372419Y-74752781D02*
X102324800Y-74848019D01*
X102324800Y-74848019D02*
X102229561Y-74895638D01*
X102229561Y-74895638D02*
X101372419Y-74895638D01*
X102324800Y-73990876D02*
X102372419Y-74086114D01*
X102372419Y-74086114D02*
X102372419Y-74276590D01*
X102372419Y-74276590D02*
X102324800Y-74371828D01*
X102324800Y-74371828D02*
X102229561Y-74419447D01*
X102229561Y-74419447D02*
X101848609Y-74419447D01*
X101848609Y-74419447D02*
X101753371Y-74371828D01*
X101753371Y-74371828D02*
X101705752Y-74276590D01*
X101705752Y-74276590D02*
X101705752Y-74086114D01*
X101705752Y-74086114D02*
X101753371Y-73990876D01*
X101753371Y-73990876D02*
X101848609Y-73943257D01*
X101848609Y-73943257D02*
X101943847Y-73943257D01*
X101943847Y-73943257D02*
X102039085Y-74419447D01*
X110000000Y-74895038D02*
X110380952Y-74895038D01*
X110142857Y-75561705D02*
X110142857Y-74704562D01*
X110142857Y-74704562D02*
X110190476Y-74609324D01*
X110190476Y-74609324D02*
X110285714Y-74561705D01*
X110285714Y-74561705D02*
X110380952Y-74561705D01*
X111142857Y-75561705D02*
X111142857Y-75037895D01*
X111142857Y-75037895D02*
X111095238Y-74942657D01*
X111095238Y-74942657D02*
X111000000Y-74895038D01*
X111000000Y-74895038D02*
X110809524Y-74895038D01*
X110809524Y-74895038D02*
X110714286Y-74942657D01*
X111142857Y-75514086D02*
X111047619Y-75561705D01*
X111047619Y-75561705D02*
X110809524Y-75561705D01*
X110809524Y-75561705D02*
X110714286Y-75514086D01*
X110714286Y-75514086D02*
X110666667Y-75418847D01*
X110666667Y-75418847D02*
X110666667Y-75323609D01*
X110666667Y-75323609D02*
X110714286Y-75228371D01*
X110714286Y-75228371D02*
X110809524Y-75180752D01*
X110809524Y-75180752D02*
X111047619Y-75180752D01*
X111047619Y-75180752D02*
X111142857Y-75133133D01*
X112047619Y-75514086D02*
X111952381Y-75561705D01*
X111952381Y-75561705D02*
X111761905Y-75561705D01*
X111761905Y-75561705D02*
X111666667Y-75514086D01*
X111666667Y-75514086D02*
X111619048Y-75466466D01*
X111619048Y-75466466D02*
X111571429Y-75371228D01*
X111571429Y-75371228D02*
X111571429Y-75085514D01*
X111571429Y-75085514D02*
X111619048Y-74990276D01*
X111619048Y-74990276D02*
X111666667Y-74942657D01*
X111666667Y-74942657D02*
X111761905Y-74895038D01*
X111761905Y-74895038D02*
X111952381Y-74895038D01*
X111952381Y-74895038D02*
X112047619Y-74942657D01*
X112476191Y-75561705D02*
X112476191Y-74895038D01*
X112476191Y-74561705D02*
X112428572Y-74609324D01*
X112428572Y-74609324D02*
X112476191Y-74656943D01*
X112476191Y-74656943D02*
X112523810Y-74609324D01*
X112523810Y-74609324D02*
X112476191Y-74561705D01*
X112476191Y-74561705D02*
X112476191Y-74656943D01*
X112952381Y-74895038D02*
X112952381Y-75561705D01*
X112952381Y-74990276D02*
X113000000Y-74942657D01*
X113000000Y-74942657D02*
X113095238Y-74895038D01*
X113095238Y-74895038D02*
X113238095Y-74895038D01*
X113238095Y-74895038D02*
X113333333Y-74942657D01*
X113333333Y-74942657D02*
X113380952Y-75037895D01*
X113380952Y-75037895D02*
X113380952Y-75561705D01*
X114285714Y-74895038D02*
X114285714Y-75704562D01*
X114285714Y-75704562D02*
X114238095Y-75799800D01*
X114238095Y-75799800D02*
X114190476Y-75847419D01*
X114190476Y-75847419D02*
X114095238Y-75895038D01*
X114095238Y-75895038D02*
X113952381Y-75895038D01*
X113952381Y-75895038D02*
X113857143Y-75847419D01*
X114285714Y-75514086D02*
X114190476Y-75561705D01*
X114190476Y-75561705D02*
X114000000Y-75561705D01*
X114000000Y-75561705D02*
X113904762Y-75514086D01*
X113904762Y-75514086D02*
X113857143Y-75466466D01*
X113857143Y-75466466D02*
X113809524Y-75371228D01*
X113809524Y-75371228D02*
X113809524Y-75085514D01*
X113809524Y-75085514D02*
X113857143Y-74990276D01*
X113857143Y-74990276D02*
X113904762Y-74942657D01*
X113904762Y-74942657D02*
X114000000Y-74895038D01*
X114000000Y-74895038D02*
X114190476Y-74895038D01*
X114190476Y-74895038D02*
X114285714Y-74942657D01*
X115952381Y-74895038D02*
X115952381Y-75561705D01*
X115523810Y-74895038D02*
X115523810Y-75418847D01*
X115523810Y-75418847D02*
X115571429Y-75514086D01*
X115571429Y-75514086D02*
X115666667Y-75561705D01*
X115666667Y-75561705D02*
X115809524Y-75561705D01*
X115809524Y-75561705D02*
X115904762Y-75514086D01*
X115904762Y-75514086D02*
X115952381Y-75466466D01*
X116428572Y-74895038D02*
X116428572Y-75895038D01*
X116428572Y-74942657D02*
X116523810Y-74895038D01*
X116523810Y-74895038D02*
X116714286Y-74895038D01*
X116714286Y-74895038D02*
X116809524Y-74942657D01*
X116809524Y-74942657D02*
X116857143Y-74990276D01*
X116857143Y-74990276D02*
X116904762Y-75085514D01*
X116904762Y-75085514D02*
X116904762Y-75371228D01*
X116904762Y-75371228D02*
X116857143Y-75466466D01*
X116857143Y-75466466D02*
X116809524Y-75514086D01*
X116809524Y-75514086D02*
X116714286Y-75561705D01*
X116714286Y-75561705D02*
X116523810Y-75561705D01*
X116523810Y-75561705D02*
X116428572Y-75514086D01*
X102420038Y-97677592D02*
X102372419Y-97772830D01*
X102372419Y-97772830D02*
X102372419Y-97915687D01*
X102372419Y-97915687D02*
X102420038Y-98058544D01*
X102420038Y-98058544D02*
X102515276Y-98153782D01*
X102515276Y-98153782D02*
X102610514Y-98201401D01*
X102610514Y-98201401D02*
X102800990Y-98249020D01*
X102800990Y-98249020D02*
X102943847Y-98249020D01*
X102943847Y-98249020D02*
X103134323Y-98201401D01*
X103134323Y-98201401D02*
X103229561Y-98153782D01*
X103229561Y-98153782D02*
X103324800Y-98058544D01*
X103324800Y-98058544D02*
X103372419Y-97915687D01*
X103372419Y-97915687D02*
X103372419Y-97820449D01*
X103372419Y-97820449D02*
X103324800Y-97677592D01*
X103324800Y-97677592D02*
X103277180Y-97629973D01*
X103277180Y-97629973D02*
X102943847Y-97629973D01*
X102943847Y-97629973D02*
X102943847Y-97820449D01*
X103372419Y-97201401D02*
X102372419Y-97201401D01*
X102372419Y-97201401D02*
X103372419Y-96629973D01*
X103372419Y-96629973D02*
X102372419Y-96629973D01*
X103372419Y-96153782D02*
X102372419Y-96153782D01*
X102372419Y-96153782D02*
X102372419Y-95915687D01*
X102372419Y-95915687D02*
X102420038Y-95772830D01*
X102420038Y-95772830D02*
X102515276Y-95677592D01*
X102515276Y-95677592D02*
X102610514Y-95629973D01*
X102610514Y-95629973D02*
X102800990Y-95582354D01*
X102800990Y-95582354D02*
X102943847Y-95582354D01*
X102943847Y-95582354D02*
X103134323Y-95629973D01*
X103134323Y-95629973D02*
X103229561Y-95677592D01*
X103229561Y-95677592D02*
X103324800Y-95772830D01*
X103324800Y-95772830D02*
X103372419Y-95915687D01*
X103372419Y-95915687D02*
X103372419Y-96153782D01*
X169998095Y-107543205D02*
X169998095Y-108352728D01*
X169998095Y-108352728D02*
X170045714Y-108447966D01*
X170045714Y-108447966D02*
X170093333Y-108495586D01*
X170093333Y-108495586D02*
X170188571Y-108543205D01*
X170188571Y-108543205D02*
X170379047Y-108543205D01*
X170379047Y-108543205D02*
X170474285Y-108495586D01*
X170474285Y-108495586D02*
X170521904Y-108447966D01*
X170521904Y-108447966D02*
X170569523Y-108352728D01*
X170569523Y-108352728D02*
X170569523Y-107543205D01*
X171474285Y-107876538D02*
X171474285Y-108543205D01*
X171236190Y-107495586D02*
X170998095Y-108209871D01*
X170998095Y-108209871D02*
X171617142Y-108209871D01*
X158346704Y-70329520D02*
X158346704Y-69853330D01*
X158632419Y-70424758D02*
X157632419Y-70091425D01*
X157632419Y-70091425D02*
X158632419Y-69758092D01*
X157632419Y-69234282D02*
X157632419Y-69139044D01*
X157632419Y-69139044D02*
X157680038Y-69043806D01*
X157680038Y-69043806D02*
X157727657Y-68996187D01*
X157727657Y-68996187D02*
X157822895Y-68948568D01*
X157822895Y-68948568D02*
X158013371Y-68900949D01*
X158013371Y-68900949D02*
X158251466Y-68900949D01*
X158251466Y-68900949D02*
X158441942Y-68948568D01*
X158441942Y-68948568D02*
X158537180Y-68996187D01*
X158537180Y-68996187D02*
X158584800Y-69043806D01*
X158584800Y-69043806D02*
X158632419Y-69139044D01*
X158632419Y-69139044D02*
X158632419Y-69234282D01*
X158632419Y-69234282D02*
X158584800Y-69329520D01*
X158584800Y-69329520D02*
X158537180Y-69377139D01*
X158537180Y-69377139D02*
X158441942Y-69424758D01*
X158441942Y-69424758D02*
X158251466Y-69472377D01*
X158251466Y-69472377D02*
X158013371Y-69472377D01*
X158013371Y-69472377D02*
X157822895Y-69424758D01*
X157822895Y-69424758D02*
X157727657Y-69377139D01*
X157727657Y-69377139D02*
X157680038Y-69329520D01*
X157680038Y-69329520D02*
X157632419Y-69234282D01*
X154921027Y-83958205D02*
X155492455Y-83958205D01*
X155206741Y-84958205D02*
X155206741Y-83958205D01*
X156159122Y-84434395D02*
X155825789Y-84434395D01*
X155825789Y-84958205D02*
X155825789Y-83958205D01*
X155825789Y-83958205D02*
X156301979Y-83958205D01*
X156540075Y-83958205D02*
X157111503Y-83958205D01*
X156825789Y-84958205D02*
X156825789Y-83958205D01*
X158206742Y-84958205D02*
X158206742Y-83958205D01*
X158206742Y-83958205D02*
X158444837Y-83958205D01*
X158444837Y-83958205D02*
X158587694Y-84005824D01*
X158587694Y-84005824D02*
X158682932Y-84101062D01*
X158682932Y-84101062D02*
X158730551Y-84196300D01*
X158730551Y-84196300D02*
X158778170Y-84386776D01*
X158778170Y-84386776D02*
X158778170Y-84529633D01*
X158778170Y-84529633D02*
X158730551Y-84720109D01*
X158730551Y-84720109D02*
X158682932Y-84815347D01*
X158682932Y-84815347D02*
X158587694Y-84910586D01*
X158587694Y-84910586D02*
X158444837Y-84958205D01*
X158444837Y-84958205D02*
X158206742Y-84958205D01*
X159206742Y-84958205D02*
X159206742Y-84291538D01*
X159206742Y-83958205D02*
X159159123Y-84005824D01*
X159159123Y-84005824D02*
X159206742Y-84053443D01*
X159206742Y-84053443D02*
X159254361Y-84005824D01*
X159254361Y-84005824D02*
X159206742Y-83958205D01*
X159206742Y-83958205D02*
X159206742Y-84053443D01*
X159635313Y-84910586D02*
X159730551Y-84958205D01*
X159730551Y-84958205D02*
X159921027Y-84958205D01*
X159921027Y-84958205D02*
X160016265Y-84910586D01*
X160016265Y-84910586D02*
X160063884Y-84815347D01*
X160063884Y-84815347D02*
X160063884Y-84767728D01*
X160063884Y-84767728D02*
X160016265Y-84672490D01*
X160016265Y-84672490D02*
X159921027Y-84624871D01*
X159921027Y-84624871D02*
X159778170Y-84624871D01*
X159778170Y-84624871D02*
X159682932Y-84577252D01*
X159682932Y-84577252D02*
X159635313Y-84482014D01*
X159635313Y-84482014D02*
X159635313Y-84434395D01*
X159635313Y-84434395D02*
X159682932Y-84339157D01*
X159682932Y-84339157D02*
X159778170Y-84291538D01*
X159778170Y-84291538D02*
X159921027Y-84291538D01*
X159921027Y-84291538D02*
X160016265Y-84339157D01*
X160492456Y-84291538D02*
X160492456Y-85291538D01*
X160492456Y-84339157D02*
X160587694Y-84291538D01*
X160587694Y-84291538D02*
X160778170Y-84291538D01*
X160778170Y-84291538D02*
X160873408Y-84339157D01*
X160873408Y-84339157D02*
X160921027Y-84386776D01*
X160921027Y-84386776D02*
X160968646Y-84482014D01*
X160968646Y-84482014D02*
X160968646Y-84767728D01*
X160968646Y-84767728D02*
X160921027Y-84862966D01*
X160921027Y-84862966D02*
X160873408Y-84910586D01*
X160873408Y-84910586D02*
X160778170Y-84958205D01*
X160778170Y-84958205D02*
X160587694Y-84958205D01*
X160587694Y-84958205D02*
X160492456Y-84910586D01*
X161540075Y-84958205D02*
X161444837Y-84910586D01*
X161444837Y-84910586D02*
X161397218Y-84815347D01*
X161397218Y-84815347D02*
X161397218Y-83958205D01*
X162349599Y-84958205D02*
X162349599Y-84434395D01*
X162349599Y-84434395D02*
X162301980Y-84339157D01*
X162301980Y-84339157D02*
X162206742Y-84291538D01*
X162206742Y-84291538D02*
X162016266Y-84291538D01*
X162016266Y-84291538D02*
X161921028Y-84339157D01*
X162349599Y-84910586D02*
X162254361Y-84958205D01*
X162254361Y-84958205D02*
X162016266Y-84958205D01*
X162016266Y-84958205D02*
X161921028Y-84910586D01*
X161921028Y-84910586D02*
X161873409Y-84815347D01*
X161873409Y-84815347D02*
X161873409Y-84720109D01*
X161873409Y-84720109D02*
X161921028Y-84624871D01*
X161921028Y-84624871D02*
X162016266Y-84577252D01*
X162016266Y-84577252D02*
X162254361Y-84577252D01*
X162254361Y-84577252D02*
X162349599Y-84529633D01*
X162730552Y-84291538D02*
X162968647Y-84958205D01*
X163206742Y-84291538D02*
X162968647Y-84958205D01*
X162968647Y-84958205D02*
X162873409Y-85196300D01*
X162873409Y-85196300D02*
X162825790Y-85243919D01*
X162825790Y-85243919D02*
X162730552Y-85291538D01*
X153516265Y-82910586D02*
X153659122Y-82958205D01*
X153659122Y-82958205D02*
X153897217Y-82958205D01*
X153897217Y-82958205D02*
X153992455Y-82910586D01*
X153992455Y-82910586D02*
X154040074Y-82862966D01*
X154040074Y-82862966D02*
X154087693Y-82767728D01*
X154087693Y-82767728D02*
X154087693Y-82672490D01*
X154087693Y-82672490D02*
X154040074Y-82577252D01*
X154040074Y-82577252D02*
X153992455Y-82529633D01*
X153992455Y-82529633D02*
X153897217Y-82482014D01*
X153897217Y-82482014D02*
X153706741Y-82434395D01*
X153706741Y-82434395D02*
X153611503Y-82386776D01*
X153611503Y-82386776D02*
X153563884Y-82339157D01*
X153563884Y-82339157D02*
X153516265Y-82243919D01*
X153516265Y-82243919D02*
X153516265Y-82148681D01*
X153516265Y-82148681D02*
X153563884Y-82053443D01*
X153563884Y-82053443D02*
X153611503Y-82005824D01*
X153611503Y-82005824D02*
X153706741Y-81958205D01*
X153706741Y-81958205D02*
X153944836Y-81958205D01*
X153944836Y-81958205D02*
X154087693Y-82005824D01*
X154373408Y-81958205D02*
X154944836Y-81958205D01*
X154659122Y-82958205D02*
X154659122Y-81958205D01*
X155182932Y-81958205D02*
X155849598Y-81958205D01*
X155849598Y-81958205D02*
X155421027Y-82958205D01*
X156135313Y-81958205D02*
X156801979Y-81958205D01*
X156801979Y-81958205D02*
X156373408Y-82958205D01*
X157087694Y-81958205D02*
X157706741Y-81958205D01*
X157706741Y-81958205D02*
X157373408Y-82339157D01*
X157373408Y-82339157D02*
X157516265Y-82339157D01*
X157516265Y-82339157D02*
X157611503Y-82386776D01*
X157611503Y-82386776D02*
X157659122Y-82434395D01*
X157659122Y-82434395D02*
X157706741Y-82529633D01*
X157706741Y-82529633D02*
X157706741Y-82767728D01*
X157706741Y-82767728D02*
X157659122Y-82862966D01*
X157659122Y-82862966D02*
X157611503Y-82910586D01*
X157611503Y-82910586D02*
X157516265Y-82958205D01*
X157516265Y-82958205D02*
X157230551Y-82958205D01*
X157230551Y-82958205D02*
X157135313Y-82910586D01*
X157135313Y-82910586D02*
X157087694Y-82862966D01*
X158611503Y-81958205D02*
X158135313Y-81958205D01*
X158135313Y-81958205D02*
X158087694Y-82434395D01*
X158087694Y-82434395D02*
X158135313Y-82386776D01*
X158135313Y-82386776D02*
X158230551Y-82339157D01*
X158230551Y-82339157D02*
X158468646Y-82339157D01*
X158468646Y-82339157D02*
X158563884Y-82386776D01*
X158563884Y-82386776D02*
X158611503Y-82434395D01*
X158611503Y-82434395D02*
X158659122Y-82529633D01*
X158659122Y-82529633D02*
X158659122Y-82767728D01*
X158659122Y-82767728D02*
X158611503Y-82862966D01*
X158611503Y-82862966D02*
X158563884Y-82910586D01*
X158563884Y-82910586D02*
X158468646Y-82958205D01*
X158468646Y-82958205D02*
X158230551Y-82958205D01*
X158230551Y-82958205D02*
X158135313Y-82910586D01*
X158135313Y-82910586D02*
X158087694Y-82862966D01*
X159040075Y-82910586D02*
X159182932Y-82958205D01*
X159182932Y-82958205D02*
X159421027Y-82958205D01*
X159421027Y-82958205D02*
X159516265Y-82910586D01*
X159516265Y-82910586D02*
X159563884Y-82862966D01*
X159563884Y-82862966D02*
X159611503Y-82767728D01*
X159611503Y-82767728D02*
X159611503Y-82672490D01*
X159611503Y-82672490D02*
X159563884Y-82577252D01*
X159563884Y-82577252D02*
X159516265Y-82529633D01*
X159516265Y-82529633D02*
X159421027Y-82482014D01*
X159421027Y-82482014D02*
X159230551Y-82434395D01*
X159230551Y-82434395D02*
X159135313Y-82386776D01*
X159135313Y-82386776D02*
X159087694Y-82339157D01*
X159087694Y-82339157D02*
X159040075Y-82243919D01*
X159040075Y-82243919D02*
X159040075Y-82148681D01*
X159040075Y-82148681D02*
X159087694Y-82053443D01*
X159087694Y-82053443D02*
X159135313Y-82005824D01*
X159135313Y-82005824D02*
X159230551Y-81958205D01*
X159230551Y-81958205D02*
X159468646Y-81958205D01*
X159468646Y-81958205D02*
X159611503Y-82005824D01*
X161325789Y-82958205D02*
X160754361Y-82958205D01*
X161040075Y-82958205D02*
X161040075Y-81958205D01*
X161040075Y-81958205D02*
X160944837Y-82101062D01*
X160944837Y-82101062D02*
X160849599Y-82196300D01*
X160849599Y-82196300D02*
X160754361Y-82243919D01*
X161754361Y-82862966D02*
X161801980Y-82910586D01*
X161801980Y-82910586D02*
X161754361Y-82958205D01*
X161754361Y-82958205D02*
X161706742Y-82910586D01*
X161706742Y-82910586D02*
X161754361Y-82862966D01*
X161754361Y-82862966D02*
X161754361Y-82958205D01*
X162659122Y-82291538D02*
X162659122Y-82958205D01*
X162421027Y-81910586D02*
X162182932Y-82624871D01*
X162182932Y-82624871D02*
X162801979Y-82624871D01*
X163611503Y-82291538D02*
X163611503Y-82958205D01*
X163373408Y-81910586D02*
X163135313Y-82624871D01*
X163135313Y-82624871D02*
X163754360Y-82624871D01*
X164087694Y-81958205D02*
X164087694Y-82148681D01*
X164468646Y-81958205D02*
X164468646Y-82148681D01*
X153584800Y-70829520D02*
X153632419Y-70686663D01*
X153632419Y-70686663D02*
X153632419Y-70448568D01*
X153632419Y-70448568D02*
X153584800Y-70353330D01*
X153584800Y-70353330D02*
X153537180Y-70305711D01*
X153537180Y-70305711D02*
X153441942Y-70258092D01*
X153441942Y-70258092D02*
X153346704Y-70258092D01*
X153346704Y-70258092D02*
X153251466Y-70305711D01*
X153251466Y-70305711D02*
X153203847Y-70353330D01*
X153203847Y-70353330D02*
X153156228Y-70448568D01*
X153156228Y-70448568D02*
X153108609Y-70639044D01*
X153108609Y-70639044D02*
X153060990Y-70734282D01*
X153060990Y-70734282D02*
X153013371Y-70781901D01*
X153013371Y-70781901D02*
X152918133Y-70829520D01*
X152918133Y-70829520D02*
X152822895Y-70829520D01*
X152822895Y-70829520D02*
X152727657Y-70781901D01*
X152727657Y-70781901D02*
X152680038Y-70734282D01*
X152680038Y-70734282D02*
X152632419Y-70639044D01*
X152632419Y-70639044D02*
X152632419Y-70400949D01*
X152632419Y-70400949D02*
X152680038Y-70258092D01*
X153537180Y-69258092D02*
X153584800Y-69305711D01*
X153584800Y-69305711D02*
X153632419Y-69448568D01*
X153632419Y-69448568D02*
X153632419Y-69543806D01*
X153632419Y-69543806D02*
X153584800Y-69686663D01*
X153584800Y-69686663D02*
X153489561Y-69781901D01*
X153489561Y-69781901D02*
X153394323Y-69829520D01*
X153394323Y-69829520D02*
X153203847Y-69877139D01*
X153203847Y-69877139D02*
X153060990Y-69877139D01*
X153060990Y-69877139D02*
X152870514Y-69829520D01*
X152870514Y-69829520D02*
X152775276Y-69781901D01*
X152775276Y-69781901D02*
X152680038Y-69686663D01*
X152680038Y-69686663D02*
X152632419Y-69543806D01*
X152632419Y-69543806D02*
X152632419Y-69448568D01*
X152632419Y-69448568D02*
X152680038Y-69305711D01*
X152680038Y-69305711D02*
X152727657Y-69258092D01*
X153632419Y-68829520D02*
X152632419Y-68829520D01*
X153632419Y-68258092D02*
X153060990Y-68686663D01*
X152632419Y-68258092D02*
X153203847Y-68829520D01*
X151132419Y-70305711D02*
X151132419Y-70781901D01*
X151132419Y-70781901D02*
X150132419Y-70781901D01*
X150608609Y-69972377D02*
X150608609Y-69639044D01*
X151132419Y-69496187D02*
X151132419Y-69972377D01*
X151132419Y-69972377D02*
X150132419Y-69972377D01*
X150132419Y-69972377D02*
X150132419Y-69496187D01*
X151132419Y-69067615D02*
X150132419Y-69067615D01*
X150132419Y-69067615D02*
X150132419Y-68829520D01*
X150132419Y-68829520D02*
X150180038Y-68686663D01*
X150180038Y-68686663D02*
X150275276Y-68591425D01*
X150275276Y-68591425D02*
X150370514Y-68543806D01*
X150370514Y-68543806D02*
X150560990Y-68496187D01*
X150560990Y-68496187D02*
X150703847Y-68496187D01*
X150703847Y-68496187D02*
X150894323Y-68543806D01*
X150894323Y-68543806D02*
X150989561Y-68591425D01*
X150989561Y-68591425D02*
X151084800Y-68686663D01*
X151084800Y-68686663D02*
X151132419Y-68829520D01*
X151132419Y-68829520D02*
X151132419Y-69067615D01*
X161132419Y-71710473D02*
X160656228Y-72043806D01*
X161132419Y-72281901D02*
X160132419Y-72281901D01*
X160132419Y-72281901D02*
X160132419Y-71900949D01*
X160132419Y-71900949D02*
X160180038Y-71805711D01*
X160180038Y-71805711D02*
X160227657Y-71758092D01*
X160227657Y-71758092D02*
X160322895Y-71710473D01*
X160322895Y-71710473D02*
X160465752Y-71710473D01*
X160465752Y-71710473D02*
X160560990Y-71758092D01*
X160560990Y-71758092D02*
X160608609Y-71805711D01*
X160608609Y-71805711D02*
X160656228Y-71900949D01*
X160656228Y-71900949D02*
X160656228Y-72281901D01*
X160608609Y-71281901D02*
X160608609Y-70948568D01*
X161132419Y-70805711D02*
X161132419Y-71281901D01*
X161132419Y-71281901D02*
X160132419Y-71281901D01*
X160132419Y-71281901D02*
X160132419Y-70805711D01*
X161084800Y-70424758D02*
X161132419Y-70281901D01*
X161132419Y-70281901D02*
X161132419Y-70043806D01*
X161132419Y-70043806D02*
X161084800Y-69948568D01*
X161084800Y-69948568D02*
X161037180Y-69900949D01*
X161037180Y-69900949D02*
X160941942Y-69853330D01*
X160941942Y-69853330D02*
X160846704Y-69853330D01*
X160846704Y-69853330D02*
X160751466Y-69900949D01*
X160751466Y-69900949D02*
X160703847Y-69948568D01*
X160703847Y-69948568D02*
X160656228Y-70043806D01*
X160656228Y-70043806D02*
X160608609Y-70234282D01*
X160608609Y-70234282D02*
X160560990Y-70329520D01*
X160560990Y-70329520D02*
X160513371Y-70377139D01*
X160513371Y-70377139D02*
X160418133Y-70424758D01*
X160418133Y-70424758D02*
X160322895Y-70424758D01*
X160322895Y-70424758D02*
X160227657Y-70377139D01*
X160227657Y-70377139D02*
X160180038Y-70329520D01*
X160180038Y-70329520D02*
X160132419Y-70234282D01*
X160132419Y-70234282D02*
X160132419Y-69996187D01*
X160132419Y-69996187D02*
X160180038Y-69853330D01*
X160608609Y-69424758D02*
X160608609Y-69091425D01*
X161132419Y-68948568D02*
X161132419Y-69424758D01*
X161132419Y-69424758D02*
X160132419Y-69424758D01*
X160132419Y-69424758D02*
X160132419Y-68948568D01*
X160132419Y-68662853D02*
X160132419Y-68091425D01*
X161132419Y-68377139D02*
X160132419Y-68377139D01*
X163537180Y-69710473D02*
X163584800Y-69758092D01*
X163584800Y-69758092D02*
X163632419Y-69900949D01*
X163632419Y-69900949D02*
X163632419Y-69996187D01*
X163632419Y-69996187D02*
X163584800Y-70139044D01*
X163584800Y-70139044D02*
X163489561Y-70234282D01*
X163489561Y-70234282D02*
X163394323Y-70281901D01*
X163394323Y-70281901D02*
X163203847Y-70329520D01*
X163203847Y-70329520D02*
X163060990Y-70329520D01*
X163060990Y-70329520D02*
X162870514Y-70281901D01*
X162870514Y-70281901D02*
X162775276Y-70234282D01*
X162775276Y-70234282D02*
X162680038Y-70139044D01*
X162680038Y-70139044D02*
X162632419Y-69996187D01*
X162632419Y-69996187D02*
X162632419Y-69900949D01*
X162632419Y-69900949D02*
X162680038Y-69758092D01*
X162680038Y-69758092D02*
X162727657Y-69710473D01*
X163584800Y-69329520D02*
X163632419Y-69186663D01*
X163632419Y-69186663D02*
X163632419Y-68948568D01*
X163632419Y-68948568D02*
X163584800Y-68853330D01*
X163584800Y-68853330D02*
X163537180Y-68805711D01*
X163537180Y-68805711D02*
X163441942Y-68758092D01*
X163441942Y-68758092D02*
X163346704Y-68758092D01*
X163346704Y-68758092D02*
X163251466Y-68805711D01*
X163251466Y-68805711D02*
X163203847Y-68853330D01*
X163203847Y-68853330D02*
X163156228Y-68948568D01*
X163156228Y-68948568D02*
X163108609Y-69139044D01*
X163108609Y-69139044D02*
X163060990Y-69234282D01*
X163060990Y-69234282D02*
X163013371Y-69281901D01*
X163013371Y-69281901D02*
X162918133Y-69329520D01*
X162918133Y-69329520D02*
X162822895Y-69329520D01*
X162822895Y-69329520D02*
X162727657Y-69281901D01*
X162727657Y-69281901D02*
X162680038Y-69234282D01*
X162680038Y-69234282D02*
X162632419Y-69139044D01*
X162632419Y-69139044D02*
X162632419Y-68900949D01*
X162632419Y-68900949D02*
X162680038Y-68758092D01*
X156084800Y-70829520D02*
X156132419Y-70686663D01*
X156132419Y-70686663D02*
X156132419Y-70448568D01*
X156132419Y-70448568D02*
X156084800Y-70353330D01*
X156084800Y-70353330D02*
X156037180Y-70305711D01*
X156037180Y-70305711D02*
X155941942Y-70258092D01*
X155941942Y-70258092D02*
X155846704Y-70258092D01*
X155846704Y-70258092D02*
X155751466Y-70305711D01*
X155751466Y-70305711D02*
X155703847Y-70353330D01*
X155703847Y-70353330D02*
X155656228Y-70448568D01*
X155656228Y-70448568D02*
X155608609Y-70639044D01*
X155608609Y-70639044D02*
X155560990Y-70734282D01*
X155560990Y-70734282D02*
X155513371Y-70781901D01*
X155513371Y-70781901D02*
X155418133Y-70829520D01*
X155418133Y-70829520D02*
X155322895Y-70829520D01*
X155322895Y-70829520D02*
X155227657Y-70781901D01*
X155227657Y-70781901D02*
X155180038Y-70734282D01*
X155180038Y-70734282D02*
X155132419Y-70639044D01*
X155132419Y-70639044D02*
X155132419Y-70400949D01*
X155132419Y-70400949D02*
X155180038Y-70258092D01*
X156132419Y-69829520D02*
X155132419Y-69829520D01*
X155132419Y-69829520D02*
X155132419Y-69591425D01*
X155132419Y-69591425D02*
X155180038Y-69448568D01*
X155180038Y-69448568D02*
X155275276Y-69353330D01*
X155275276Y-69353330D02*
X155370514Y-69305711D01*
X155370514Y-69305711D02*
X155560990Y-69258092D01*
X155560990Y-69258092D02*
X155703847Y-69258092D01*
X155703847Y-69258092D02*
X155894323Y-69305711D01*
X155894323Y-69305711D02*
X155989561Y-69353330D01*
X155989561Y-69353330D02*
X156084800Y-69448568D01*
X156084800Y-69448568D02*
X156132419Y-69591425D01*
X156132419Y-69591425D02*
X156132419Y-69829520D01*
X155846704Y-68877139D02*
X155846704Y-68400949D01*
X156132419Y-68972377D02*
X155132419Y-68639044D01*
X155132419Y-68639044D02*
X156132419Y-68305711D01*
X165180038Y-70258092D02*
X165132419Y-70353330D01*
X165132419Y-70353330D02*
X165132419Y-70496187D01*
X165132419Y-70496187D02*
X165180038Y-70639044D01*
X165180038Y-70639044D02*
X165275276Y-70734282D01*
X165275276Y-70734282D02*
X165370514Y-70781901D01*
X165370514Y-70781901D02*
X165560990Y-70829520D01*
X165560990Y-70829520D02*
X165703847Y-70829520D01*
X165703847Y-70829520D02*
X165894323Y-70781901D01*
X165894323Y-70781901D02*
X165989561Y-70734282D01*
X165989561Y-70734282D02*
X166084800Y-70639044D01*
X166084800Y-70639044D02*
X166132419Y-70496187D01*
X166132419Y-70496187D02*
X166132419Y-70400949D01*
X166132419Y-70400949D02*
X166084800Y-70258092D01*
X166084800Y-70258092D02*
X166037180Y-70210473D01*
X166037180Y-70210473D02*
X165703847Y-70210473D01*
X165703847Y-70210473D02*
X165703847Y-70400949D01*
X166132419Y-69781901D02*
X165132419Y-69781901D01*
X165132419Y-69781901D02*
X166132419Y-69210473D01*
X166132419Y-69210473D02*
X165132419Y-69210473D01*
X166132419Y-68734282D02*
X165132419Y-68734282D01*
X165132419Y-68734282D02*
X165132419Y-68496187D01*
X165132419Y-68496187D02*
X165180038Y-68353330D01*
X165180038Y-68353330D02*
X165275276Y-68258092D01*
X165275276Y-68258092D02*
X165370514Y-68210473D01*
X165370514Y-68210473D02*
X165560990Y-68162854D01*
X165560990Y-68162854D02*
X165703847Y-68162854D01*
X165703847Y-68162854D02*
X165894323Y-68210473D01*
X165894323Y-68210473D02*
X165989561Y-68258092D01*
X165989561Y-68258092D02*
X166084800Y-68353330D01*
X166084800Y-68353330D02*
X166132419Y-68496187D01*
X166132419Y-68496187D02*
X166132419Y-68734282D01*
X167632419Y-70924758D02*
X168632419Y-70591425D01*
X168632419Y-70591425D02*
X167632419Y-70258092D01*
X168537180Y-69353330D02*
X168584800Y-69400949D01*
X168584800Y-69400949D02*
X168632419Y-69543806D01*
X168632419Y-69543806D02*
X168632419Y-69639044D01*
X168632419Y-69639044D02*
X168584800Y-69781901D01*
X168584800Y-69781901D02*
X168489561Y-69877139D01*
X168489561Y-69877139D02*
X168394323Y-69924758D01*
X168394323Y-69924758D02*
X168203847Y-69972377D01*
X168203847Y-69972377D02*
X168060990Y-69972377D01*
X168060990Y-69972377D02*
X167870514Y-69924758D01*
X167870514Y-69924758D02*
X167775276Y-69877139D01*
X167775276Y-69877139D02*
X167680038Y-69781901D01*
X167680038Y-69781901D02*
X167632419Y-69639044D01*
X167632419Y-69639044D02*
X167632419Y-69543806D01*
X167632419Y-69543806D02*
X167680038Y-69400949D01*
X167680038Y-69400949D02*
X167727657Y-69353330D01*
X168537180Y-68353330D02*
X168584800Y-68400949D01*
X168584800Y-68400949D02*
X168632419Y-68543806D01*
X168632419Y-68543806D02*
X168632419Y-68639044D01*
X168632419Y-68639044D02*
X168584800Y-68781901D01*
X168584800Y-68781901D02*
X168489561Y-68877139D01*
X168489561Y-68877139D02*
X168394323Y-68924758D01*
X168394323Y-68924758D02*
X168203847Y-68972377D01*
X168203847Y-68972377D02*
X168060990Y-68972377D01*
X168060990Y-68972377D02*
X167870514Y-68924758D01*
X167870514Y-68924758D02*
X167775276Y-68877139D01*
X167775276Y-68877139D02*
X167680038Y-68781901D01*
X167680038Y-68781901D02*
X167632419Y-68639044D01*
X167632419Y-68639044D02*
X167632419Y-68543806D01*
X167632419Y-68543806D02*
X167680038Y-68400949D01*
X167680038Y-68400949D02*
X167727657Y-68353330D01*
X131207419Y-114461904D02*
X132016942Y-114461904D01*
X132016942Y-114461904D02*
X132112180Y-114414285D01*
X132112180Y-114414285D02*
X132159800Y-114366666D01*
X132159800Y-114366666D02*
X132207419Y-114271428D01*
X132207419Y-114271428D02*
X132207419Y-114080952D01*
X132207419Y-114080952D02*
X132159800Y-113985714D01*
X132159800Y-113985714D02*
X132112180Y-113938095D01*
X132112180Y-113938095D02*
X132016942Y-113890476D01*
X132016942Y-113890476D02*
X131207419Y-113890476D01*
X131207419Y-113509523D02*
X131207419Y-112890476D01*
X131207419Y-112890476D02*
X131588371Y-113223809D01*
X131588371Y-113223809D02*
X131588371Y-113080952D01*
X131588371Y-113080952D02*
X131635990Y-112985714D01*
X131635990Y-112985714D02*
X131683609Y-112938095D01*
X131683609Y-112938095D02*
X131778847Y-112890476D01*
X131778847Y-112890476D02*
X132016942Y-112890476D01*
X132016942Y-112890476D02*
X132112180Y-112938095D01*
X132112180Y-112938095D02*
X132159800Y-112985714D01*
X132159800Y-112985714D02*
X132207419Y-113080952D01*
X132207419Y-113080952D02*
X132207419Y-113366666D01*
X132207419Y-113366666D02*
X132159800Y-113461904D01*
X132159800Y-113461904D02*
X132112180Y-113509523D01*
X114372419Y-123396115D02*
X113372419Y-123396115D01*
X113372419Y-123396115D02*
X114086704Y-123062782D01*
X114086704Y-123062782D02*
X113372419Y-122729449D01*
X113372419Y-122729449D02*
X114372419Y-122729449D01*
X114467657Y-121586592D02*
X114420038Y-121681830D01*
X114420038Y-121681830D02*
X114324800Y-121777068D01*
X114324800Y-121777068D02*
X114181942Y-121919925D01*
X114181942Y-121919925D02*
X114134323Y-122015163D01*
X114134323Y-122015163D02*
X114134323Y-122110401D01*
X114372419Y-122062782D02*
X114324800Y-122158020D01*
X114324800Y-122158020D02*
X114229561Y-122253258D01*
X114229561Y-122253258D02*
X114039085Y-122300877D01*
X114039085Y-122300877D02*
X113705752Y-122300877D01*
X113705752Y-122300877D02*
X113515276Y-122253258D01*
X113515276Y-122253258D02*
X113420038Y-122158020D01*
X113420038Y-122158020D02*
X113372419Y-122062782D01*
X113372419Y-122062782D02*
X113372419Y-121872306D01*
X113372419Y-121872306D02*
X113420038Y-121777068D01*
X113420038Y-121777068D02*
X113515276Y-121681830D01*
X113515276Y-121681830D02*
X113705752Y-121634211D01*
X113705752Y-121634211D02*
X114039085Y-121634211D01*
X114039085Y-121634211D02*
X114229561Y-121681830D01*
X114229561Y-121681830D02*
X114324800Y-121777068D01*
X114324800Y-121777068D02*
X114372419Y-121872306D01*
X114372419Y-121872306D02*
X114372419Y-122062782D01*
X113991466Y-121205639D02*
X113991466Y-120443735D01*
X114372419Y-119443735D02*
X114372419Y-120015163D01*
X114372419Y-119729449D02*
X113372419Y-119729449D01*
X113372419Y-119729449D02*
X113515276Y-119824687D01*
X113515276Y-119824687D02*
X113610514Y-119919925D01*
X113610514Y-119919925D02*
X113658133Y-120015163D01*
X113372419Y-119110401D02*
X113372419Y-118491354D01*
X113372419Y-118491354D02*
X113753371Y-118824687D01*
X113753371Y-118824687D02*
X113753371Y-118681830D01*
X113753371Y-118681830D02*
X113800990Y-118586592D01*
X113800990Y-118586592D02*
X113848609Y-118538973D01*
X113848609Y-118538973D02*
X113943847Y-118491354D01*
X113943847Y-118491354D02*
X114181942Y-118491354D01*
X114181942Y-118491354D02*
X114277180Y-118538973D01*
X114277180Y-118538973D02*
X114324800Y-118586592D01*
X114324800Y-118586592D02*
X114372419Y-118681830D01*
X114372419Y-118681830D02*
X114372419Y-118967544D01*
X114372419Y-118967544D02*
X114324800Y-119062782D01*
X114324800Y-119062782D02*
X114277180Y-119110401D01*
X113372419Y-117586592D02*
X113372419Y-118062782D01*
X113372419Y-118062782D02*
X113848609Y-118110401D01*
X113848609Y-118110401D02*
X113800990Y-118062782D01*
X113800990Y-118062782D02*
X113753371Y-117967544D01*
X113753371Y-117967544D02*
X113753371Y-117729449D01*
X113753371Y-117729449D02*
X113800990Y-117634211D01*
X113800990Y-117634211D02*
X113848609Y-117586592D01*
X113848609Y-117586592D02*
X113943847Y-117538973D01*
X113943847Y-117538973D02*
X114181942Y-117538973D01*
X114181942Y-117538973D02*
X114277180Y-117586592D01*
X114277180Y-117586592D02*
X114324800Y-117634211D01*
X114324800Y-117634211D02*
X114372419Y-117729449D01*
X114372419Y-117729449D02*
X114372419Y-117967544D01*
X114372419Y-117967544D02*
X114324800Y-118062782D01*
X114324800Y-118062782D02*
X114277180Y-118110401D01*
X103827693Y-118914252D02*
X103732455Y-118866633D01*
X103732455Y-118866633D02*
X103589598Y-118866633D01*
X103589598Y-118866633D02*
X103446741Y-118914252D01*
X103446741Y-118914252D02*
X103351503Y-119009490D01*
X103351503Y-119009490D02*
X103303884Y-119104728D01*
X103303884Y-119104728D02*
X103256265Y-119295204D01*
X103256265Y-119295204D02*
X103256265Y-119438061D01*
X103256265Y-119438061D02*
X103303884Y-119628537D01*
X103303884Y-119628537D02*
X103351503Y-119723775D01*
X103351503Y-119723775D02*
X103446741Y-119819014D01*
X103446741Y-119819014D02*
X103589598Y-119866633D01*
X103589598Y-119866633D02*
X103684836Y-119866633D01*
X103684836Y-119866633D02*
X103827693Y-119819014D01*
X103827693Y-119819014D02*
X103875312Y-119771394D01*
X103875312Y-119771394D02*
X103875312Y-119438061D01*
X103875312Y-119438061D02*
X103684836Y-119438061D01*
X104303884Y-119866633D02*
X104303884Y-118866633D01*
X104303884Y-118866633D02*
X104875312Y-119866633D01*
X104875312Y-119866633D02*
X104875312Y-118866633D01*
X105351503Y-119866633D02*
X105351503Y-118866633D01*
X105351503Y-118866633D02*
X105589598Y-118866633D01*
X105589598Y-118866633D02*
X105732455Y-118914252D01*
X105732455Y-118914252D02*
X105827693Y-119009490D01*
X105827693Y-119009490D02*
X105875312Y-119104728D01*
X105875312Y-119104728D02*
X105922931Y-119295204D01*
X105922931Y-119295204D02*
X105922931Y-119438061D01*
X105922931Y-119438061D02*
X105875312Y-119628537D01*
X105875312Y-119628537D02*
X105827693Y-119723775D01*
X105827693Y-119723775D02*
X105732455Y-119819014D01*
X105732455Y-119819014D02*
X105589598Y-119866633D01*
X105589598Y-119866633D02*
X105351503Y-119866633D01*
X103303884Y-122366633D02*
X103303884Y-121366633D01*
X103303884Y-121366633D02*
X103541979Y-121366633D01*
X103541979Y-121366633D02*
X103684836Y-121414252D01*
X103684836Y-121414252D02*
X103780074Y-121509490D01*
X103780074Y-121509490D02*
X103827693Y-121604728D01*
X103827693Y-121604728D02*
X103875312Y-121795204D01*
X103875312Y-121795204D02*
X103875312Y-121938061D01*
X103875312Y-121938061D02*
X103827693Y-122128537D01*
X103827693Y-122128537D02*
X103780074Y-122223775D01*
X103780074Y-122223775D02*
X103684836Y-122319014D01*
X103684836Y-122319014D02*
X103541979Y-122366633D01*
X103541979Y-122366633D02*
X103303884Y-122366633D01*
X104494360Y-121366633D02*
X104589598Y-121366633D01*
X104589598Y-121366633D02*
X104684836Y-121414252D01*
X104684836Y-121414252D02*
X104732455Y-121461871D01*
X104732455Y-121461871D02*
X104780074Y-121557109D01*
X104780074Y-121557109D02*
X104827693Y-121747585D01*
X104827693Y-121747585D02*
X104827693Y-121985680D01*
X104827693Y-121985680D02*
X104780074Y-122176156D01*
X104780074Y-122176156D02*
X104732455Y-122271394D01*
X104732455Y-122271394D02*
X104684836Y-122319014D01*
X104684836Y-122319014D02*
X104589598Y-122366633D01*
X104589598Y-122366633D02*
X104494360Y-122366633D01*
X104494360Y-122366633D02*
X104399122Y-122319014D01*
X104399122Y-122319014D02*
X104351503Y-122271394D01*
X104351503Y-122271394D02*
X104303884Y-122176156D01*
X104303884Y-122176156D02*
X104256265Y-121985680D01*
X104256265Y-121985680D02*
X104256265Y-121747585D01*
X104256265Y-121747585D02*
X104303884Y-121557109D01*
X104303884Y-121557109D02*
X104351503Y-121461871D01*
X104351503Y-121461871D02*
X104399122Y-121414252D01*
X104399122Y-121414252D02*
X104494360Y-121366633D01*
X103256265Y-124580918D02*
X103732455Y-124580918D01*
X103161027Y-124866633D02*
X103494360Y-123866633D01*
X103494360Y-123866633D02*
X103827693Y-124866633D01*
X104351503Y-123866633D02*
X104446741Y-123866633D01*
X104446741Y-123866633D02*
X104541979Y-123914252D01*
X104541979Y-123914252D02*
X104589598Y-123961871D01*
X104589598Y-123961871D02*
X104637217Y-124057109D01*
X104637217Y-124057109D02*
X104684836Y-124247585D01*
X104684836Y-124247585D02*
X104684836Y-124485680D01*
X104684836Y-124485680D02*
X104637217Y-124676156D01*
X104637217Y-124676156D02*
X104589598Y-124771394D01*
X104589598Y-124771394D02*
X104541979Y-124819014D01*
X104541979Y-124819014D02*
X104446741Y-124866633D01*
X104446741Y-124866633D02*
X104351503Y-124866633D01*
X104351503Y-124866633D02*
X104256265Y-124819014D01*
X104256265Y-124819014D02*
X104208646Y-124771394D01*
X104208646Y-124771394D02*
X104161027Y-124676156D01*
X104161027Y-124676156D02*
X104113408Y-124485680D01*
X104113408Y-124485680D02*
X104113408Y-124247585D01*
X104113408Y-124247585D02*
X104161027Y-124057109D01*
X104161027Y-124057109D02*
X104208646Y-123961871D01*
X104208646Y-123961871D02*
X104256265Y-123914252D01*
X104256265Y-123914252D02*
X104351503Y-123866633D01*
X103161027Y-116366633D02*
X103494360Y-117366633D01*
X103494360Y-117366633D02*
X103827693Y-116366633D01*
X104732455Y-117271394D02*
X104684836Y-117319014D01*
X104684836Y-117319014D02*
X104541979Y-117366633D01*
X104541979Y-117366633D02*
X104446741Y-117366633D01*
X104446741Y-117366633D02*
X104303884Y-117319014D01*
X104303884Y-117319014D02*
X104208646Y-117223775D01*
X104208646Y-117223775D02*
X104161027Y-117128537D01*
X104161027Y-117128537D02*
X104113408Y-116938061D01*
X104113408Y-116938061D02*
X104113408Y-116795204D01*
X104113408Y-116795204D02*
X104161027Y-116604728D01*
X104161027Y-116604728D02*
X104208646Y-116509490D01*
X104208646Y-116509490D02*
X104303884Y-116414252D01*
X104303884Y-116414252D02*
X104446741Y-116366633D01*
X104446741Y-116366633D02*
X104541979Y-116366633D01*
X104541979Y-116366633D02*
X104684836Y-116414252D01*
X104684836Y-116414252D02*
X104732455Y-116461871D01*
X105732455Y-117271394D02*
X105684836Y-117319014D01*
X105684836Y-117319014D02*
X105541979Y-117366633D01*
X105541979Y-117366633D02*
X105446741Y-117366633D01*
X105446741Y-117366633D02*
X105303884Y-117319014D01*
X105303884Y-117319014D02*
X105208646Y-117223775D01*
X105208646Y-117223775D02*
X105161027Y-117128537D01*
X105161027Y-117128537D02*
X105113408Y-116938061D01*
X105113408Y-116938061D02*
X105113408Y-116795204D01*
X105113408Y-116795204D02*
X105161027Y-116604728D01*
X105161027Y-116604728D02*
X105208646Y-116509490D01*
X105208646Y-116509490D02*
X105303884Y-116414252D01*
X105303884Y-116414252D02*
X105446741Y-116366633D01*
X105446741Y-116366633D02*
X105541979Y-116366633D01*
X105541979Y-116366633D02*
X105684836Y-116414252D01*
X105684836Y-116414252D02*
X105732455Y-116461871D01*
D10*
X131665714Y-107729104D02*
X132141904Y-107729104D01*
X131570476Y-108014819D02*
X131903809Y-107014819D01*
X131903809Y-107014819D02*
X132237142Y-108014819D01*
X133094285Y-108014819D02*
X132522857Y-108014819D01*
X132808571Y-108014819D02*
X132808571Y-107014819D01*
X132808571Y-107014819D02*
X132713333Y-107157676D01*
X132713333Y-107157676D02*
X132618095Y-107252914D01*
X132618095Y-107252914D02*
X132522857Y-107300533D01*
X133641904Y-67465180D02*
X133641904Y-66655657D01*
X133641904Y-66655657D02*
X133594285Y-66560419D01*
X133594285Y-66560419D02*
X133546666Y-66512800D01*
X133546666Y-66512800D02*
X133451428Y-66465180D01*
X133451428Y-66465180D02*
X133260952Y-66465180D01*
X133260952Y-66465180D02*
X133165714Y-66512800D01*
X133165714Y-66512800D02*
X133118095Y-66560419D01*
X133118095Y-66560419D02*
X133070476Y-66655657D01*
X133070476Y-66655657D02*
X133070476Y-67465180D01*
X132641904Y-66512800D02*
X132499047Y-66465180D01*
X132499047Y-66465180D02*
X132260952Y-66465180D01*
X132260952Y-66465180D02*
X132165714Y-66512800D01*
X132165714Y-66512800D02*
X132118095Y-66560419D01*
X132118095Y-66560419D02*
X132070476Y-66655657D01*
X132070476Y-66655657D02*
X132070476Y-66750895D01*
X132070476Y-66750895D02*
X132118095Y-66846133D01*
X132118095Y-66846133D02*
X132165714Y-66893752D01*
X132165714Y-66893752D02*
X132260952Y-66941371D01*
X132260952Y-66941371D02*
X132451428Y-66988990D01*
X132451428Y-66988990D02*
X132546666Y-67036609D01*
X132546666Y-67036609D02*
X132594285Y-67084228D01*
X132594285Y-67084228D02*
X132641904Y-67179466D01*
X132641904Y-67179466D02*
X132641904Y-67274704D01*
X132641904Y-67274704D02*
X132594285Y-67369942D01*
X132594285Y-67369942D02*
X132546666Y-67417561D01*
X132546666Y-67417561D02*
X132451428Y-67465180D01*
X132451428Y-67465180D02*
X132213333Y-67465180D01*
X132213333Y-67465180D02*
X132070476Y-67417561D01*
X131308571Y-66988990D02*
X131165714Y-66941371D01*
X131165714Y-66941371D02*
X131118095Y-66893752D01*
X131118095Y-66893752D02*
X131070476Y-66798514D01*
X131070476Y-66798514D02*
X131070476Y-66655657D01*
X131070476Y-66655657D02*
X131118095Y-66560419D01*
X131118095Y-66560419D02*
X131165714Y-66512800D01*
X131165714Y-66512800D02*
X131260952Y-66465180D01*
X131260952Y-66465180D02*
X131641904Y-66465180D01*
X131641904Y-66465180D02*
X131641904Y-67465180D01*
X131641904Y-67465180D02*
X131308571Y-67465180D01*
X131308571Y-67465180D02*
X131213333Y-67417561D01*
X131213333Y-67417561D02*
X131165714Y-67369942D01*
X131165714Y-67369942D02*
X131118095Y-67274704D01*
X131118095Y-67274704D02*
X131118095Y-67179466D01*
X131118095Y-67179466D02*
X131165714Y-67084228D01*
X131165714Y-67084228D02*
X131213333Y-67036609D01*
X131213333Y-67036609D02*
X131308571Y-66988990D01*
X131308571Y-66988990D02*
X131641904Y-66988990D01*
X180494819Y-89943404D02*
X180494819Y-89371976D01*
X181494819Y-89657690D02*
X180494819Y-89657690D01*
X181494819Y-89038642D02*
X180494819Y-89038642D01*
X181494819Y-88610071D02*
X180971009Y-88610071D01*
X180971009Y-88610071D02*
X180875771Y-88657690D01*
X180875771Y-88657690D02*
X180828152Y-88752928D01*
X180828152Y-88752928D02*
X180828152Y-88895785D01*
X180828152Y-88895785D02*
X180875771Y-88991023D01*
X180875771Y-88991023D02*
X180923390Y-89038642D01*
X181447200Y-87752928D02*
X181494819Y-87848166D01*
X181494819Y-87848166D02*
X181494819Y-88038642D01*
X181494819Y-88038642D02*
X181447200Y-88133880D01*
X181447200Y-88133880D02*
X181351961Y-88181499D01*
X181351961Y-88181499D02*
X180971009Y-88181499D01*
X180971009Y-88181499D02*
X180875771Y-88133880D01*
X180875771Y-88133880D02*
X180828152Y-88038642D01*
X180828152Y-88038642D02*
X180828152Y-87848166D01*
X180828152Y-87848166D02*
X180875771Y-87752928D01*
X180875771Y-87752928D02*
X180971009Y-87705309D01*
X180971009Y-87705309D02*
X181066247Y-87705309D01*
X181066247Y-87705309D02*
X181161485Y-88181499D01*
X181494819Y-87276737D02*
X180828152Y-87276737D01*
X180923390Y-87276737D02*
X180875771Y-87229118D01*
X180875771Y-87229118D02*
X180828152Y-87133880D01*
X180828152Y-87133880D02*
X180828152Y-86991023D01*
X180828152Y-86991023D02*
X180875771Y-86895785D01*
X180875771Y-86895785D02*
X180971009Y-86848166D01*
X180971009Y-86848166D02*
X181494819Y-86848166D01*
X180971009Y-86848166D02*
X180875771Y-86800547D01*
X180875771Y-86800547D02*
X180828152Y-86705309D01*
X180828152Y-86705309D02*
X180828152Y-86562452D01*
X180828152Y-86562452D02*
X180875771Y-86467213D01*
X180875771Y-86467213D02*
X180971009Y-86419594D01*
X180971009Y-86419594D02*
X181494819Y-86419594D01*
X181447200Y-85562452D02*
X181494819Y-85657690D01*
X181494819Y-85657690D02*
X181494819Y-85848166D01*
X181494819Y-85848166D02*
X181447200Y-85943404D01*
X181447200Y-85943404D02*
X181351961Y-85991023D01*
X181351961Y-85991023D02*
X180971009Y-85991023D01*
X180971009Y-85991023D02*
X180875771Y-85943404D01*
X180875771Y-85943404D02*
X180828152Y-85848166D01*
X180828152Y-85848166D02*
X180828152Y-85657690D01*
X180828152Y-85657690D02*
X180875771Y-85562452D01*
X180875771Y-85562452D02*
X180971009Y-85514833D01*
X180971009Y-85514833D02*
X181066247Y-85514833D01*
X181066247Y-85514833D02*
X181161485Y-85991023D01*
X181447200Y-84371975D02*
X181494819Y-84229118D01*
X181494819Y-84229118D02*
X181494819Y-83991023D01*
X181494819Y-83991023D02*
X181447200Y-83895785D01*
X181447200Y-83895785D02*
X181399580Y-83848166D01*
X181399580Y-83848166D02*
X181304342Y-83800547D01*
X181304342Y-83800547D02*
X181209104Y-83800547D01*
X181209104Y-83800547D02*
X181113866Y-83848166D01*
X181113866Y-83848166D02*
X181066247Y-83895785D01*
X181066247Y-83895785D02*
X181018628Y-83991023D01*
X181018628Y-83991023D02*
X180971009Y-84181499D01*
X180971009Y-84181499D02*
X180923390Y-84276737D01*
X180923390Y-84276737D02*
X180875771Y-84324356D01*
X180875771Y-84324356D02*
X180780533Y-84371975D01*
X180780533Y-84371975D02*
X180685295Y-84371975D01*
X180685295Y-84371975D02*
X180590057Y-84324356D01*
X180590057Y-84324356D02*
X180542438Y-84276737D01*
X180542438Y-84276737D02*
X180494819Y-84181499D01*
X180494819Y-84181499D02*
X180494819Y-83943404D01*
X180494819Y-83943404D02*
X180542438Y-83800547D01*
X180828152Y-83467213D02*
X181494819Y-83276737D01*
X181494819Y-83276737D02*
X181018628Y-83086261D01*
X181018628Y-83086261D02*
X181494819Y-82895785D01*
X181494819Y-82895785D02*
X180828152Y-82705309D01*
X181494819Y-82324356D02*
X180828152Y-82324356D01*
X180494819Y-82324356D02*
X180542438Y-82371975D01*
X180542438Y-82371975D02*
X180590057Y-82324356D01*
X180590057Y-82324356D02*
X180542438Y-82276737D01*
X180542438Y-82276737D02*
X180494819Y-82324356D01*
X180494819Y-82324356D02*
X180590057Y-82324356D01*
X180828152Y-81991023D02*
X180828152Y-81610071D01*
X180494819Y-81848166D02*
X181351961Y-81848166D01*
X181351961Y-81848166D02*
X181447200Y-81800547D01*
X181447200Y-81800547D02*
X181494819Y-81705309D01*
X181494819Y-81705309D02*
X181494819Y-81610071D01*
X181447200Y-80848166D02*
X181494819Y-80943404D01*
X181494819Y-80943404D02*
X181494819Y-81133880D01*
X181494819Y-81133880D02*
X181447200Y-81229118D01*
X181447200Y-81229118D02*
X181399580Y-81276737D01*
X181399580Y-81276737D02*
X181304342Y-81324356D01*
X181304342Y-81324356D02*
X181018628Y-81324356D01*
X181018628Y-81324356D02*
X180923390Y-81276737D01*
X180923390Y-81276737D02*
X180875771Y-81229118D01*
X180875771Y-81229118D02*
X180828152Y-81133880D01*
X180828152Y-81133880D02*
X180828152Y-80943404D01*
X180828152Y-80943404D02*
X180875771Y-80848166D01*
X181494819Y-80419594D02*
X180494819Y-80419594D01*
X181494819Y-79991023D02*
X180971009Y-79991023D01*
X180971009Y-79991023D02*
X180875771Y-80038642D01*
X180875771Y-80038642D02*
X180828152Y-80133880D01*
X180828152Y-80133880D02*
X180828152Y-80276737D01*
X180828152Y-80276737D02*
X180875771Y-80371975D01*
X180875771Y-80371975D02*
X180923390Y-80419594D01*
D11*
X165203419Y-119971904D02*
X166012942Y-119971904D01*
X166012942Y-119971904D02*
X166108180Y-119924285D01*
X166108180Y-119924285D02*
X166155800Y-119876666D01*
X166155800Y-119876666D02*
X166203419Y-119781428D01*
X166203419Y-119781428D02*
X166203419Y-119590952D01*
X166203419Y-119590952D02*
X166155800Y-119495714D01*
X166155800Y-119495714D02*
X166108180Y-119448095D01*
X166108180Y-119448095D02*
X166012942Y-119400476D01*
X166012942Y-119400476D02*
X165203419Y-119400476D01*
X166203419Y-118400476D02*
X166203419Y-118971904D01*
X166203419Y-118686190D02*
X165203419Y-118686190D01*
X165203419Y-118686190D02*
X165346276Y-118781428D01*
X165346276Y-118781428D02*
X165441514Y-118876666D01*
X165441514Y-118876666D02*
X165489133Y-118971904D01*
X140323693Y-125634252D02*
X140228455Y-125586633D01*
X140228455Y-125586633D02*
X140085598Y-125586633D01*
X140085598Y-125586633D02*
X139942741Y-125634252D01*
X139942741Y-125634252D02*
X139847503Y-125729490D01*
X139847503Y-125729490D02*
X139799884Y-125824728D01*
X139799884Y-125824728D02*
X139752265Y-126015204D01*
X139752265Y-126015204D02*
X139752265Y-126158061D01*
X139752265Y-126158061D02*
X139799884Y-126348537D01*
X139799884Y-126348537D02*
X139847503Y-126443775D01*
X139847503Y-126443775D02*
X139942741Y-126539014D01*
X139942741Y-126539014D02*
X140085598Y-126586633D01*
X140085598Y-126586633D02*
X140180836Y-126586633D01*
X140180836Y-126586633D02*
X140323693Y-126539014D01*
X140323693Y-126539014D02*
X140371312Y-126491394D01*
X140371312Y-126491394D02*
X140371312Y-126158061D01*
X140371312Y-126158061D02*
X140180836Y-126158061D01*
X140799884Y-126586633D02*
X140799884Y-125586633D01*
X140799884Y-125586633D02*
X141371312Y-126586633D01*
X141371312Y-126586633D02*
X141371312Y-125586633D01*
X141847503Y-126586633D02*
X141847503Y-125586633D01*
X141847503Y-125586633D02*
X142085598Y-125586633D01*
X142085598Y-125586633D02*
X142228455Y-125634252D01*
X142228455Y-125634252D02*
X142323693Y-125729490D01*
X142323693Y-125729490D02*
X142371312Y-125824728D01*
X142371312Y-125824728D02*
X142418931Y-126015204D01*
X142418931Y-126015204D02*
X142418931Y-126158061D01*
X142418931Y-126158061D02*
X142371312Y-126348537D01*
X142371312Y-126348537D02*
X142323693Y-126443775D01*
X142323693Y-126443775D02*
X142228455Y-126539014D01*
X142228455Y-126539014D02*
X142085598Y-126586633D01*
X142085598Y-126586633D02*
X141847503Y-126586633D01*
X139657027Y-120336633D02*
X139990360Y-121336633D01*
X139990360Y-121336633D02*
X140323693Y-120336633D01*
X141228455Y-121241394D02*
X141180836Y-121289014D01*
X141180836Y-121289014D02*
X141037979Y-121336633D01*
X141037979Y-121336633D02*
X140942741Y-121336633D01*
X140942741Y-121336633D02*
X140799884Y-121289014D01*
X140799884Y-121289014D02*
X140704646Y-121193775D01*
X140704646Y-121193775D02*
X140657027Y-121098537D01*
X140657027Y-121098537D02*
X140609408Y-120908061D01*
X140609408Y-120908061D02*
X140609408Y-120765204D01*
X140609408Y-120765204D02*
X140657027Y-120574728D01*
X140657027Y-120574728D02*
X140704646Y-120479490D01*
X140704646Y-120479490D02*
X140799884Y-120384252D01*
X140799884Y-120384252D02*
X140942741Y-120336633D01*
X140942741Y-120336633D02*
X141037979Y-120336633D01*
X141037979Y-120336633D02*
X141180836Y-120384252D01*
X141180836Y-120384252D02*
X141228455Y-120431871D01*
X142228455Y-121241394D02*
X142180836Y-121289014D01*
X142180836Y-121289014D02*
X142037979Y-121336633D01*
X142037979Y-121336633D02*
X141942741Y-121336633D01*
X141942741Y-121336633D02*
X141799884Y-121289014D01*
X141799884Y-121289014D02*
X141704646Y-121193775D01*
X141704646Y-121193775D02*
X141657027Y-121098537D01*
X141657027Y-121098537D02*
X141609408Y-120908061D01*
X141609408Y-120908061D02*
X141609408Y-120765204D01*
X141609408Y-120765204D02*
X141657027Y-120574728D01*
X141657027Y-120574728D02*
X141704646Y-120479490D01*
X141704646Y-120479490D02*
X141799884Y-120384252D01*
X141799884Y-120384252D02*
X141942741Y-120336633D01*
X141942741Y-120336633D02*
X142037979Y-120336633D01*
X142037979Y-120336633D02*
X142180836Y-120384252D01*
X142180836Y-120384252D02*
X142228455Y-120431871D01*
X139990360Y-122836633D02*
X140180836Y-122836633D01*
X140180836Y-122836633D02*
X140276074Y-122884252D01*
X140276074Y-122884252D02*
X140371312Y-122979490D01*
X140371312Y-122979490D02*
X140418931Y-123169966D01*
X140418931Y-123169966D02*
X140418931Y-123503299D01*
X140418931Y-123503299D02*
X140371312Y-123693775D01*
X140371312Y-123693775D02*
X140276074Y-123789014D01*
X140276074Y-123789014D02*
X140180836Y-123836633D01*
X140180836Y-123836633D02*
X139990360Y-123836633D01*
X139990360Y-123836633D02*
X139895122Y-123789014D01*
X139895122Y-123789014D02*
X139799884Y-123693775D01*
X139799884Y-123693775D02*
X139752265Y-123503299D01*
X139752265Y-123503299D02*
X139752265Y-123169966D01*
X139752265Y-123169966D02*
X139799884Y-122979490D01*
X139799884Y-122979490D02*
X139895122Y-122884252D01*
X139895122Y-122884252D02*
X139990360Y-122836633D01*
X140847503Y-122836633D02*
X140847503Y-123646156D01*
X140847503Y-123646156D02*
X140895122Y-123741394D01*
X140895122Y-123741394D02*
X140942741Y-123789014D01*
X140942741Y-123789014D02*
X141037979Y-123836633D01*
X141037979Y-123836633D02*
X141228455Y-123836633D01*
X141228455Y-123836633D02*
X141323693Y-123789014D01*
X141323693Y-123789014D02*
X141371312Y-123741394D01*
X141371312Y-123741394D02*
X141418931Y-123646156D01*
X141418931Y-123646156D02*
X141418931Y-122836633D01*
X141752265Y-122836633D02*
X142323693Y-122836633D01*
X142037979Y-123836633D02*
X142037979Y-122836633D01*
X147799884Y-126586633D02*
X147799884Y-125586633D01*
X147799884Y-125586633D02*
X148037979Y-125586633D01*
X148037979Y-125586633D02*
X148180836Y-125634252D01*
X148180836Y-125634252D02*
X148276074Y-125729490D01*
X148276074Y-125729490D02*
X148323693Y-125824728D01*
X148323693Y-125824728D02*
X148371312Y-126015204D01*
X148371312Y-126015204D02*
X148371312Y-126158061D01*
X148371312Y-126158061D02*
X148323693Y-126348537D01*
X148323693Y-126348537D02*
X148276074Y-126443775D01*
X148276074Y-126443775D02*
X148180836Y-126539014D01*
X148180836Y-126539014D02*
X148037979Y-126586633D01*
X148037979Y-126586633D02*
X147799884Y-126586633D01*
X148799884Y-126586633D02*
X148799884Y-125586633D01*
X148799884Y-126062823D02*
X149371312Y-126062823D01*
X149371312Y-126586633D02*
X149371312Y-125586633D01*
X149704646Y-125586633D02*
X150276074Y-125586633D01*
X149990360Y-126586633D02*
X149990360Y-125586633D01*
X150609408Y-126205680D02*
X151371313Y-126205680D01*
X152371312Y-126586633D02*
X151799884Y-126586633D01*
X152085598Y-126586633D02*
X152085598Y-125586633D01*
X152085598Y-125586633D02*
X151990360Y-125729490D01*
X151990360Y-125729490D02*
X151895122Y-125824728D01*
X151895122Y-125824728D02*
X151799884Y-125872347D01*
X153323693Y-126586633D02*
X152752265Y-126586633D01*
X153037979Y-126586633D02*
X153037979Y-125586633D01*
X153037979Y-125586633D02*
X152942741Y-125729490D01*
X152942741Y-125729490D02*
X152847503Y-125824728D01*
X152847503Y-125824728D02*
X152752265Y-125872347D01*
X98500000Y-63104286D02*
X120500000Y-63104286D01*
X98500000Y-101604286D02*
X98500000Y-63104286D01*
X120500000Y-63104286D02*
X120500000Y-101604286D01*
X120500000Y-101607286D02*
X98500000Y-101607286D01*
X144500000Y-63085786D02*
X174500000Y-63085786D01*
X144500000Y-106585786D02*
X144500000Y-63085786D01*
X174500000Y-63085786D02*
X174500000Y-106585786D01*
X174500000Y-106585786D02*
X144500000Y-106585786D01*
X98500000Y-110700000D02*
X130500000Y-110700000D01*
X98500000Y-130700000D02*
X98500000Y-110700000D01*
X130500000Y-110700000D02*
X130500000Y-130700000D01*
X130500000Y-130700000D02*
X98500000Y-130700000D01*
X98500000Y-130700000D02*
X130500000Y-130700000D01*
X130500000Y-110700000D01*
X98500000Y-110700000D01*
X98500000Y-130700000D01*
D12*
X123360000Y-62980000D02*
X123360000Y-106420000D01*
X123360000Y-62980000D02*
X128440000Y-62980000D01*
X123360000Y-106420000D02*
X141400000Y-106420000D01*
X126030000Y-65650000D02*
X123360000Y-65650000D01*
X126030000Y-103750000D02*
X123360000Y-103750000D01*
X126030000Y-103750000D02*
X126030000Y-65650000D01*
X128440000Y-60440000D02*
X136320000Y-60440000D01*
X128440000Y-70860000D02*
X128440000Y-60440000D01*
X136320000Y-60440000D02*
X136320000Y-70860000D01*
X136320000Y-70860000D02*
X128440000Y-70860000D01*
X138730000Y-65650000D02*
X141400000Y-65650000D01*
X138730000Y-101210000D02*
X138730000Y-65650000D01*
X138730000Y-101210000D02*
X138730000Y-103750000D01*
X138730000Y-101210000D02*
X141400000Y-101210000D01*
X138730000Y-103750000D02*
X141400000Y-103750000D01*
X141400000Y-62980000D02*
X136320000Y-62980000D01*
X141400000Y-101210000D02*
X141400000Y-62980000D01*
X141400000Y-106420000D02*
X141400000Y-103750000D01*
D13*
G36*
X173130993Y-117581979D02*
G01*
X173144126Y-117624038D01*
X173154105Y-117710731D01*
X173160685Y-117826718D01*
X173163623Y-117956655D01*
X173162674Y-118085202D01*
X173157594Y-118197015D01*
X173148138Y-118276752D01*
X173142403Y-118298049D01*
X173099116Y-118363183D01*
X173045540Y-118380561D01*
X173008904Y-118360599D01*
X173000871Y-118324185D01*
X172994376Y-118240726D01*
X172990150Y-118123214D01*
X172988889Y-118004968D01*
X172990002Y-117855604D01*
X172994591Y-117754143D01*
X173004526Y-117688460D01*
X173021681Y-117646431D01*
X173047925Y-117615932D01*
X173049120Y-117614845D01*
X173100082Y-117581904D01*
X173130993Y-117581979D01*
G37*
G36*
X176313690Y-117552061D02*
G01*
X176323464Y-117589461D01*
X176332954Y-117674124D01*
X176341042Y-117793271D01*
X176346402Y-117926422D01*
X176349619Y-118081129D01*
X176348111Y-118188128D01*
X176340530Y-118259667D01*
X176325530Y-118307988D01*
X176301764Y-118345339D01*
X176300095Y-118347418D01*
X176255848Y-118392215D01*
X176224622Y-118390609D01*
X176209819Y-118375725D01*
X176194317Y-118328177D01*
X176181144Y-118232669D01*
X176171651Y-118101280D01*
X176168083Y-118001971D01*
X176165640Y-117854336D01*
X176167598Y-117753880D01*
X176175787Y-117687795D01*
X176192040Y-117643266D01*
X176218188Y-117607485D01*
X176225647Y-117599303D01*
X176276566Y-117557563D01*
X176312133Y-117550773D01*
X176313690Y-117552061D01*
G37*
G36*
X179894326Y-118929122D02*
G01*
X180168267Y-118965214D01*
X180402720Y-119040204D01*
X180594814Y-119152582D01*
X180741676Y-119300839D01*
X180808579Y-119409757D01*
X180866730Y-119550500D01*
X180881714Y-119661126D01*
X180853207Y-119753592D01*
X180797345Y-119824059D01*
X180744076Y-119871478D01*
X180690722Y-119897968D01*
X180617276Y-119909557D01*
X180504614Y-119912272D01*
X180377709Y-119919122D01*
X180255745Y-119936455D01*
X180179550Y-119955990D01*
X180043936Y-119986770D01*
X179881370Y-119997697D01*
X179719806Y-119988589D01*
X179588923Y-119959880D01*
X179501380Y-119916706D01*
X179400690Y-119850384D01*
X179349540Y-119809971D01*
X179234706Y-119730781D01*
X179103749Y-119667544D01*
X179061877Y-119653351D01*
X178943939Y-119607511D01*
X178875620Y-119547132D01*
X178846553Y-119460414D01*
X178843498Y-119404805D01*
X178859139Y-119287932D01*
X178911947Y-119195746D01*
X179010749Y-119116339D01*
X179089462Y-119073012D01*
X179291349Y-118989447D01*
X179499793Y-118941116D01*
X179732881Y-118924784D01*
X179894326Y-118929122D01*
G37*
G36*
X169854337Y-119082955D02*
G01*
X169965281Y-119093413D01*
X170047521Y-119110310D01*
X170116726Y-119136526D01*
X170165333Y-119161700D01*
X170310377Y-119273150D01*
X170418912Y-119419211D01*
X170480188Y-119584609D01*
X170485565Y-119616701D01*
X170493114Y-119709034D01*
X170479788Y-119768930D01*
X170438936Y-119822293D01*
X170430584Y-119830774D01*
X170370558Y-119882518D01*
X170304217Y-119917132D01*
X170217574Y-119938279D01*
X170096643Y-119949619D01*
X169959080Y-119954231D01*
X169808850Y-119961476D01*
X169698812Y-119978482D01*
X169609423Y-120008884D01*
X169574896Y-120025703D01*
X169434441Y-120073849D01*
X169270108Y-120091979D01*
X169106725Y-120079718D01*
X168969117Y-120036687D01*
X168965721Y-120034956D01*
X168878756Y-120000050D01*
X168761273Y-119965386D01*
X168665484Y-119943865D01*
X168515056Y-119909426D01*
X168415945Y-119869541D01*
X168359426Y-119818268D01*
X168336771Y-119749665D01*
X168335224Y-119718987D01*
X168342413Y-119659102D01*
X168370246Y-119602649D01*
X168428127Y-119535498D01*
X168507860Y-119459559D01*
X168718757Y-119297059D01*
X168949412Y-119180621D01*
X169207398Y-119107807D01*
X169500287Y-119076180D01*
X169699019Y-119076060D01*
X169854337Y-119082955D01*
G37*
G36*
X177730702Y-114583503D02*
G01*
X177791376Y-114622080D01*
X177828008Y-114653195D01*
X177910470Y-114750604D01*
X177976665Y-114886900D01*
X178029349Y-115069238D01*
X178066567Y-115272407D01*
X178080007Y-115403355D01*
X178089481Y-115581315D01*
X178095037Y-115793387D01*
X178096725Y-116026670D01*
X178094596Y-116268264D01*
X178088698Y-116505268D01*
X178079082Y-116724782D01*
X178065798Y-116913905D01*
X178060009Y-116973161D01*
X178044240Y-117133173D01*
X178037374Y-117253171D01*
X178039946Y-117352601D01*
X178052492Y-117450910D01*
X178075546Y-117567545D01*
X178076491Y-117571926D01*
X178104215Y-117724109D01*
X178129142Y-117902753D01*
X178146726Y-118074296D01*
X178149219Y-118108694D01*
X178167967Y-118395626D01*
X178288061Y-118380806D01*
X178423342Y-118368971D01*
X178561879Y-118365000D01*
X178692653Y-118368075D01*
X178804643Y-118377381D01*
X178886827Y-118392100D01*
X178928187Y-118411414D01*
X178926112Y-118428103D01*
X178891546Y-118436516D01*
X178809468Y-118447447D01*
X178692285Y-118459463D01*
X178557191Y-118470767D01*
X178416965Y-118483149D01*
X178298998Y-118496960D01*
X178216028Y-118510478D01*
X178181148Y-118521562D01*
X178157143Y-118569262D01*
X178147958Y-118605792D01*
X178147827Y-118633970D01*
X178165810Y-118652967D01*
X178212570Y-118665838D01*
X178298768Y-118675637D01*
X178423168Y-118684637D01*
X178595873Y-118702426D01*
X178742035Y-118729932D01*
X178852642Y-118764534D01*
X178918680Y-118803613D01*
X178933569Y-118832939D01*
X178909634Y-118854801D01*
X178866016Y-118849740D01*
X178809162Y-118840562D01*
X178707858Y-118829922D01*
X178577630Y-118819288D01*
X178465326Y-118811904D01*
X178132189Y-118792323D01*
X178112958Y-118864187D01*
X178093863Y-118964856D01*
X178105379Y-119021072D01*
X178149774Y-119041321D01*
X178160461Y-119041794D01*
X178245096Y-119058288D01*
X178348994Y-119098498D01*
X178446000Y-119150451D01*
X178509409Y-119201506D01*
X178530764Y-119237139D01*
X178513818Y-119250756D01*
X178452950Y-119242490D01*
X178342538Y-119212473D01*
X178320819Y-119205939D01*
X178193419Y-119171376D01*
X178109431Y-119162385D01*
X178056756Y-119181652D01*
X178023291Y-119231857D01*
X178008204Y-119275247D01*
X177964990Y-119381511D01*
X177900675Y-119496849D01*
X177827259Y-119603114D01*
X177756741Y-119682157D01*
X177721819Y-119708420D01*
X177693976Y-119714688D01*
X177632640Y-119720417D01*
X177535403Y-119725643D01*
X177399853Y-119730404D01*
X177223581Y-119734738D01*
X177004178Y-119738681D01*
X176739233Y-119742272D01*
X176426337Y-119745546D01*
X176063079Y-119748543D01*
X175647051Y-119751299D01*
X175175841Y-119753852D01*
X174647041Y-119756239D01*
X174636220Y-119756284D01*
X171614876Y-119768776D01*
X171552537Y-119706438D01*
X171500416Y-119640727D01*
X171443781Y-119549973D01*
X171425272Y-119515252D01*
X171374089Y-119416345D01*
X171332515Y-119359122D01*
X171283514Y-119335711D01*
X171210054Y-119338241D01*
X171095101Y-119358841D01*
X171089219Y-119359964D01*
X170954862Y-119384652D01*
X170868865Y-119397259D01*
X170820869Y-119398275D01*
X170800517Y-119388191D01*
X170797163Y-119373807D01*
X170824023Y-119349770D01*
X170894851Y-119317886D01*
X170995015Y-119283421D01*
X171109885Y-119251641D01*
X171179964Y-119236017D01*
X171250661Y-119215595D01*
X171273746Y-119182037D01*
X171256462Y-119118766D01*
X171243784Y-119089967D01*
X171221351Y-119052537D01*
X171186349Y-119028323D01*
X171124885Y-119012614D01*
X171023066Y-119000697D01*
X170966066Y-118995784D01*
X170817102Y-118987086D01*
X170659937Y-118983513D01*
X170528297Y-118985824D01*
X170526950Y-118985893D01*
X170421231Y-118986975D01*
X170345716Y-118979123D01*
X170316785Y-118966075D01*
X170331984Y-118940513D01*
X170395502Y-118916498D01*
X170495607Y-118895824D01*
X170620570Y-118880288D01*
X170758663Y-118871685D01*
X170898156Y-118871810D01*
X170924763Y-118873017D01*
X171060847Y-118877858D01*
X171144636Y-118872709D01*
X171183472Y-118854579D01*
X171184699Y-118820478D01*
X171161569Y-118776564D01*
X171122170Y-118748829D01*
X171040652Y-118710688D01*
X170932757Y-118667795D01*
X170814226Y-118625805D01*
X170700799Y-118590373D01*
X170608217Y-118567155D01*
X170561978Y-118561158D01*
X170510752Y-118547899D01*
X170504585Y-118523227D01*
X170541582Y-118500397D01*
X170621867Y-118494618D01*
X170731505Y-118504744D01*
X170856560Y-118529633D01*
X170962485Y-118560822D01*
X171119427Y-118614818D01*
X171135615Y-118265033D01*
X171166273Y-117960283D01*
X171744641Y-117960283D01*
X171747980Y-118093966D01*
X171759412Y-118190979D01*
X171784317Y-118274640D01*
X171828074Y-118368265D01*
X171847130Y-118404499D01*
X171974682Y-118593787D01*
X172134821Y-118738229D01*
X172335963Y-118844638D01*
X172433451Y-118879238D01*
X172566593Y-118905632D01*
X172735129Y-118916996D01*
X172916339Y-118913420D01*
X173087505Y-118894996D01*
X173178239Y-118876255D01*
X173431542Y-118784603D01*
X173515399Y-118733603D01*
X174389010Y-118733603D01*
X174440278Y-118788345D01*
X174487005Y-118822267D01*
X174564763Y-118871221D01*
X174617620Y-118884760D01*
X174669021Y-118861075D01*
X174737292Y-118802953D01*
X174798154Y-118736634D01*
X174807512Y-118690990D01*
X174763489Y-118664307D01*
X174664205Y-118654870D01*
X174577092Y-118656785D01*
X174456515Y-118669480D01*
X174394121Y-118694534D01*
X174389010Y-118733603D01*
X173515399Y-118733603D01*
X173647702Y-118653139D01*
X173821361Y-118486052D01*
X173947161Y-118287531D01*
X173956020Y-118268113D01*
X174001791Y-118091570D01*
X173998501Y-118017123D01*
X175235736Y-118017123D01*
X175247866Y-118210150D01*
X175295707Y-118352827D01*
X175426066Y-118551430D01*
X175603300Y-118720646D01*
X175818206Y-118852549D01*
X175931205Y-118899980D01*
X176032627Y-118934408D01*
X176120579Y-118956407D01*
X176212895Y-118968120D01*
X176327407Y-118971686D01*
X176481947Y-118969245D01*
X176503381Y-118968668D01*
X176659263Y-118961017D01*
X176776065Y-118945546D01*
X176874626Y-118918394D01*
X176956332Y-118884760D01*
X177151374Y-118770181D01*
X177299280Y-118624542D01*
X177402751Y-118443499D01*
X177464487Y-118222712D01*
X177484680Y-118035342D01*
X177489274Y-117889145D01*
X177483624Y-117780502D01*
X177465220Y-117687421D01*
X177434471Y-117595583D01*
X177331667Y-117399135D01*
X177186284Y-117226738D01*
X177012508Y-117094829D01*
X176992703Y-117083732D01*
X176733171Y-116971772D01*
X176477803Y-116916800D01*
X176231239Y-116917897D01*
X175998119Y-116974141D01*
X175783082Y-117084613D01*
X175590768Y-117248393D01*
X175479557Y-117383824D01*
X175353302Y-117594893D01*
X175271454Y-117809015D01*
X175235736Y-118017123D01*
X173998501Y-118017123D01*
X173993164Y-117896352D01*
X173931261Y-117686658D01*
X173817205Y-117466688D01*
X173695952Y-117294736D01*
X173534617Y-117123395D01*
X173352204Y-116988103D01*
X173160198Y-116895419D01*
X172970083Y-116851898D01*
X172915943Y-116849409D01*
X172750630Y-116870985D01*
X172563062Y-116930288D01*
X172369738Y-117019177D01*
X172187157Y-117129514D01*
X172031820Y-117253158D01*
X171971257Y-117315440D01*
X171858002Y-117465992D01*
X171787057Y-117618262D01*
X171751733Y-117791287D01*
X171744641Y-117960283D01*
X171166273Y-117960283D01*
X171174067Y-117882802D01*
X171230297Y-117615011D01*
X171263425Y-117484563D01*
X171284238Y-117384321D01*
X171293990Y-117295349D01*
X171293936Y-117198710D01*
X171285330Y-117075468D01*
X171274047Y-116954491D01*
X171263244Y-116794911D01*
X171256611Y-116593365D01*
X171253911Y-116362312D01*
X171254910Y-116114212D01*
X171259372Y-115861523D01*
X171267061Y-115616705D01*
X171277743Y-115392216D01*
X171291181Y-115200516D01*
X171307142Y-115054063D01*
X171310343Y-115032978D01*
X171346704Y-114855221D01*
X171393625Y-114730277D01*
X171457850Y-114651033D01*
X171546122Y-114610377D01*
X171665187Y-114601196D01*
X171716880Y-114604225D01*
X171881596Y-114638953D01*
X172076393Y-114715525D01*
X172293560Y-114829124D01*
X172525385Y-114974932D01*
X172764156Y-115148132D01*
X173002162Y-115343905D01*
X173212774Y-115538784D01*
X173329974Y-115650965D01*
X173439866Y-115751233D01*
X173531682Y-115830094D01*
X173594653Y-115878058D01*
X173604373Y-115883970D01*
X173634248Y-115897341D01*
X173674189Y-115907951D01*
X173730539Y-115916026D01*
X173809641Y-115921794D01*
X173917839Y-115925482D01*
X174061475Y-115927318D01*
X174246893Y-115927528D01*
X174480436Y-115926340D01*
X174730260Y-115924324D01*
X175766075Y-115915132D01*
X175840704Y-115819327D01*
X175963394Y-115674857D01*
X176118800Y-115511112D01*
X176290809Y-115343761D01*
X176463307Y-115188476D01*
X176620182Y-115060928D01*
X176621749Y-115059746D01*
X176807914Y-114929812D01*
X177003468Y-114811363D01*
X177195939Y-114710713D01*
X177372854Y-114634174D01*
X177521739Y-114588061D01*
X177570265Y-114579596D01*
X177666187Y-114571966D01*
X177730702Y-114583503D01*
G37*
D12*
X179860000Y-79785786D02*
X177140000Y-79785786D01*
X177140000Y-90005786D01*
X179860000Y-90005786D01*
X179860000Y-79785786D01*
D11*
X135496000Y-116210000D02*
X164496000Y-116210000D01*
X135496000Y-130710000D02*
X135496000Y-116210000D01*
X164496000Y-116210000D02*
X164496000Y-130710000D01*
X164496000Y-130710000D02*
X135496000Y-130710000D01*
X135496000Y-130710000D02*
X164496000Y-130710000D01*
X164496000Y-116210000D01*
X135496000Y-116210000D01*
X135496000Y-130710000D01*
M02*
