M48
INCH,TZ
T1C0.0118
T2C0.0315
T3C0.0394
%
G90
G05
T1
X61969Y-30079
X62756Y-28346
T2
X39617Y-46020
X39617Y-47020
X39617Y-48020
X39617Y-49020
X40610Y-39333
X41610Y-39333
X42610Y-39333
X43610Y-39333
X44610Y-39333
X45610Y-39333
X54094Y-47606
X54094Y-48606
X54094Y-49606
X59201Y-25924
X60201Y-25924
X61201Y-25924
X62201Y-25924
X63201Y-25924
X64201Y-25924
X65201Y-25924
X66201Y-25924
X70276Y-32424
X70276Y-33424
X70276Y-34424
T3
X49118Y-26346
X49118Y-27346
X49118Y-28346
X49118Y-29346
X49118Y-30346
X49118Y-31346
X49118Y-32346
X49118Y-33346
X49118Y-34346
X49118Y-35346
X49118Y-36346
X49118Y-37346
X49118Y-38346
X49118Y-39346
X49118Y-40346
X55118Y-26346
X55118Y-27346
X55118Y-28346
X55118Y-29346
X55118Y-30346
X55118Y-31346
X55118Y-32346
X55118Y-33346
X55118Y-34346
X55118Y-35346
X55118Y-36346
X55118Y-37346
X55118Y-38346
X55118Y-39346
X55118Y-40346
M30
